<mxfile host="app.diagrams.net" modified="2024-03-13T20:56:38.092Z" agent="Mozilla/5.0 (Windows NT 10.0; Win64; x64) AppleWebKit/537.36 (KHTML, like Gecko) Chrome/122.0.0.0 Safari/537.36" etag="Deb4YniLPcwmA1K87PWv" version="23.1.0" type="device">
  <diagram name="PÃ¡gina-1" id="mZ7wVBfMoiY0AmYTlLWx">
    <mxGraphModel dx="797" dy="351" grid="1" gridSize="10" guides="1" tooltips="1" connect="1" arrows="1" fold="1" page="1" pageScale="1" pageWidth="827" pageHeight="1169" math="0" shadow="0">
      <root>
        <mxCell id="0" />
        <mxCell id="1" parent="0" />
        <mxCell id="DFZbkyLsctiWiUxPVT1s-2" style="edgeStyle=orthogonalEdgeStyle;rounded=0;orthogonalLoop=1;jettySize=auto;html=1;exitX=0.5;exitY=1;exitDx=0;exitDy=0;" edge="1" parent="1">
          <mxGeometry relative="1" as="geometry">
            <mxPoint x="485.5" y="297" as="sourcePoint" />
            <mxPoint x="485.5" y="297" as="targetPoint" />
          </mxGeometry>
        </mxCell>
        <mxCell id="DFZbkyLsctiWiUxPVT1s-20" value="" style="shape=image;verticalLabelPosition=bottom;labelBackgroundColor=default;verticalAlign=top;aspect=fixed;imageAspect=0;image=data:image/png,iVBORw0KGgoAAAANSUhEUgAAAs4AAAFmCAYAAAB9SxwyAAAgAElEQVR4Aey9CXBUZbr/T4BItk53EgJJOiQEkoCyE3Ah4k8YhIAwgAn7oCjrADLMjHgBEZl7lXFE9DIoIpdFBAfZXBCEUtlCCCAW0RhGKBFIqkkgle0f0re7q9P1+dc5vS/n7W6EGfR2qlJ9lvd9n+f5Put5z3vOaUHoL4RACIEQAiEEQgiEEAghEEIghEAIAb8ItPDbItQghEAIgRACIQRCCIQQCCEQQiCEQAgBhIWz+dtN/HHGdKZP9/U/kyX/uACYOL1uLjOmz+G/C5vuKKR2fmb/7cuA6ATbPpBBm8sL+ceW99hz5jqWQDqE2oQQCCEQQiBQBJpvcqOyBn0ouASKWKidPwSMtVTV6P21Cp0PIRBCIEAEhIWz4ZMnSWzZghYtfP23otOzRwE9HzwRTViLNuRtqAmQ7K01s/NzzyNvBDRAsO39Dmoq5bX/p6Fli9ZkLizE5LfD7WlgrvmR736swew2nIWGq6X8s8rgdjS0E0Lg/wYCJoqWDSDnT1/9gsQ1cWr5QPosOIgRaC4/wqYNh/jJ5tjmf65nbLqK2MR2ZM06ILf5BQkXNKue8gc1gOkUywf2YcFBCcng/kynljOwzwJuoWvghILgz1S0jAE5fwp87GBaNv/IW0O19FlcxJ2d1gqGqVts21zOkU0bOGR3mFscJtTtV4qA8VveGt+XrG6P8Yf3v0P36XyGLb0zdVpAhXOr1HxWf7yPfftc/z/jcFmtFP65dvZzPtu3n9Pl7qWddM5oavajpWaafTRpNhowe8y6WK6X8MVn+9hffNl7zGYjBo8OwvaYMZk8CHiP6nJEz5mX7icmTLqI+FcWzs3885X7ier/X5x3w0nP+6Oj6DjvsAuPoc0QAv9XEDBycGYqbad89AsS2MiXc9LQjPsQaf6vcc9TpGnH8/4NKQ6Z+XpJN6IfWc1PzWA2e8bSOy2miZN/zed3a7/zuEC/c3Td5Q+SjvFL5qRpGPdh8DOpxi/nkKYZxy10DZzJIPgzHpxJatspgY8dcEsL17aPp+ug1/gu+OuLgKn8yxo27uGpNC3j378h3+01nfwr+b9by3f/alf5lwkcIhQMAubv/otHR75Jyan/YdaAdNp1eIhFB2vvyMqAgArn1tl/okhxetXA/oX96N6tD7N311vlNF/h0yUj6BIXTlhYOJrsx/jjzguOGZT63bPp060XI19YzYJ+cbQOb8/Idy6BpZbiNU/xUJqK1mFhtI5J5f6pazhVZy1wjUeWMrBHN3o/tdWGp4Xa4jU89VAaqtZhhLWOIfX+qaw5VSeD5d0e9D/sZPGYPqREtSasZQSJ3R7nuZ0X8Ddv23h8ET0jWhIRGUHYv7pwfvl+ovopFM5zfRTOpnoqK6p93O5tRl9dzhVdnUMX/gzTWKejvLJBIZkaqbt2jTqHbVjQV+uoanSr8F1ImGms0nGjyfd5U30llfWOwQAjdbpyKht8REZjLbryKho9TjXrqym/oqMuwERhaqik4kbTLTqXgD8Xqd02zY1U6W7gEwLpXHkF1b5OKsgrxEhCUKg/N85AkYZHO49dS9MNKnQ1GIK5DpXHMFFfWYlT5UZqdeVUeSuV6vIr6NyUqlA4G+vQlVfi22R0lFc1Ktiyu1D+cJNstaJaH5jdmBqorLhBk8W9cHanaGD/MykkPfWpdywSyCSNEZTfOHCvoNptPYie3ZPiSZvzpY/YoGznxtpAMbXQdKMCXY0hMMzcwXHsOfzVV2HarPdhJ/auJhoqK7jRZMF34awsYzB+IeRPwR+DKZzNjVXobjThFUEVZG+8ep4rDa6OqeBjdpj8/IrsXuQzyjHi1nHX755EfNocvvSM9QpYKInm7T8uLf34Hoq5Vla2YiySKHjS9Ze7PNu7cBnEphRzPX3f2t0ffV9EFO1RwdbtYzj8xH4gqF+BzcjjKMtIkLahxFZAhXPLdo8y7+WVrFzp8v/qJgqvSw7puVRDT/HS3kSGhRGufYAnJjxGdmxLwu65lz8evSnzUbMhjzYtwgi/J5wwaRlIq47MPazn0jvDSWjZgpbqLjw2cTLD79PQMqwVqU/upcYCnksvmi+9w/CElrRoqabLYxOZPPw+NC3DaJX6JHtrLF7tLVV7eDLdWswn9xvDpCceokObMMLC05j8oU4xoFtqDzG3yz20Sh7Ly38eQPjdWDibTrA09zEWv72MIR01xESGo+4+g53l1hBrKllLQY8kNAnJpMRFou4ymc0XPKpOVyupL2Z1/n0kp2TRJS2R5H5z2HlZGsvEiaW5PLZ4LUsGpaGJbkNE6nDeOFPKtuk5JMVGER6VyYTNF23BXWr/MCOWrmXR4HQ0qijCozvzxLpSa4Eg8z2E51+fS++EaFTdnuOkCeqLV5N/XzIpWV1IS0ym35ydyOQxc3HrU/RISiKzawZJHcawQTphKmFtQQ+SNAkkp8QRqe7C5M0XlIskSxWf/8dAkiMjiYmJp/uUl3l+VG/m7ZcuoYwc/nMODyw+7liOYzr5IgN6zueA7QpLmT9XEG3bkowPj2Dp2kUMTtegigonuvMTrCu1X641cGbNBHrERxKtjqFNZDIP/X4HP8rqUZAXEUbySQX9+eBPCVPjYf6c8wCLj9svZkycfHEAPecfsOrOcp1Dy35Dh+hIYmOjUHUYzCvFBoyH/0zOA4txdjvJiwN6Mt8GnunEUnKHPM/rc3uTEK2i23MnMV/cylM9kkjK7EpGUgfGbJDuKpkoWVtAjyQNCckpxEWq6TJ5M1az9Syc6ylenc99ySlkdUkjMbkfc3Zettqg+SJbn+pBUlImXTOS6DBmg82WfGChaPcg8/3YYt5eNoSOmhgiw9V0n7ETm4v5GMxC5f5F5CZFEBkTQ0KvqczKS0Ztm3E2Fb0g36L/yljL9skdiY9qRauoeJK1fVl0VKoGBDIF7Td2v32bZUM6oomJJFzdnRk7y2m2VLF5XDrxkS1pHS35Txpj15fL8VDRzoPA1HL9EMt+04HoyFhio1R0GPwKxQZwyi+5nD9bq2T/olySIiR/TaDX1FnkJattM84iOwFL5X4W5SYRERlDTEIvps7KI1ntnHFWlFHJL3xoGouIP7E/+iucJbt7eMRS1i4aTLpGRVR4NJ2fWIc1fIhkN3HihYfI+aP1Ysi3j/kSxv2YX7sX+AwKMUKiEDTupiJeGJDDn776X6o2jyM9PpKWraPl2JA2dj3lFhEW7jLJe/VFrMzLIDGlMxnJbWmXnExK2gjW/CjlOX++p5xr/ff1yHc3BblLwc89pRHHXIHvSwMFmTvF9ii2dYR5VwoD4tyhbDN+ZBTmEk80/e8HVDj7XOMc3pNl56TM7lE4N+5hctuWhIX3Yfk5KfhbqNo6loSWLYkfvwNpTtpaOLcgLOp+lhy9SsV331NuOMvS7uG0aJXC7/ZIS0CkgLebRfkTeea59yk1exbOZs4u7U54i1ak/G4Pcg9LJbsX5TPxmed4v9TsUTibKV2RQ3hYSzTD3rIVJc2UbxlLu5ZhhHdbzBl7feCKm+U6H03LILx1Gr/bpePSqofvzsLZeJCZ2nBie81gxwU9lrqj/KFbBN2WfC0Xj6bST9l2rNxa8BjP8+pAFdkLC10lddnWc+TZbNoPW8N5qbazVMkYtMvfTrVFKli03BPbm9m7LmEwXeadEfFEqTsyZMUxbjQ3cmpxHyI7PYuc+7G2bx2RzeSNpTRamihdPYR4zQje1VlA5juCqKxJbL9swmww0qw/wrPZ7Rm25rzMr6XqI6ZltCN/ezUW0zEWZLZj3D+s6+mNlVfQSXdrTaV8uu0Y5XItauT8qwNRZS+k0JdOgaaDs0hX9WdJYS0W4xU+WZBDbEuVLREb+OTJ9min2wpEKa+73t4V8eeComNTlrE1EdmT2VjaiKWplNVD4tGMeBcJAv2RBWSrejJ/XzlGLNSeeplBCRqGrrsCSvIKeRDpz8GVc0OJhuETnmyvZbr9agH3GdOGfc/QQZPLCvkOj57LB99i6ym97HfttdMdFxl4zA5KhYI2IoqsSdu5bDJjMP4vxxZk0m7cP5C1aqzkilWplH66jWNWpWI8/yoDVdkslJXqXjjrjzxLdvthrLEaLFUfTSOjXT7bqy2Yji0gs904rCZjpPKKTl4q4QTAviXGTeY7PJZeM3ZwQW+h7ugf6BbRjSVfK1yANh1kZpqK/ksKqbUYufLJAnJiW6KyFc72gukjqYhsqGD7pPa0n7Sdq1U18h0JkUxB+43ND8NjezFjxwX0ljqO/qEbEd2WILFvbChn09g4Uqft4mrVdeql0C2wMUPAmDaw75kOaHJXWO8c6i9z8K2tnNJLrm9doiDJjx9bazo4kzRFfzUJ7KSJgzPTUPVfQmGtBeOVT1iQE0tLla1wFsioGGvs5uLyK+bPv12JlmrIdtc6guzJGylttNBUupoh8RpGvKuTLy4D8REDJgUfcxFCYVNs92LZlGKEyLYUcZfiaGpbpkgGY2ygfNNY4lKnsetqFddlgxXZgadwzVx87WHU9//Fuoyl7iCzs7VM2KaTc45/31POtf77euQ7Ue7ylR89RZHd50mUY641Byv5frC5U2yPYnsQ511rjacoh8hX/cQ3aRJG2U98AOrnUECFc6v2v+GPr7/BG2+4/P/3Nk7Ka/PcC2fzuWX0DJdmjQeycN0GNmzYwLsrx5HZugWtuy6i2OQsnMNzX+OS/Z5T/WZGRoTR4p7f8HaV660lpwTuM871bB4pLZu4h9+8XeVztti9fQ0b8qztH3vHukZKHrnhfcbGSHQH8d8VnnQtVGwfj7ZVOJkzP6Pa0sxPd3PhnJrAxN32R0CMHJ3fCU3BDrciwVSv49IP37HtyTTiJuxyguu6ZTzCvAw1eavPUlZWJv+XvD2ahLTZfGG0FiwJE3fbHjaxULFmEFHdrQlYGsZUuJCs6FFsaZT2rO3jx3+IvCsdavyAfI2Gibvk7MlMbSx571Y6dGg8Mo8MdR6rz1ppl5WV8PboBNJmf4HRXMLyPjF0mbqJczV243Fh3lSP7tIPfLftSdLiJiCR8P6TkkhnooeuR75pIjUwfM4MrX0GS1w4C/nzJma9OEiNZ/yHDgRo/CAfjWYiu/RGvpjdAdXjG5HdSe6vZ9+0JGJGbgYFeYU8CPXng0EFGuJixsjnM7Roxm6TL4ZdR5X8TjH4SRYhFc6xebxbafc3MyXL+xDTZSqbztV434bGRL3uEj98t40n0+KYICvVtXA2cmReBuq81Zy12WtZyduMTkhj9hdGzCXL6RPThambzuHLZBy8+8FN4js1YSJOFzvK/E4aCnb4NDK5YO8cPZT1TiOTMbPPOMvjtZ2CXDhiYN/TySQ/vc96cYtYJmvhHITf2PzQ6bdgPDqfTpoCrOx7L9UQ2VhTwJhKfqVh7DbbMj4H2MEUzv781T6oDzuRLgo7RzN0vfMtSIbPZ6C1zTiLZPQba+xk5aJUEE8CsSvBGmfZTuLH4wwfjXyQr0Ez0TV++5DdpnPpOQAD/nzMIYzXhtDuhbIpx4hbwt21cJau65SWaviMF55iGTn6bCbapz+z+pulgjWDYnj4dekuVQC+p5hrA+jrke8cnPnKXXLh7O7njvYuG+KY65mzPX3fNpAv+i407JtCexTag38/FskhtBm/8c3OvS8/sZ8L/Degwlm8xtm9cDadep57W7cgrE17uvTNISfH+d8v77/k2/D2pRoRo95zFlO1G8hr04IW9wwJsHCuZUNeG1q0uIchgRTOlhu889g9tAhrw4iNdU6EmnYwLjaMFuEDed26FsB5zqJjzSCpT2ui4hJJTEwkQSUtLwmjdVQcSbkrOKsw2eQc5OduNfOD9HBgv/+kzK1ObGLr6Cgy5h+xEvAIKtIV1snnuqAau10unC0V+3h+cAYJ7TvTo29fuiZFoB6/0zdz+h0UqMJJzO7rpr/7R6/irNlZsNgXGlSvH0Z0z2XINyCkwvnMYrpFj2CjnCu920u3ZeemR5L3bo2tqLTNIti40e8oQBWeSLab/dzP6FVn5dnzxpKNzMrVEqXOIm/RLi7KNzYq2Pf8YDIS2tO5R1/6dk0iQj2enT5rGj27JmhInPqxrUiRp5RdHjYSF87++PMC1Us30i2puaRH5vFuTSNbRkWROuuQy9pSM98s60lU7mvyUL7kFfIg1J8Xd4o0xIWzle/0uYdd+LaOLQp+Ugv3gtHGT2MJG2floo1Sk5W3iF1WpVKx73kGZyTQvnMP+vbtSlKEmvGyUp12Jd312lGgIjwxm74u8Sbn/tGskh20kZKNs8jVRqHOymPRrotePMtc+MHNi2/TSZ7romLsdp9Ghn7XBDSJU/nY7igeM/bu43kWzn5k8mFTQptwK6KsmJtOPkcX1Vis7HsXzuLxAsS0cQujotKZe1hyUvc/N/mFM87+/NWibCf6XUzQJDLVqQS3u0diGcGX77lLIe354S9Au/Ie13rEDSf5kJHDc9OJzHtXvqMbiI/IJujTx5SoOo970Xe1e6FsyjHilnD3sHnvwllgB05xHFt1Hz9JavIgFm/9jE/XT6dnfF+Wy/EiWN9zzbXB9pVUKMhdHjI7mPfYEMdcZ6y0hyI33xfR96Aj7XrZg7S00W6PQnvw4yd+Zs7FNuNHRoKzDR9iux267YWz5fq75EWFEaYexWbbTIvpuw94+eXVvPvZeaRVzvbCOeqJD5yzodKVSsdWtGiVxqyDtlnTpsOsGPM4BU+/xpF6z6Ua0pVdR1q1aEXarIO22c8mDq8Yw+MFT/PakXqPpRrWq53WLVqhfepj7KVz4xdz6NSqBa06zsUrtluu8c7jCcTGxjr+VRGt5cK51T3RxPV7ka/NJm7W1lBd03ALD0e56UJhx0LVuseISv+9+0MQzT/y6kNR5Pzle2s/LwdzdWbpFns66kdXWZdeYOL4gkw0SoWzYT/TU9Tkf+CcIXUy522ggRXOe51FauOHjI+LZ/Ie24yz/fabjYhh/3RS1Pn4JO9gxITu6EqGJccydF2FnAzT1Y+ySr5VD6bjC8jUKBXORg5MTyFm1BbnbKnxELNSnTPO+55Okt/YYA80UrCwz1IFxp+DUefFwV77aND44Xji4iezR29g75QE1E9sp8HRxcCB6VrUY+wPwUon3OUV8iDUn4OIjw13Ghj28XSS60WNpHutbY2ugT2T44mfsFP2adfBDPueJskxkypHWmY6ZvN9BV5nb5PuKCuHJRM7dJ20PoY56WoeXWVdsoPpOAsyNT4KZwP7p6egzv/AeSHuHNK5ZdJxdOUwkmOHss7r7pIUtUV274Nv1wLCScWxZTwwnZSYUWxxTLYaOTQr1bHG2T0BeRbOfmTy8neJfZHfePutW/LEwO5Jtrs6NgnE49ka+cV0D5Pj45mw0/p8iwMczwQstDU//iqyE+MBpqfEMMqpBIyHZpFqm3EOSEYP33OVwbrth78A7cp7XNvotiUtzvDRyIfj44ifvCdgH3FGHnDzMSWiLsfd7VQKRS4XjELZBDFCaKt24h7xyMPmDbsn2e6C2tqL7MA+pOPXRNFz3egyaj5zJozmt+PnsurQVdszLcH6nmuuDbavdRmgYu7ykNnBvseGOOaKfV9ahqhI34OOtGu3B5/2KLQHP34ihWBB7hD7qlhGcS7xIaSfQwEVzmH3xNEhM5NMj/97J232XuNsqWJ7QTv5ob52D01nxWsvMaWXipZhEeS8dE6eMbQXztGuhTNGTi3tSZuwMNpk5LFw5d9YMjZbfsgwOvdV+VVs0lWV9F5p+3ucjaeW0lN6uK9NBnkLV/K3JWPJjgwjLDqXV883exTOYP72FR6MCSOsVVvun7acv/5lBg8nSW/X0DDozfM+bhF7oudjqYY0U5LYkhb3PMIbV+y3nj37/bz95gurGBjTjmGrS2yFgYkru58mW9WX5fZpXi8Hc3VmPbsnxtF23A7rWvD6Yl4aoFaecbbcYHt+IonD3+IHe8S13OTaNeltJd4G6r9w1tJa8xAvHK3GgplL74ygbdwoNkm36r34BsuN7eQnJjL8rR8cxbbl5jWuSW9XMVzk9Nkq60N/zRdY+WA0A/72I/rdE4lrO44d8mL3eopfGoBaccbZQtXGkWgShrNOegLPUkPhS48Q38q+xlm6rdmbiK4LOX5TOn2cF3M1tLKtixTy50vVkoza1mgeeoGj1RYwX+KdEW2JG7WJSouFys2/JS5uEH8rsV4wGi+sZ1RSImPeq1SUV8iDUH8+GFTAVF4m0juCrguPcxMLNcdfJFfTyrZG14Ju/XA0iY/zzo/SQnIzlV+9zpsHauWlEb0jurLQCh7HX8xF48DWGXitSxQkfgxcPH2WKvnuTTMXVj5I9IC/SfdimRjXlnFWpVJf/BID1L5mnC3c2J5PYuJw3nIaLDelN77IJnOas9bBab6wkgejB/A3+QEgDyz84GZPGA6+XQsIj6GkXUvVRkZqEhi+7kfMEn6FL/FIvB0/Txw8C2exTEH7jQ+/9SycpYtJzej3rOvMJf4Ffmi4GCimOtYP15D4+DtYzaSSr15/kwO1HvJLy4UEtib0V5GdWKrYOFJDwvB18nMtlppCXnokPjBfVvILL137iScB2pXXsLYDkt1pW2t46IWjWMPHO4xoG8eoTZUB+4hBycckGoYzrHv2z7z3ve/bp0K7F8qmHCNEtqUU4z1t3iBdmGpG85798xEiO/AC9ya7JyWS+tgi/vvdTby3/UM+Of4DtfJd3WB9zzXXBttXUqEgd/nIj16iSNG3ZDnKMdc7Z7v6vpC+D2JCe/RjD0I/9iOH0Gb8xbegbMOH0B6HAiqcfT4c2MJewLou1bA91Hf9C5YPSSNCfudxC8JaxXLflP/he1sR5rtwlmrwMjZN60Vc6zDrR1fCWhPX62m2/NN6m8+zcJZukZVtmkavOGkWWHq/chit43rx9JZ/yrdivds3c3XfYoZ1jqWVzFsYLaM78fhfvnKudfUAyH3331M4S+uEz295mt7xEWjSunJf53bExHVn8vpvXWbsDzOvk5an99krXTNnlvQgYfxOuU39V4voq9GQ+cAAet07kGnj+5E8Za+7eC575p92MLN3PKqU++j/QA5dtW3JmncQg3RbZl4ntI61mFC7aSSafn+RH+CUhjCfe5HemjFsladQrU6r7j+SYZ3bk5aVijq6I2PWfW+9XW705FsegZ92zKR3vIqU+/rzQE5XtG2zmHfQALV7eaZjHNpu/eib2Zb4HrPZKz1hV/8Vi/pq0GQ+wIBe9zJw2nj6JU/BeVXsIpy0qT/LqiFJtFGnkt0xhS6jpzA4yT7jDM2XtzKhYwSR7TJIT+3OpBVzedAxnlmZPw8y8q4c/NT0HzmMzu3TyEpVE91xDOu+t92+Nl/k/WndUUe2pVPXTNqrEuk3bw9XpSCuJC9iHpT154NBRRrNXN46gY4RkbTLSCe1+yRWzH1QthvZygzf8vdRaURGt6dzlpZ47SBWSk99NV9m64SORES2IyM9le6TVjD3wWSm2JRhPDyPTtqncZgqtex9piNx2m7065tJ2/gezN4rPfhUz1eL+qLRZPLAgF7cO3Aa4/vZx3HaoSyR+Sd2zOxNvCqF+/o/QE5XLW2z5mE1mWfoGKelW7++ZLaNp8fsvfJDmT6QQISbF9/mMyzpkWCbAfc1mp6zq4aQ3EZNanY6yV0LWD77QZIm75EvCN3HM3JwVhppM60fR/Enk7Tcyd3fpR4im3Di5YgQZ5bQI8F+V8ZCzSfTyWijQpvZicfflNZ6Ko9XuzdwTA3f/p1RaZFEt+9MljYe7aCV1ocD3ezAj63J/pps9df0ZLoWLGf2g0lM3iNJI7ITydVXMSS5DerUbNKTu1KwfDYPJk1G7iqQUdn3fOhayB8B2ZWPUeVDcuGq7s/IYZ1pn5ZFqjqajmPWYQ0fItldda7kY9JD+G/xm4h2THM6pBsr7nYqmZm73Yt8BqUYcSu4e9i8peYTpme0QaXNpNPjb3K5WYSFm0jyEhfpxQApKf0ZO3ki48bm0T8tlqRhazkvXT8I4om377nn2uD6SuYryF0eMntK4dgXxlxXO7D2MLv6voi+g4BzQ2yPYlv3l3fFuUM5HslvwvKoS9xk9BMjnNIFtiUsnAMbooEtoyIIC4vgt++53o4zU/fTOYqOn+DclYYAZnOd1PTXvqf4+HFOlVU6C0Pnae8t/TW+Lz7O8VNlVPpebujex3IT3fenOXGyhKsNbguH3dvdZXsWfSVlp+xyBj+7ba65wOkTZ7hUF6DMliZ0pSc5Xniasmu3/q5j+4cq9E0VlBQV832lPXWLAbY06Sg9eZzC02Vca3KR11jNhTOFFH59CTdRzDVcOH2CM5fqArM3SyNXz52gqLQSg8HHBxWadHxbVEzZde/1mRLnivx5iuWYNdDTVFFCUfH3eEPQTOPVEooKT1J6zcOIleT1x0Mw+hPQaNJ9S1FxGb5hMFBVVkzhSU+ZmtB9W0Rx2XXf64k9McJI9YUzFBZ+7WGfZmounObEGQ9de/WXNUKTrpSTxws5XXYNd5O5wJnCQr4OxDaCwc0nH64HLdwsPyfr/NY+8mlRlMmViut2wHbp2knettBw+WsKi0rd7FNpPGN1EJgaqigrLuTk95WOu0he5KW33YhszXKT8nNFFH9f5WMMsZ1YbpZzToo9CkpQkhGBX3jxL+RPdtZbiqeOGV99ExUlkvyeGIpld/Lpy8cs6Db9lpS+Syn2CDvOfgFsCX1GKUYIYmiAuFsaLvN1YRGljoAaIBamE/wxux0F/7BO9kkSyi82iBrE36/Zc03wvudEKsi+weYuJyGXrWBjrkvXIOj7t0c/tu4v7yKWQ9FXXcTxvRmgbfju7Hb0ZxXOlprPWJ7/CJ2jwmjRSsuMz30XGG4UQzv/xxDwvk10VwLg8cq028qjo3AO7ILhttIODRZCIITALxoBR6FyJ8KH6QxL+/djyUn725h+0VAFzrzpDNoRlPIAACAASURBVIu7x3Dv1LfYf/IbzhZ9yptT7iXh/v+kxPeKlcDH/pW3vK32eCfz7h3Ug2LhrLQ8I3RcWhKi/H8HdfULHdrMN6sL+O0rJx0fE7krBTGX8Oa4Eaw4fgcu/szfsLrgt7wifdkl9BdCIIRACIEgEDB/s5qC374iv5EqiG4BNjXRdPP/Zlxq+mEvL896gsceGUDuoBFM/vM7nKgK8G5sgOj+GpvdVnu8k3n3DoIfKpwFRbCoQFY6dwd1FRo6hEAIgRACIQRCCIQQCCEQQuDfiIBi4fxv5ClEOoRACIEQAiEEQgiEEAghEEIghMBdh0CocL7rVBJiKIRACIEQAiEEQgiEEAghEELgbkQgVDjfjVoJ8RRCIIRACIEQAiEEQgiEEAghcNchECqc7zqVhBgKIRBCIIRACIEQAiEEQgiEELgbERAWzqaiZQzI+RNf3YEXDfwsMEynWD6wDwsO3k7GTJxaPpA+C1w+QPCzmAx1/qUi0Fx+hE0bDvFTQK8lMvPP9WNJV8WS2C6LWQdup03eRgSbyzmyaQOHvIQy88Mbg0jp96L8UYrbSFH+THjIpzwRNVG0bAA5f/rK88TP3L/745fp1HIG9lnAzwnb9pz0M8H6dXQ3FbFsQA5/uusS9K8D3qClaLpK8cfvse7va3l3+2d8XfFzXowdNPU72+GusLUgYtwd5ldYON/W9/XdTrXekXf/GflyThqacR/6/+iK6SR/zf8da78LqLK6nZL/Osa6y/Fr3PMUadrxvH/D/iJ8Aezmr1nSLZpHVv8kf2nNfLeaROMenkrTMv79G7hKZbm6kdHZj/Fm2Z14JVUQPiWA+Nd1yvle89sr192PtfHLOaRpxvHhz6gn7Dnp9mL3Cx0t9H74u0RxJn7a/Qdyk2No12MQY8ePZ8yg7rSP7cATG3+6S3j8mWzcFbYWRIy7w/wGXDibGyqpuNHk/UW2Zj3V5VfQ1fmYaTPWoiuvotGrmDBSpyunssHrhFC7JhsPFoXC2Vino7yygaBGNTVQWXGDJosvpTSjry7niq7O/etn+t1Mik9jzpc+ZDY3UlVeQXWTj/dBKuKhJLaJhsoKbrh+Ak2pqa/jxjp05ZUECTPS5yvrrl2jzlFLWdBX66hq9JapWV9N+RUdvtQvs2Sqp7KiGr1rtSbCzw/PpvpKKqr1bsWfVXQT9ZWV1Dt4dgFEZKMuzfxu+pLFsJ9nUpJ46lPvrxOYG6sor6jGlylItCRZKj0ZNtZx7Vqd853XFj3Vuiq8oVewTbsQliZuVOioMbgCbz/p/DXqzvBl8WVueqvW2siXzM7uvreEPiWZ1y3YZdC+Y2XNWKujvKox8Jjghzdj3TWuOR0Di74aXVWjd1y0ISPZgM4tbioUzgK6Qh/zh/VtjUe+1S0+6oxhvgvn4HKBr8JZhE+w+g+2vVV2C003KtDVGHzEJTE6SP5VWe/0dwU79ymjQnGgnAeN1OrKqfJOyMpMOuxLuYnojDIvol7g7TfO9qK4qqw/kZ2JzjnpKm3pi5fSJyaF4W98Tb1LuG26uJ/tX1x17ybwc7mhKN766eudT25RLl90FGzNXTj3vWBipUinOGzQV42mkE8U+BXScWdfuOe/cI4fyrN/HkyaRkVUeAzZ49fzvVwvmihZW0CPJA0JySnERarpMnkzF+Sq1czFrU/RIymJzK4ZJHUYw4bL1sxcX7ya/PuSScnqQlpiMv3m7MR2SplRSyX7F+WSFBFJTEwCvabOIi9ZzTj71EV9Mavz7yM5JYsuaYkk95vDTv+DUrl/EblJEUTGxJDQayqz8pJR22acTSVrKeiRhCYhmZS4SNRdJrP5ghlL1WbGpccT2bI10dK5tLGsL5e8pYEzaybQIz6SaHUMbSKTeej3O/jRDx5KQluqPuc/BiYTGRlDTHx3prz8PKN6z2O/VJ8ZD/PnnAdYfNxeJZo4+eIAes4/YPsUbT3Fq/O5LzmFrC5pJCb3Y87Oy4rJ3cqDiRNLc3ls8VqWDEpDE92GiNThvHGmlG3Tc0iKjSI8KpMJmy9axzGVsLagB0maBJJT4ohUd2Hy5gvWAsV0gqW5j7H47WUM6aghJjIcdfcZ7CxvFuCnzLPpxFJyH1vM28uG0FETQ2S4mu4zdlJuK/bqi1aSl5FISucMktu2Izk5hbQRa/ixWWSjSsiDqegF5xIlgSzUbmdyx3iiWrUiKj4Zbd9FHJV8o+EMayb0ID4yGnVMGyKTH+L3O350wWYIz78+l94J0ai6PcfJmza81i5hUJqG6DYRpA5/gzOl25iek0RsVDhRmRPYfNEqsJJtWiWycP3QMn7TIZrI2FiiVB0Y/EoxBlMRL7je1vXLo2/9KaMmnbEIfQqUdaw8rkIs8ecD5otsfaoHSUmZdM1IosOYDX7ijDJvdvtbu2QQaZpo2kSkMvyNM5Rum05OUixR4VFkTtiMTT1I7R8esZS1iwaTLsfNaDo/sY5S+drKs3BWpovIx/xiffviUcOe6dzb/3mOOK4NpVumD9N95sc0KisOS+V+FuUmESHFsIReTJ2VR7LaOeN8K7nArXAW4ROs/hXaGw//mZwHFuMMtSd5cUBP5h+wgmG5fohlv+lAdGQssVEqOgx+hWKDFKJF/ayxdsjzrzO3dwLRqm48d1LvO2eKZPQsDgR50HxxK0/1SCIpsysZSR0Ys+GyQHNWX676/D8YmBwp58f47lN4+flR9J63X84xYvkAAS9KhMV+4yeuKuhPoiWyM9E5JT7djluqeX9sPJrHN6BzKZrd2sg7Ij9XzpfWcfz19cgnJrHM3rzZjwjoeNqavYvHb7CxUpgr/ca4IPgV5TsPGQLZ9Vs4a1u1Ift3W/i+0ULTd6/zm3gNj//PNXn9Yumn2zhWbg0gxvOvMlCVzcJCE5iOsSCzHeP+USPzYKy8gk66Pac/wrPZ7Rm25rzsfJaqj5iW0Y787dXCK/WmgzNJU/VnSWEtFuMVPlmQQ2xLla1w1nPk2WzaD1vDeYkVSxUfTcugXf52qkWG3HSQmWkq+i8ppNZi5MonC8iJbYnKXjiXfsq2Y+XWQtR4nlcHqsheWCjPxjaUb2JsXCrTdl2l6nq9PButP7KAbFVP5u8rx4iF2lMvMyhBw9B1V5TxUNRQEwdnpaPqv4TCWgvGK5+wICeWlipb0jF8wpPttUy3BW9phth1mYn+yLNktx/GGisgVH00jYx2+WwXAiIldC33xPZm9q5LGEyXeWdEPFHqjgxZcYwbzY2cWtyHyE7PWotDUymfbjuGVf1Gzr86EFX2QiT1IzmZNpzYXjPYcUGPpe4of+gWQbclX2PGiG/8lHmWkqU2PJZeM3ZwQW+h7ugf6BbRjSVfm6H5Iq89rOb+v3wn66Hu4GyytRPYppOMwYSijSpiL7E/k9S2U/hIGkIoi4mGiu1Mat+eSduvUlUj3ZHRc2RBNqqe89lXbgRLLadeHkSCZijrrjTbxosgKmsS2y+bMBuMNMs07iG292x2XTJguvwOI+KjUHccwopjN2huPMXiPpF0evaoLKNJ0Tal5LKPZzpoyF1xijoL6C8f5K2tp9C7Bb5AeFTSnwA4Pz51S3apFEv8+IDp2AIy243DGoKMVF7RCZdgiXiT7e+eWHrP3sUlg4nL74wgPkpNxyErOHajmcZTi+kT2Yln5asmq/1oW0eQPXkjpVLcLF3NkHgNI97VyfHj4MxU2k75SAZSRBeRj/nF+vbFI0vl//C4Rsszn9k+y2w8zh+y4hi5sUoQt5s4ODNNOYbdYi6w+6YMngCfYPWv1N7wyZO0107HGWq/ZE6axpZ7Gtj3TAc0uSs4ZXU2Dr61VX5WQNzPGmsjorKYtP0yJrMB4/8q5EyBjHJsSm3LFDlQifKgiWMLMmk37h/IGdlYyRU5IYt9eVa6cn4UyyfiRZmm7GeKfiOOWUr6E9Yct2iDbhIYDzA9JZIhb9t9wcTN2hqqq6uprqmjyXb7W+jnwhwjlU3KudGanzzyyS3K5ZeOw9bcEHDbCS5WinWK3xjnBxcHv37ouEkQ2I7fwjk1fjwf3rQP1sAHT6iJm7TbfkAuTup1l/jhu208mRbHhF16MJewvE8MXaZu4lyN8x6w8cg8MtR5rD5bRlmZ9F/C26MTSJv9hftSCJfRpeLn2ILORA9dz3V7IWz4nBla24yz8QjzMtTkrT5rG7OMkrdHk5A2my98rKSwDy05Wufooax3DsrnM7SOGWdHu3odl374jm1PphE3YZf1sNdSAyNfzO6A6vGNOJfF6tk3LYmYkZsV8bDT8PqVioXO0Qxdf92RmAyfz0Brn60RFg1GjszLQJ23mrMyxmWUlbzN6IQ0ZosAwToTljBxN9b0aKFizSCiui9Bqk+lP1PhQrKiR7HFdZrJVI/u0g98t+1J0uImIKnfGtATmLjblmgxcnR+JzQFO6zFiw/8RDzLyTJhIs7hjjK/k4aCHXowHuXZTC1Pf2a9gLNUrGFQzMO87nbHwYSXjXqB7jxgT86OwjlVIIthH08nJ/P0Pit9jF8wu4OKxze6rCXW72NaUgwjN9faCudY8t6tdOjWCy9LBWsGRdFdvtCQkadwYRbRo7a4zfCZfNimUbITzVi21TvlkbdcC+dAeBTJ7DG0fVfsU7dolwqxBKEPSC63nD4xXZi66RwuIcjOqsevmDdP+5NtLKq79cJNGslUyMKsaEbZHENuL8VNh5808kG+Bs1EKX64zjiL6TqY9OFj/rC+rfGIGj4oaEvy1I9k+zMee5bMtmPZVu3g0HvDTwy7tVxgvSiRLmrd/nzgE5z+le1FWCAapTykYayXs4Gwn2wDWmLz3qXSntOU7NwuqA8Z3QpnYR40U7K8DzFdprLpXI2fO49WgmL78iOfkBe7QN6/Qr/xE7OU9C2ys//vluoRD76btjM2KtZx99uie4shUa1p1aoVrcLC6b70rOzzovzmFf/d8qWfGCEX3e75RCSzckkUAB1HIeqBgctuULHSj07FNhgEv37ouLAf8Kb/wtk+8yYPaeSruelE5m2Qb8tW7HuewRkJtO/cg759u5IUoWb8TuuTH40lG5mVqyVKnUXeol1cNIJ+RwGq8ESy++aQk2P/v5/Rq84K1iDq2TVBQ+LUj23LECQ7dLnq1++gQBVOYnZflzFzuH/0Ks7aCj5faOh3TUCTOJWPbfWO56ytpWIfzw/OIKF9Z3r07UvXpAjU43dah/Iq/BrZMiqK1FmHXC4AzHyzrCdRua/JfXzh4Ysv+Zh+FxM0iUx1Mofb+kBh0aBnR4GK8MRs+jowziHn/tGsEgHiktDtkFSvH0Z0z2WcsxfOZxbTLXoEG6WizFLBvucHk5HQns49+tK3axIR6vHI6nct0mSBTJx8rguqsdsVCmcxz7Izutqh6STPdVExdrtka3V8/GQqyYMWs/WzT1k/vSfxfZfbdG9BZKNK+LvR8yeLZ+HcuIVRUanMOuQSoszfsKxnFLmvXbJdVNhniWwceNGoZv2waHouO2fzCxNnFncjesRGrNAr22bjllFEpc/lsAt5mYorjaB59NCfAnBinxLrWGFI+bBP3xH6gNStkZKNs8jVRqHOymPRrosuvulJTcybmz1IXavXMyy6J8ucjsHibtGMkB3DWdzJF14yKSOH5bj5rkfhLKYr8jEx1rc5Hkk3Mj56kpR2E9lZZ+DI/M60n7iTOk8YXff9xLBbywVObGVSohgUlP6l0Xzbi7AAlv0onblezuansPQRa2UOfORMkQ24Fc7+8mBjCRtn5aKNUpOVt4hdUkIW/Inty498/nhRoOvlZ7j4jb+YpaA/kZ39f7dUj3gwL884R/DIG1ecEyFSE8t11g2JIvtPRdKtdnFOdo3N8vCu8TbYvrdeZwnrBi8ePXCw7XrpUBQr/ehUbINB4OKHjm9JxEcDKpz32ispbrJzQjzxk/dYi9d0NY+usi67wHScBZkaR+FsJWtCd3Qlw5JjGbquAsP+6aSo8/nAMRMjZs561siB6SnEjNoiFw3yMeMhZqXaZpwN+5meoiY/uEExHphOSswotjhm5owcmpVqm3GWlj6ko350lXX5ByaOL8hEYy+cDbuZ5DaDa2DvlATUT2ynwSGSgQPTtajHbHUckWbPXfFwOeG+KTtjDKOczGE8NItUx4zzPp5Oci2+rLf+rOuzDeyfnoI6/wO32Ul3Ar72nDNhdnWLCmepkE9XP8oqeTkImI4vIFMTYOHsAz8Rz17O6Fo4m4p4rlsXRs2fw4TRv2X83FUcumpb+y1dYPm1UW8s3Oh5BQzXoAZ4Fs6GvUxJUPPEdqclYDjAdK2aMVvrb0PhLLZNw57JxMdPYKfjLpFNPlc5gubRQ2ZvyOQjYp+6Vbu0E/PwHQl3RR+w95Fmg3UcXTmM5NihrKuwT++5nJc3xby52YPUXpQMpNLYttTHGTcb+XB8nDVuuhRN4IeuwMf8YX1b45Eks/4Qs9Pb8sTmPfy+k5apH/sJ4n5i2K3lAie2EkvCGCTrNVD92xt7tzfse5ok14t2yY/sdzsNe5gcH88EL2eTwoKgn4sN2GOtkwN3OxfK6ObTgeVBk+4oK4clEzt0nZOkjy2xffmR71Zzsshv/MUsuwwe/i6yM9E5+3B+f21rnKNzX+W860SdW+Es9nO3CyCZoGu8DbYvt1hnBU/HFzb22OeYNBDFSj86FdtgEPz6oeNLDn/H/BbO2tYaHlp6RF6CYL60nhFt4xi1qRL0u5kY15ZxO2plGvXFLzFAbZtxNlzk9Nkq62xZ8wVWPhjNgL/9iOXGdvITExn+1g+O2WPLTekpdaWEJg1toWrjSDQJw1knPWlnqaHwpUeIb2Vb42y5wfb8RBKHv8UP9ihkuSm/mUA4atVGRmoSGL5OemjLQk3hSzwS38q2xlnP7olxtB23A1m6+mJeGqB2zjhLhVCKhtHvWddwyw9Fbf4tcXGD+FuJdXmC8cJ6RiUlMua9SlDAQ1E5lio2jtSQMHyd/HChpaaQlx6Jp5V9jbN0W693BF0XHuemxPvxF8nV2Hm3cGN7PomJw3nLCQg3pbdkiADxEcxFhbN+90Ti2o7Dqv56il8agDrQGWcf+Il49nJG18L55m4mJaby2KL/5t1N77H9w084/kOt9XakyEYVwXcmZ+dSDdeLFNeg5qNwtlSy+bdxxA36G1ZTMHJh/SiSEsfwnnRf1jXZ2XnwOiaacRbbpkW3nuGaRB5/50f5SX1z5Ve8/uYBal1pBM2jh8x2vj1+LUKfukW7VPIdoQ9ILneas1XWTNZ8YSUPRg/gbz86l425sy7mzcv+RMnAVjjLcfOFo/JzFuZL7zjjpoufSXFDZPciH/OHdeXtjEcyWEYK/5hNbHpHktOms9++CssdSOeenxh2a7nA6ZsSIRE+welf2V6kJQC9I7qy8PhNOfccfzEXjSP36Fg/XEPi4+/wo3Stbq7kq9ff5ECtdemHYj8XG7CnLKUcIZLRLZYI86CBi6fPYnWHZi6sfJDoAX9z6srHlti+/Mgn5MUHMdshyc8U/cZPzFLSt8jOROck36zY95/MXbabn5TCho1v/Znl9Fep6fP7HfzTPmFh+CevDIi0zTiL/dxNj/KYrvE22L7ccp0likXePPrWY1Cx0o9OxTYYBC5+6PiWRHxUXDh/9XsyexQw67GOJHbIIlUdRfrot21v1ajnq0V90WgyeWBAL+4dOI3x/ZKZIk2z1O7lmY5xaLv1o29mW+J7zGav/MipmZ92zKR3vIqU+/rzQE5XtG2zmHfQET58c6s/y6ohybRRp5KdnkzXguXMfjCJyXus/cw/7WBm73hUKffR/4EcumrbkjXvoKM4VxiUs6uGkNxGTWp2OsldC1g++0GSJu+R+9V/tYi+Gg2ZDwyg170DmTa+H8lT9lqHstTwyfQM2qi0ZHZ6nDel9bTmi7w/rTvqyLZ06ppJe1Ui/ebt4arkdIp4+OZMOqo/u4ohSW1Qp2bTMaULo6cMJsk+40wzl7dOoGNEJO0y0kntPokVcx+U+ZMRMf/Ejpm9iVelcF//B8jpqqVt1jzEMBs5PK8T2qf3OXCr3TQSTb+/UGq7kjafe5HemjFslSZT679iUV8NmswHGNDrXgZOG0+/5CnIs2zGw8zrpHWu+8XMmSU9SBi/07pUwyd+yjwbD8+jk/Zp7MuIMZ9hSY8E690NSzlbxqaQ0n8skyeOY2xef9Jikxi29jxmBDaqDD1u9PzJYjzIrLQ0Zrp81cF88X2mdVcT2bYTXTPbo0rsx7w9V63FvNd4UqXliVctm0Zq6PeXUttSDTPnXuyNZsxW+Y6G0DYx8O3fR5EWGU37zllo47UMWik9HOhOIzgePfSniJ1e6FPcil0q+o7YB2r3PkPHOC3d+vUls208PWbvFT/1LuDNzR4k2Ws3MVLTj784HYMXe2sYIzuGrbhT92fksM60T5PiZjQdx6yzxU2nn8kwCugKfQx/WN/eeCTxav5mGb3uaUX67790xAhFU7DHsGRrDEtP7krB8tk8mDQZa9i+tVxg14VMVxCDgtW/Yvvmy2yd0JGIyHZkpKfSfdIK5j5oy3PSdfO3f2dUWiTR7TuTpY1HO2il9UNCwn5OG3BkPiU7F8joGTeU82Ate5/pSJy2G/36ZtI2vgez90oPqor+rPaVJOfHjqR0Gc2UwUnOZ4CE8oEyL8o05aJL0W+kFKscVxX1h8jOROdMFC/ujirrD9aH4ZXZtk7uHV5JQY942qiSybo3mw6aCKJTB7Dw40prT5Gfe8RmPPNlUH0lciK5BIIETcd7LLt/OnK1n1gp0qm0xEVUownziQemYjrecvg7IiycnZ1vUn6uiJOl1zyeTDdTc+E0J85cos7zqsxYzYUzhRR+7X3O0qSj9ORxCk+XcS3QdxRbrDwUf1/lO2hbmtCVnuR44WnKrjW5rzdyCuKxZeFm+TmKir+nyhHBnE3MNRc4feIMl7yEk3ylgctfF1JUWunCTzONV0soKjxJ6TXrWm/HaAI8HG08NiyNVzl3oojSSgMGHx8PaNJ9S1FxGdd9Llez0KQr5eTxQk6XXSNQmD1YEO+aa7hw+gRnLtUF9MCJ22A+8QueZ9OJP5LdroB/WG98yEHjnLS2fNDfuSbPsAts1I2h27zT3MjVkiIKT5biaQq3g5LQNqWEXlVGceFJvq/0Ydh2Bu4Ij2KfkmZygrZLge+IfMBYfYEzhYV8HbB93gJvdixdfh2zLvomKkqKKP7eNUa4NHRsCugKfcwf1rc5HlWsY6g6k2eP+Qw4DmlcNyw3yzlXVMz3vgKsFEZvJRe4EhDgE6z+lds3ofu2iOKy677XyRuqKCsu5KSXnv30c5VD2layc4GMnkOgmAeNVF84Q2Hh177zmddA0gELjVfPcaKolEqDwe3NTdbmfuRT5MUnMccSp49EfiOIWcr6E9vZz7ZBhzgmai59Q9HxQs6cr/SRcwV+7hhDaSP4vrcmV/B0lDgO+LhAp5INimq0oPKJkE7A3MoNAyycgxs01Pr2I+D2cODtH/4XO6LpzGK6x9zL1Lf2c/KbsxR9+iZT7k3g/v8sETxw+osVN8T4LwABR+EsuGb5BYjhwWIzP74+kJgs2ysnPc6Gdn/tCLi/8vROSPvr9Js7gVRozH83AqHC+d+tgQDpm0veZNyIFRwPfLInwJF/6c2a+GHvy8x64jEeGZDLoBGT+fM7J6jyvAPySxczxP8vBgHzN6sp+O0rnLQ9o/qLYVzIaB0f/3EI49eELkiFMP1qT5opeXMcI1Yc9z3rfhvk/nX6zW0AJjTEXYdAqHC+61QSYiiEQAiBEAIhBEIIhBAIIRBC4G5EIFQ4341aCfEUQiCEQAiBEAIhBEIIhBAIIXDXIRAqnO86lYQYCiEQQiCEQAiBEAIhBEIIhBC4GxEIFc53o1ZCPIUQCCEQQiCEQAiBEAIhBEII3HUIhArnu04lIYZ+qQiYy7ax9C8fIb3WO/QXQiA4BIzUVtV4vO4zuBFCrUMI3E4EDLVV1P6q3gxzO9EJjfV/GYFQ4exT+yaKlg0g509f+Twb3MFmyo9sYsOhn+TXo5mKljEg50+2IdzPBTfurbQ2cWr5QPosOHh7n4w2FbFsQA5/+upf/cqPIOT5OTw2XuXb06c5deqU7f805y7Xe7wr3MBXv88gafJu66fh7X1On+bMufNUNPyyq2nTqeUM7LMA+TsvzeUc2bSBQz+5fmPWaY9ubZ2Hf/1bplMsH9iHBS4fwwlM6GZ+fGso2j6LKfL3Rb7ABrzlVndOd+4x1T0OBsNuED4fzLD/prbN5UfYtOEQCq50h7lSzj/mH95gUEo/Xjzl8T2CO8xRaPgQAr8EBH49hbPpJH/N/x1rv/OdzINThpGDM1NpO+Wj4LoBppN/Jf93a3Gy0ciep9LQjn9f/my5/V2V1oHdzwVNLOgOd+hdnK6fcw6ap5/TIQh5bpnHZn5alcs9EQmkZWaSKf9n0Wv+Zy4fvgFufsYzqdLXEqVvrrr36ZikIjw6g5GvnaLx54gr6ntb7d+bkNt7xBv38FSalvHv3/C4eLD2c2vrPdSv94jxS+akaRj3YXDFhuXadsZ3HcRr30kXniZO/jWf36397t/yHvJgdOcd60SqdY+p7nFQ1M/zXBA+79n1373vw0cb9zxFmnY879+Qv9b0L+ZQIf9YrrJxdDaPvVnGr+qNiv9idEPkfr0IBFQ4W5puUKGrweDp2+ZGqsorqG5Snk0z1VdSUa33kWAtNN2oQFdj8D5nrENXXkmDUg0s0dXdwI2sfjeT4tOY82WQs57NeqrLr6Crc+3nHuSDUb9+9yTi0+agxMYtJwyffLpyZqK+soJqvaeSpFzcQGXFDZosCkknAD06KPnSTYBFqbHuGtfqnKHYoq9GV9Xo86uD5sYqyiuq3XVsZ8KfPEHwKKQj02vmx1cfIqrvSy4XQ3ZGnL8Ne6aQ3HE2h+SaybNPE9+/OZT494hNpAAAIABJREFUqP/HGz8p+4pzNOkrYn58wK2x9H1jZfs31ukor2xQLMSUfdREQ2UFN5os+C+o/LU101hVTkV1k099e4ojfTa2sUrHDTcnt7Zq1ldTfkWHm8u6DCDJU1nvtDP8+o69s1JMakZfXc4VXZ3POzWmhkoqbjRh8VU4B0K78SrnrzTY4qCe3ZPiSZvzpQ9aRup05VQqBkYjddeu4XQxC/pqHVWN/mzOn+5801WMdT5ldo+pvuKgUK/+fD7gGCbWpd0S5F9LEzcqdNR4Jz7/tmyqp7KiGrdwLPBRN7pSyFbMm54t3feFGEpf7VTKua7DGHWc+bKYyzeV7eZW+XMlE9oOIfBLRUBcOFuuc2jZb+gQHUlsbBSqDoN5pVha9NTAmTUT6BEfSbQ6hjaRyTz0+x38aCt0TSeWkvvYYt5eNoSOmhgiw9V0n7GTcpsfWq4fYtlvOhAdGUtslIoOg19BHpZ6ilfnc19yClld0khM7secnZetidZ0gqUPj2Dp2kUMTtegigonuvMTrCs1YKnazLj0eCJbtiY6IZmUtLGsL7dgPPxnch5YzHF7DjWd5MUBPZl/QJLBRMnaAnokaUhITiEuUk2XyZu5IMvgHuRdlas8pp6qzeNIj4+kZetoecy0sespt5goesG67EMqzd0Thss5UyGL+2lJTk62/qd05pnd0uyliE8TJ5bm8tjit1k2pCOamEjC1d2ZsbPcVpxYqNy/iNykCCJjYkjoNZVZecmox31oW0sp1qOr3Ih0Iyic7bawdskg0jTRtIlIZfgbZyjdNp2cpFiiwqPInLCZi/YY3XCGNRN6EB8ZjTqmDZHJD/H7HT/aij5/8gjsx5NHIR1XyT2LYNdz9u0aPihIJGuB/eMA3n2ay/6TfhFdWVRsN0Z7X89fJRmaubRuDF0eWsRXDVIfMz+8PZbuI96gTOfb/qkvZnX+fSSnZNElLZHkfnPYaVuAbdeLoo9W7mdRbhIRkTHEJPRi6qw8ktXjkCdTTUW84LI0xyJqK0WLM2uY0COeyGg1MW0iSX7o9+ywBws38SV7fpgRS9eyaHA6GlUU4dGdeWJdqXV231TC2oIeJGkSSE6JI1LdhcmbL1htQ4oPuUN4/vW59E6IRtXtOU6aRL7jRhilmGQqWUtBjyQ0UlyJi0TdZTKbrUECLJXsX5RLUkQkMTEJ9Jo6i7xktW3GOXDaphMv8FDOH/nyf6vYPC6d+MiWtI6WZExj7PpyuaCuL15N/n3JpGR1IS0xmX5zdtrW0ttjwFqWDEpDE92GiNThvHGmlG3Tc0iKjSI8KpMJmy/6vGDxpzvfdC2KsS7QmOoWB0V6xZ/PBx7DhLp0MwcL1w8t4zcdoomMjSVK1YHBrxTLNii0ZdkGH2Px28sY0lFDTGQ46u4z2FnerJijTEUvyEv3pFVuYp80cvjPOTyw+LhjFth08kUG9JyPNZ0JfEP6eLbPnOuSf2T5xViK+QPjscXc3/UJ1l+yB3M3UEM7IQR+NQgIC+eGfc/QQZPLilN1WNBz+eBbbD2lR39kAdmqnszfV44RC7WnXmZQgoah667IwEhBURseS68ZO7igt1B39A90i+jGkq+lqrSBfc90QJO7glN1FtBf5uBbW5GWUumPPEt2+2GsOS8VthaqPppGRrt8tldbpIqTmdrWRGRPZmNpI5amUlYPiUcz4l10FiMN5ZsYG5fKtF1XqbpeL8/WGD55kvba6dbAInHmNiNkovTTbRwrtz79YDz/KgNV2SwslAob5cJZOKaxgfJNY4lLncauq1Vcr5dLZceyD4mSW8JwoWPARM3l85SVlfHN9qfJ1DzEylIJL398agmP7cWMHRfQW+o4+oduRHRbggx100Fmpqnov6SQWouRK58sICe2JSpb4exPj65W7lc3qW2Z8pEVS9d+si3cE0vv2bu4ZDBx+Z0RxEep6ThkBcduNNN4ajF9Ijvx7FEJKz1HFmSj6jmffeVGsNRy6uVBJGiGsu5KM/iVx4/9OHj0Q8dVAKxFcESHx1m8+g3eeOMN3lzzIWfrnY0s1zfz2/j7eP6UvSi2Fc69FnOiqpqqS0VsmNqF2Hv/yFE/a1iFODd8ybzsGHr+x0kaL7/L4+2zmPV5nWyv3vav58iz2bQftgarO1Xx0bQM2uVvx+pOIh9t4uDMNFT9l1BYa8F45RMW5MTSUmUrnN0uQvy01R9hQbaKnvP3YVXpKV4elIBm6Doklbr/SX6npXVENpM3ltJoaaJ09RDiNSN4V2cBUymfbjuG1WWNnH91IKps2yeg5fgQQVTWJLZfNmE2GGkW+o4rZeWYZCr9lG3Hyq2Fu/E8rw5Ukb2wUO7cdHAmaar+LCmsxWK8wicLcohtqXIUzsrxxZW2MyZI7mNsKGfT2DhSp+3iatV15BCiP8Kz2e0Ztua8zIel6iOmZbQjf3s1FjmGaLkntjezd13CYLrMOyPiiVJ3ZMiKY9xobuTU4j5EdnoW2cXcSPvXnSJdn7HOX6xyLn9zi4Mivfr1eXEuchVXpEvXdjTs45kOGnJXnMKaog7y1tZT6P3ZsmyD4cT2msGOC3osdUf5Q7cIui35GjO+c5QdB1n3wrxp4JMn26OdfsBqi3I6m0Oaxn4xK/ANxZzrzHNS5PaXD+RYrpjXwVzyd343+jn2Vvq46+kGcGgnhMAvGwFB4Wzk8xlaNGO3WR92cshp5IvZHVA9vlFes2s9rGfftCRiRm6Wd+VgkDCR3fYiwXiU+Z00FOzQg/FzZmg1jN3mUnlYe3FkXgbqvNWcLSuTC8iykrcZnZDG7C+M1sI5NZ7xHzpXiTZ+kI9GM5Fd0u1xH7fBhEWuQx4T9bpL/PDdNp5Mi2OCPJgzoDia2Tb8jel9+9I5lrhwthEwfsNf7k8gZ9lpR4C0nlHmM2HibpxQz6eTpgAJatOxBXSOHsr66/ZAZpB1ap1x9q9Hp+zGAHSjXDinutiCpWINg6K62y6ipOuCQhZmRTNqSyMYv2B2BxWPb3RZO6vfx7SkGEZurvUrj3/7sfHoh45TbmnLWgS3ie9BXn4BBQUFjJu4mD0Vdkwt6NYNRdP7RUpsd1zsfcLDWtKqZRhhLcKI6j6bj67aC2t3Cs49PzhjoWbfdDJiezE4N4WOT33k9EFP+zceYV6GmrzVZ62+VFZGydujSUibjdWdZuKqF1x91HSMBZ2jGbr+umMZleHzGWjtM86uhbOftsYvZtNB9TgbXdZw6vdNIylmJJtrnZJbt6y+Ej/+Q+da8MYPyNdomCj7pa29qR7dpR/4btuTpMVNsPq/XLTEkvdupYNn5+i+fMd5VjkmOduY6nVc+uE7tj2ZRtyEXfIF7bEFnYkeuh6ne0mxzT7jbO/rh7bLxbT1utN7qYbxyDwy1HmsPmuLi2UlvD06gbTZX2C0XXw7Y4CFijWDiOpuu3iWXWwhWdGjkFzM7c+f7oR0pZCrtCzNl8zOOCjxYC8Y3fnx1uvti2FOSt66dJ6TeZNsXTMWzxTl15Zlv0hgojPxcXR+JzQFO6x3+Dx91AUHe+Gs6JP4KZztIvj0DeWca3+Wx4D/fCDM63b6od8QAv8HEBAUzo1sGRVF+tzDHmvtrMdTZx1yOW7mm2U9icp9TYbMHhStiUCK3Cd5rouKsdv10LiFUVHpzD3suqZY6qZnR4GK8MRs+ubkkGP/v380q86abYWze3FmPDyX9Mg83q25lcLZQsW+5xmckUD7zj3o27crSRFqxu+UqnD3IO9qB3e2cDbx3cpcEnosotBeCRMYn/a5XtPJ5+iiGosEtX7XBDSJU/nYfhLXNc7+9eiUO3jd2Pt62UL1eoZF92TZOVuVaTrD4m7RjNhYb7ONVGYdcrEN8zcs6xlF7muX/MgTBI+yDSrTsfNu/fVeduF2vvkybw7ScP9/lbncCnftY0R3ZDmPxCcycoNt2ZHbAK47fmSQmjaf5+X+4YSF92Cp5Bf2P8+krN9BgSqcxOy+Tl/KyeH+0auwutNMUttOwaeP6ncxQZPIVKfhuK9xdi2c/bRt3DKKqNRZuKt0GT2jcnnN65au0++cJnuYuemR5ElObqlg3/ODyUhoT+cefenbNYkI9XisLnuQmY47CnZQRL5jb4MgJkkk9/H84AwS2nemR9++dE2KQD1+pxyvdk3QkDj1Y+cFrtsdrQBpexRPUhz0XOOs31GAKjyR7L4ucTHnfkavOivPZDqLH6tM1euHEd1zGU4XW0y36BFILub250d3Yrq+CmeRzE7dSjzY44LMj0Cvty+GiXTphgqyzabPxTNF+bVlV7+QhzRx8rkuqMZuD7xwVvJJf4WzAEPlnOvUiQH/+cCuM58xwx3C0F4IgV81AoLC2cCeyfHET9iJtNLW+Wdg75QE1E9sR15qKZ8wcGC6FvWYrfKe0MEMe5gcH8+Ene6jgoH901NQ53/gnG1yEnUWznsdKZXGD8cTFz+ZPVKta9jNJPvstK2fYd/TJLkGInlWyjYjJCW5dDWPrrLe/sR0nAWZGv+Fs2hMmY1Jjlk9KxuuwckjYbgU6JJU5vOv82hCVxYcdiIrLy8JgE87Kq6Fs/HAdFJiRrHFkTCNHJqValvj7F+PTvgD1I0jojp7etmCqHA27GVKgpontrvIbzjAdK2aMVvr8SdPQPYj8eiHjpN7acu1CHY/I5+98CoD1ANZ9aPrugPPPibOvtCTiC5/osjlmsB7ND84Y6H6k6fJSBnM2IcTSM7fhrSCQf7ztH/DfqanqMn/wHOa0drcSy+uF7fGA0xPiWGU03AwHppFqq8ZZz9tDXunkKB+AneVTkerHsNWh13aZHD4w15nMdr4IePj4pm8Ry8X7+nqR1klrz0B0/EFZGoEhbPQx+00JadViknShWY66kdX/f/svQt0FFW28H9HRfLuzos8OiQEkhDlKQFRMvgNirwRkJfAoChPeemM4gACOvc6Xh1EL6MiegFFmEFeDnJlYCnyiEkgMItowBEWGEhWSCBfXl9If939dWr9/v+qfr+qOgEE5LBW6KrqOufs/dv77LPr1Klq23IXLBxemIFeSZzN7JmeTMTIj1135Mz7mJUSTHxxa9stibR1HxPbJzlmk23nmb6cTrJuLP5N6Rlf5BJBJ85atlNtVw65XrFOlbdLTllGh/8p21/PIZBdtfq81lhkI6i0omJL11nylmnHZGJiJuI9RGn6slbi7N1H3TjItncwcYZR9z6Jid1PJypvenLEevl8x10g+eHdQAzV/Nt10aU9HqjL58lQ7AkCv2QCKomzRMXaoejjh/PBWfkWs5XK/W/xzp7/TeWGx4iOHsCbxbZpUfPptYxMjGf0J5UKK9UOJlWwdqie+OEfYKu2kv1vvcOeWonLm8cSHz+U9350hAaJK/JT4nJyoCS9d6F/8GUOyos0ref4YFgc0SPXoyypkhOsZD2jPpGnn23/rMUr6BmSzfOHr4BUw+HluejvtK9BNG7nieg4xm+x3S+uL3yFfjrtGWfVOuWgKyer+lG4xHANGLJWDjY2Cd2+az7Lu4/G0fGZz7nY1EST0YhZzsWClNNBzD1xlqrWMUIfy9A18sN1EjV5r/BQzJ32Nc6Sph0dHOX15pq28Znts2u412tmUy1xlirZ8Fg00QPexOZaZk6vHUli/Gg+qZTQ0idoGTXacektb9mT4J7LONbQRJNsmyYjJovslFZKXs1B9/BfuOBIYJXC3okzNP/0Dr+JSGLKDnlNcqB/Gpxr9zArI57B75/DdPINcnXt+e0O+3IKb/+XLrN5bDzxQ9/D1Z2ucPGi/LyCyw/9DtJSFetG6IkdukZ54FeqyeOVh2K4098aZ41zpcoNPBYdzYA3i23LicynWTsykfjRn9j6rQcKuT8YuEv/IC8flNfvWjn3wTDiokeyvlLCuP0JouPGY+uy9RS+0g+d2oyzat9xazhgTDKy/Ylo4sZvQYkS9YW80k9nn3GWqFo3An3sUNbIDzpKNeS98hAxQcUXt7Z9bCFPQiSjH/UJjkgmXd7M2Ph4hr73o/OCQroiv6FGsaTHMxRyzUEnzlq2U23XT6xT5e2KdbKM7nFQza5afV5rLHKRVrOl6yx5S6pYy1B9PMM/OKs8iGet3M9b7+zhf2v5smbi7DtGOThoJ85Wilf0JCT7eWzD2WGW5+qdfVKNIQH922UT+d1WWizdZVWIeST20Hz6byyet5JvajyCoSdcsScI/AIIqCTOchb4HX8ZmUpoeAKdMg3EGAbwuvwUn/UMn07rii40jo7ZGSRExtN73g4u2CfdzN/Mo6PhaXY7sjlrEUu6xdpnc+Vq/8LI1FDCEzqRaYjBMOB15eFArD+xZWZPYiKTubdPX3KyDcRlzmOvLeNkZoqOPiMG0ykhlcwUHeEdRrPmpH0KT6ph1/R02kYayOg4nHfktwc0l7JxYgdCQtuRnpZC10mvMveBJKYos9b17F/UC70+g779enBP/2lM6O34zsw38zpieHq3r4lV65THz11MT29LpCGDjsPfobTZVZeihp2NrWK37xo3MybiV/zbv/2b/e8u7nnpKPLbLIKR04V6Cd1i7bNwGDm+ciBJbXWkZKWRlD2OFbMfIHHyDtsArGFHD+VVbfMN8zrK7zB2SOEq6eMLtesZoe/NH5UHH+Xc8wTLe+oZvdE2y2w98ynTuuoIjetIdkYCkfG9mbfjgn0ZhJY+av7jKaN6Oy755YuG8vcfJfxXDrvIn78idOhHVFuPs7SbnqEfXvRaV9tM6dv/i6j7X+MHx0S0dJm/jk8gZswmWxLm3oT7dkDOFgpf6krsr9+gRFkqbeLIsl5EZT3PYbkL+PF/609bmNkzhsjke+nTN4dsQxyZ8/Yqtvexi1cfNR5fycCktuhSskhLymbcitk8kDiZHTYn9rC36rlYOfPpNLrqQonrmE1GQiTxveexwxEs3HW3zzjr+oxgcKcEUjNT0IV3YPSak7ZlYfX7WdRLjz6jL/163EP/aRPonTQFpTubPe1rq1at73g0HDAm1e9fRC+9noy+/ehxT3+mTehN0pSdtsLG46wcmERbXQpZaUlkj1vB7AcSmaxACr5tT1tI1OyaTnrbSAwZHRn+jry8x8pPW2bSMyaS5Hv70DcnG0NcJvNsgdEZqxy9r3b9CPS9/4iriy2np3409i7mobiW7QK36y/WqensinWyAA6dFWHU7HoNY5iqLT2omPjuLyNJDQ0noVMmhhgDA14/glHLl3180ErRkm7ETthqW6rhp486OMih031bEcerTzaXbmRihxBC26WTltKVSa/O5QGH/6syDDTmumyi+I7GeKAln1leGx75a978lyPoeUAVO4LAL4aAeuKsqGmi6lQheQUnqXREZuV4M40XisnPK6DkovLy2pZBMVVxqjCPgpOVzlkUWwUSTRUlFBzO4+ipizQ5Ll6dV/NGmsqLyS/0lkdOHhooPZZHfol7nU1UfJdP4alLbmuyHaJaqTl9lG+LzlHXor6uVqcsRinH8vIp8QTmaLQVn62VU25K4krZCYVXlYf9HGK0xI4BbOOo6lp9NjdyoTifvIISfF1LS58WyKjajrYylvzf0zl2NJ+4PfimXSqYM1qgg3t1/vxfaqKipIDDeUc5dbHJK8F3L+y7LV0p40R+ISf9O45HAa1zmxsvUJyfR0HJRfurED2K23dcM2DGpnKK5ba9+5C1htNHv6XoXJ3bmnJ/dTmOtaDvBIhJ1prTHP22iHP+goR0hbIT+RSerPKKY3L7LWjbIa7yKdFQeoy8/BKPmCs1VVBScJi8o6e46AyMHgVbtaNlO7V2fWNdK3VWtatWnw8+hqna0oueqeoUhXkFPj4YnC97VebY9ddHHd8F89lUwXf5hZy65GfNlypDeSIs0Jjr3nDwLN1LiW1B4HYiEETifJPgcCbOfrO/m0RIIcbtQ8BC3nNZJD6xFbXFF7cPj2uhqStxFr38WvAUdQgCgoAgIAhcawK3TuJs/Serxj3Gnwq0Xul1rRGJ+gQB/wQk8xWahDv6h9Oqo1b+uWocj/2pwPkjD62qRhQSBAQBQUAQEASuE4FbJ3G+TgBEtYKAICAICAKCgCAgCAgCgkAwBETiHAwlcY4gIAgIAoKAICAICAKCwG1PQCTOt70LCACCgCAgCAgCgoAgIAgIAsEQEIlzMJTEOYKAICAICAKCgCAgCAgCtz0BkTjf9i4gAAgCgoAgIAgIAoKAICAIBENAJM7BUBLnCAKCgCAgCAgCgoAgIAjc9gRE4nzbu4AAIAgIAoKAICAICAKCgCAQDAGROAdDSZwjCAgCgoAgIAgIAoKAIHDbExCJ823vAgKAICAICAKCgCAgCAgCgkAwBETiHAwlcY4gIAgIAoKAICAICAKCwG1PQCTOt70LCACCgCAgCAgCgoAgIAgIAsEQEIlzMJTEOYKAICAICAKCgCAgCAgCtz0BkTjf9i4gAAgCgoAgIAgIAoKAICAIBENAJM7BUBLnCAKCgCAgCAgCgoAgIAjc9gRE4nzbu4AAIAgIAoKAICAICAKCgCAQDAGROAdDSZwjCAgCv1wCplqqas2/XP1ukGam2ipqTTeocdGsICAICALXiUCQibOZSz+e4LvzDUitFqSRC98d5eiRIxyx/x09UUp96ytstSQ3a0FL/jL65fz+ZhXvZ5DLQv6yfuT8fv/P0Nat3EQzZQfW89G+n7DeTGo0l3Fg/Ufs++mmkkqdkPUUK/9XMn3/eIxbMsezHGFF//tYuFdO/H9+v2guO8D6j/bhbXLrj28zILk3y48Y1flfp28DyRVUcx5MgyrhPMlyZAX971uIYg7nUf8bLTnXfw0qR69CB5Var/orxxi33+916vX338YL33H06BGOHi3in6dKuZrrZYcuVw3lZ6/geo2zFo6s6M99C/fi17zXXM+WtHdtfSuoxFk6v5oBYb/izpQZ/KOpddo3/7SS3LtDiE3NICPD9pfZYz7/cyuMVpYC/nPsb3n3++ubEJj3ziQlbkrrAP8iSpnZOzOFuCmf/yK0uX5KNLLjqVQMEz7lsnzh+TP5p6Y+jTt4KtXAhE8vq1xgWyj4z7H89t3vb4Kkv5nStcPJGvIu/7q+XVsTXatPMH/NnFQ94z+TE1Qvv2h1pcEXbNzxFKmGCXyqOKK9nHSBdaOyePSdU1iCr+qanulXrmBb8GAabCHbeeav55CqH49iDo2iLTlXoyrfr69CB9/Krt0Rxxj3ud9x/zr7b/NPrMy9m5DYVDIyOtI+Ppy7ozJ49Hd/41+tuL5z6HLt6PxcNV2vcdbM13NS0Y//jFbgbIXyLWnv2vpWEIlzM6ffyCVh0GRGJCQz9fOGVigIzWff4MGwXryilXxa6qksr8aoNRMtNXG5vIIak9aJnuI2G6spO19BXaBLIn/tG7czKSaVOV/7FrI2VlFWXk1Ts2c7vnvNGKvLOF9RF/BqzF9HVJXXXEtFWRWNKoO+ubaCsqrGFicpUtNlyitqaCFekPlV1rsNmGZqK8qo8hay2Uh12XkqPAwRoEOb66goq6TBj54t1y+APIC5roKyyobgWPnzE4fRVeQloN+aqasoo9K/kup2Duif2j7nEBks1FdWUu+e6ajp4WNnV00eWz4+amT7pBhS53zttx9Y6iupdBNC1f/lawav8z3aVnZkvcqp9htQJOrP/8CFRt9SjiPmuotcrHNBkYzVVFQ14re7q/HyK6uVxqoyyqub/NfnEMLPp6WhkvLLTUhBJkg+nNRkDeijEk2Xy6moMalcGMkdqYKirwspveKXkqKNLE95tVG9Hj96+z8UpFz+CzuPqjL1G68cRS00VJZzuUlCOxnWOjcIn1CJPao6BB3jrlGMdOBx+3SMcXLibLX7cGAvsRUMNBZpxQa3Zm2bzWd548Ewer3iuGg3ceGr/2CIoS0dnv67bRLCWUglHtvPcejiLKJsqNkvMFePOtT6pnyiuY6LF+tcY6xkpLqiisYAIOUcpeKye4xp+TirytrSQGX5ZZqkAImstZGqsnKq/SVJPuODBwn/O1rt2WPttYsvvmJoJ87W73klJ4kJW8r54mkD8eP/Rq1vPZpHVBNny7cszX2Uxe8vY2AHPRGhbdB1ncHWMn+eIHFp3zIeaR9OaFQUYZHtefhPhZgw880LOfRdfNjpUJaC5fTrPp898tWtpZh3x3UjUR9LUnI0obrOTN5w2pYkqbQvVW1gfFoMoXfcRXhsEsmpY1hbJkFDEasndiMmNBxdRFtCkx7k2S1n/SZdluJ3GdctEb1cPjoUXefJbDjtmwV6dEQ1ebFyZuNTdEtMJCM7ncT2o/mo1IuV9Qwbn+pGYmIG2emJtB/9Ecop5m94Iacviw87kgELBcv70X3+HtutaukS+5Y9QvvwUKKiwohs/zB/KjRh/uYFcvouxlWsgOX9ujPfBpdvl+Yy8KW3mNszlvDILrxYYMF6ZiNPdUskMSOb9MT2jP6oVDYExe+Oo1uintikZKJDdXSevAEbDu8OXU/hqrHcm5RMZudU4pN6M2drqS3JCKSfiif6lweoL2TV2HtJSs6kc2o8Sb3nsNWbp1yvip/YmlWRl0B+Kze/irH3JpGc2ZnU+CR6z9lqs1VAO1vIf9m2pOX/BvDPYH3O8u1Scge+xFtzexIbHkmXFwtkIIG5U0/+60NIj0+mU3oSce2SSEpOZdjqszRb8nm5Xw6/V+7D+vHRcxVsGJ9GTOgd3BUu98NUxqwtQ1K4DuSlt+bSMzacyC4vUnBFq796ne9wZ8UQFsUfH138PssGdkAfEUobXVdmbC2z+Y5GH1CYPLqYd5cMIFUfTtuQFIa+XUTJpunkJEYR1iaMjIkbOOPsciq8/OlmkcPHaiZ2iyE0XEdE21CSHnyWLWd9Y4KPO0uVfLkol8SQUCIiYukxdRZDknT2GWeXXyiX+H7bVpFVxUelS/tY9kh7wkOjiAqLpP3Df6LQBJb8l5XlZbZb7w0UrZ5It5hQwnVxOKqFAAAgAElEQVQRtA1N4sFnt+BQy8H1/WUD6aCPILSNjq4ztuId5ht2TOeePi9xwDkrKd+S/TVdZ/4d72ucoOTSsDcaTAPHK5Aqv2RRbiIhoRFExPZg6qwhJOn8zzhrnavqE1qxR1WH4GPcVcdIDdbKGBcziAUvPEyqPpKwNhFkTVjLSZvDOuOashtgLFIdy306jNsBn8RZ/k6i+rOJJIT9mpVnbR06cDx2q0vOX73uEKvZLyBXjypV+qbD/u8uYUCqnvC2IaQMfZuikk1Mz0kkKqwNYRkT2WAPSnJf+/Wwpby76GHSFM7hdHp8DSVKn2rBOKuah0hUfrmI3MQQQiMiiO0xlVlDktA5Z5zV4oGf8cHfmOvBR7099fjiFRs96m35jmbibCn6A12Tp7CjAYz7ZpEW/RgbLrVsllcWS0mcQ9ozfPEq3n77bd5+ZzWfHa+3SWzey0xDG6J6zGDLaSNS3UGe6xJClyXHfBPRht08015P7qtHqJPAWLqX9zYewYiJXU8mYJhuTwBlx3a/bWYp4YtNhyizO84Pb/QnMut58uQBV7V9Mw1l6xkTncK0bReoulSPGSMHFmYR2X0+u8vMINVy5LUBxOoHsea8czR1WsNS8gWbDpXZElPzD7zRP5Ks5/Oc3zs2PDqimryWQyzMaMf4v9UoRc2V56nwujdiObSQjHbjsZ1ipvJ8he32iWkXTyYYmK4kvHJxz6vEht3P0F6fy6tH6pAwUrr3PTYeMWLa9SQJhum2ixClmPstYrkjGggJy2TS5lIsVhPmZguHFmbQbvzfUKQ0V3JeEdJCyRebOGQzBOYf3qB/ZBbP2wzhsVTDeGABWQmDWf2DbDSJqs+nkd5uLJurJQLq54Dp8xlIHiMHFmSRMHg1tmaq+HxaOu3Gbqba281V/QTU5CWQ3xoPsCArgcGrf1D8Q6r6nGnp7Ri7uRopoJ1dgU++YPT1T2iJzxlCwsictJlSixWTuVlVj+Yzf+bXuvv54/fy0FbH3tlZGCZuokI2kcwnJY4p8nRSANnNDWWsHxNNyrRtXKi6RL1cjcI1hLDMSWwutWA1mWlW839/53vY2+aPbaJ6MGPLaYxSHQef60JIlyUck3NTjT4g90PD3VH0nL2NcyYLpR8MIyZMR4eBr3LocjONRxZzX2hHFhxUhndVXn51Mx5gYVYk3efvxhY+jvDagFj0g9bgJ3x4aNa0dyapkX1YkleLZD7ProU5RN0RaU+c3f3CP9dGlT4V0EdpYPcz7dHnvsoRW9Bl73sbkZcvO2KWbHLjgYVkRXZn/u4yzEjUHnmNAbF6Bq05r+igcG0TRY8ZWzhtlKg7+BxdQrqwRDGKS02p8r8ZrjfwzP/Y1wWaD/NcZjQj1lV5zVAHJ5eWvdWZqsWrJvbOTCWyzxLyaiXM53exMCeKOyL9Jc4a52r5hEbsUdch2Bh3DWJkMH3rzrZk/fZjTjZKNH3/Fo/E6Bn+3xeVscixVE8OJ4HGItRig8uNfLf8Js7yRcUnjIqIYtwWo+zEgeOxV40O31cOq9ovEFfPClXHD8X+dxPVczbbzpmwlH7AsJgwdB0G8uqhyzQ3HmHxfaF0XHBQuZOn9LW7QsiavI4SmXPJKgbG6Bn2YYUHZ1kC1XbVWDftZWZqJH2W5FErmTm/ayE5UXcQaU+cVeNBgPHBk4jXnkZ76vHFKzZ6Vd3SXY3E2cyhhVmkTPuCK3LN5oMs6BTFo++XewUw7WaVxLltDN2GjGXcuHGMG/8Ei3fY65GdIiWWJ7Y7FlCbOTi/I/pxW3zWypj/MQODfgyb7Dm3q2WNxNlxoqWeinM/8v2mJ0mNnsg2OeHUat/7Vrj5K2a3j2T4Ore1nMbdTEuMYMSGwPPxlvoKzv34PZueTCV64jaHRM5Pj47oOOpPXmsxK+6LoPPU9Zyo8U3U5aLW4hXcF9GZqetP4HGKamAz848ZBvRjNuGNN5jEOWrIh1Q6k00rxSvuI6LzVNafqPFzK9pCfcU5fvx+E0+mRjPRZgi3xNnMgXnp6Ias4vipU5yS/4rfZ1RsKrO/MgfWz8HN5zOAPOYDzEvXMWTVcVsbp05R/P4oYlNn85UtL3LVpOon6vIG8lvzgXmk64aw6rhdx1PFvD8qltTZX2EOaGevIODtny6JCcbnDFFD+NBpOA09Di4gw/C0/dkEifLVA4j49Vv2uxluiXNA2f0s1VAGhSiGfFjpG1f8+b/a+YruNj6xT2zHGVEOzqejfhzy2KiVSCn9MPYJHOFIKpef8ejqSvAseTyfGc7Ij+X5T3VetsTZUzfzV7NpHzmcdW7rgo27p5EYMQKV8KHcrTm0sBPhg9binLsw/YMZBseMs5df+HBSlzWQj2KW29AzxjfouiXOZr6a3Z7I4evcbnkb2T0tkYgRG2xWkWfo3LjK48n8jnpbwuLms1DDX8fFkTT1c2WG2XxoARlxY9hU7XESwcmlZW85qVFj6mjTT7ySB/9O4Qxae8nptyZ5fPI346xxrqZPqMYeDR2CjnHXIEaqji/2C62YCXymJBQy2wb++riO6EnbPRI6eUIg0FjksIi8LNBnLHd+6WcjUOIsyxwXwrB19ajGY68q3cdrdfsF4OpRn3rf9MlRpHJWDwijq3Ny0ULe85mEj/zY1mfkviZzdt6iaeSvY/Xon5DzDlec0IxfDhn9sJYnrzqFD2KtKxgpNrPNOGvEg4Djg6NB30/19uy+FTC+uHRW5k59q2/REfXEWc7w24fQedTv+MMf/sAf/vAi47uHEfrQKs75z9cCNq66VEMJCvaZKqUGCwUvdiZyzGafxLnx45GEpc3lG++kRmvGWSpn90sPkx6bQKduveiVnUiIbgJbnYmzSvveiUnjx4wMS2HWPjchrP9kWfcwcv98zoeBVL6blx5OJzahE9169SI7MQTdhK0+57l3RNTklR8DKl7HrFwDYbpMhizaxhk3UWwVN1K8bha5hjB0mUNYtO2MbU2pamBr5OORYaTN/cZn/al24mx7qM/DKRuLWTcrF0OYjswhi9imCClRvvslHk6PJaFTN3r1yiYxRMcEmyHcEmcjW8ZF0iY+i145OeQ4/u4fxcrj8rRhAP18qLod8CePcQvjItsQn9XL1UZODvePWonSjFtxW/AK5Cfq8gbyW+OWcUS2iSerl5uOOfczauVx5W6Lfzt7BQFv/5Tn51voc/KMoe2fuh7U/Z0nU5IYsHgj//PFWqZ3j6HXCpus3nz8yx4gcXbMVDvEUPN/n3jhKOT49OIjp5wFL9I5cgybg02c46bgZFK9lsHh3Vl2wr6UwlLE4i7hykALGrz8yKr4QsosPMPHMrqH5fJn1cBqZNtEPfFT/+56A4jHGmcvvX3aVpc1kI+ixLs05voGXbfE2RY7Umbtc4sdVv65rDthuX9WDOOIb06ulgJe7BzJGMUoDtvZPhs+f5Lkdk+wtc7EgfmdSHhiK3WepxCcXFqJsxZTlXhl3MZEfTxT/+7sPJ53Od3l1ThX0yd8bOk+Rmro0JIYd7UxUnV88bxDYcNjZv/cNEKHfOSR0JkIPBZpjY3u2D22AyTO0qW1DA5L5On/MaEVj93rc/izfEzTfv64ulfW4jhSzdrB4XRfdsJ+V95C0eIuhA9bp0x6OWRz9jV5KavC+UMPzprxSyUOG7dNRB8/FZf7u9+91o4H/scHDygeO+rt+fEtj/jiFRs9am75jmri3PD5VJLb5TJj+QpWrLD/PTeY1ND7ee2HlmXO1ypxNu2YTEzMRLY6r1gdSpvY/XSi8kYGRxiTncdx9S8v20jT/YaVyv14sBxeSIY+yMTZtJ1J9plOpTXTTqbE6nh8s9uDkqY9TDfoGL3Re65WdqY0dL9ZaVsKgIXDCzPQayTOqvI6VMZCxcHXGZwUxaA15c6jHhuWCg6+PpikqEGsKZfAtJunE92TP9mhDPZ1SSZ2TI4hZuJW2x0Gt4pMu58m0T2ZkAN5oJkut3LypqXiIK8PTiJq0Bp5/Qxz0nT8ZqVtaQKWwyzM0PtJnE18OT0Z3di/+qxr9KjeWz+PL/3veMhj+pLpyTrG/tV5ae6/kHxUdfBSlzeQ35q+nE6ybizqzXvb2SsIePunsvymZT7nCrDqeljyX6RL55HMnzORUY9NYO7KfVxwrC/24SND85bdxPZJ9hl1B2k/5VT938/5jqpsn158fBJntT7gJwCrJs7qvHx9Bkw7pxCrexzP8DEdg240PuHDQzEze6YnEzHyY9cdIfM+ZqWozDh7XJCoyxrIRzHtYHJMDBN9g65b4mxi55RYdI9vxhUVTeyZbkA3eqOihc9g7jGweSgqrwtkdlocj2/YwbMdDUz9u5/+GZRccuKsZm8NpmrxyryH6ckRjPzYFfPN+2aR4m/GWeNcTZ/w8Xn3xFlDh5bEOLsZWh0jVVm7+tZOxyDNFbZOjCFm8g6PhM5E4LFINTZ4uZHHrt/EuZnz7w9CH/s4m6olgovHtlod/izvadrPLogHVw/h1PumbxwJLnF2cW7kswnRPpxBvV011uY900mOGInL/c3sm5XizCW04oFNfe/xwQOKx456ey7fco5lHvHFd0zwqLyFOyqJcy1/GxdH8lO7PJMoy1H+cG8IPZafkKe12P3vc1m2/Sc/t+I9JbElzj1ZdqyBpqYm5c9osthucakGBc96pIq1DNXHM/yDs8pDgNbK/bz1zh5qkW+H9CQk+3kOXwGp5jDLc/XcaV9vZtz+BNFx49mirKSop/CVfuiCnXGWk+JkPaM+sa0plh8m2fBYNNED3qRYuRds5vTakSTGj+YT5y1vh9xGtj8RTdz4LbaHKusLeaWfTnPGWVVe0xmOHq+yXWk2n+b1B8Lp9+ZZR4PKp+nMUY5X2WbImk+/zgPh/XhTfvhBvkXSM4Ts5w9zBYmaw8vJ1d9pX5ckUbF2KPr44XxwVs6GrFTuf4t39tQqSyN6hmTzvA0uh5fnor8zwNpKmwScOXocmwjNnH79AcL7vQnG7TwRHcd4myH+/+fyXqGfzt+Ms8TlzWOJjx/Kez86oqzElYsXlbXtAfUzFbFmwQt8ctI+O+ikYvIvj3SZzWPjiR/6Hq5mrihPLTtXnTjqUPVTdXkD+e3/vryZsfHxDH3vR+csonRFfpODfJETyM5eQcDbP2m5zzmDDep6XNk+ifiUR1n0Xx+y/pPNfLbrMD/W2i+i3fkElF1OppLRj/rEtvZdZutezs5a1f/9nO8wke3Ti4934qzaB/wEYNXEWZ2XP92kyg08Fh3NgDeLbUtJzKdZOzKR+NGf2JY6BfRhiap1I9DHDmWN/MSdVEPeKw8RE6gf+nBSlzWQj9ZKFawdqid++AfYwkIl+996hz217qwkKjc8RnT0AN60BUXMp9cyMjGe0Z9UKmZxJBpOX/MY2DwtKN9CzvtdFlFpHUhKnc6XjjU37qcFJZeybk015qkyVYtXUhXrRuiJHbpGeQBSqsnjlYdinGOOu6honKvpEz62dE+cNfwi6Bh3DWJkEH3LcJeeB5ceUJb0WM+tZVhcNCPXyz7i3m8Dj0WqsUEtJ7Enzj2XHaOhqZGaC9+xZ/XT3KeP4aE3TtieMVGLxx4Gdfm+fFjdfgG4etSn3jd944h24qxwfvmg8qyO9dwHfjnLzw6pjbNqrKWqdYzQxzJ0jfxSBImavFd4KMaVS6jGA5XxoWjNAl745KTP823q7bns4T++uPuWfKUTKE/wMErAncCJc8MWJsSnMuNL76ldK8eX9yT8vhVgKWRx10gyn7MtSA/YinLr+H0eDf8V//Zv/+b8+1XoUD6S162Zv2FeRwNP73YkSFaKlnQjdsJWn6Ua8hXSd38ZSWpoOAmdMjHEGBjwuvxwIDSXbmRihxBC26WTltKVSa/O5YGkKShXXfX7WdRLjz6jL/163EP/aRPo7fhOq32phl3T02kbaSCj43DeKW3GeuZTpnXVERrXkeyMBCLjezNvxwW/FxD1+xfRS68no28/etzTn2kTepM0ZacPLvM38+hoeNp2XE3e2p080yEaQ5fe9MqII6bbbHZWeKZ5tTufoUO0gS69e5ERF0O32TuxndJM6caJdAgJpV16GildJ/Hq3AcUeRT6pu/4y8hUQsMT6JRpIMYwgNflp4CaS9k4sQMhoe1IT0uh66RXmftAElMUuGa+mdcRw9O7nckf1LLzmQ5EG7rQu1cGcTHdmL1TfjChnv2LeqHXZ9C3Xw/u6T+NCb1961EgWH9iy8yexEQmc2+fvuRkG4jLnMdeEwTST6p8j0dC2jHN6UsOzIHkAetPW5jZM4bI5Hvp0zeHbEMcmfP2uulir0PLT1TkDey3Vn7aMpOeMZEk39uHvjnZGOIymWdTMoCdvXj78c+W+pwHLhU9pLKPGZOcTJ8xk3li/BiG9EklKnEw7/5g9ezHAX1UombXdNLbRmLI6Mjwd0pp9uEqu0lL+qvDxo5PLz5y7lS0hG6x9jtMqPcBRz90Mqldzwh9b/5YYr8Ys55geU89ozfa51ZVePnGNllGK2c+nUZXXShxHbPJSIgkvvc8dlywXYAE9mH5SZ7jrByYRFtdCllpSWSPW8HsBxKZvEPuvV56++OqJqtKbDV99xdGpoYSntCJTEMMhgGv2x4OtMcshZX1DJ9O64ouNI6O2RkkRMbTe94O7Grhw9VaxJJusfa7TQ7buT6t/1xGj7vvJO3Zr337ov20oOTSsLc6U7V4JZtjJQOT2qJLySItKZtxK2bzQOJkFHO4VFG21M9V9wlfP/IaI1X9ItgYdw1ipAZr8/5nyeg2jlmPdiC+fSYpujDSRr1vf6uGl/8GGovUYoNaTiKV8/6j4fxKzkF+dQdtwuPp1Pdx/rD5e7e7mirx2MueDn+2HVazX2CuHlWq9U2fvlzL+hF6ev+xxJ5gWjmxvCf60RuVOz7KRaquDyMGdyIhVeYcTofRa3w4K+2rtavGGiPHVw4kqa2OlKw0krLHsWL2AyRO3mHrr2rxIND4IFXy3iMhtJvmnks4KKm357CHM257xBdP31KNsY7mVD4DJ84qhW6Gr0xVpyjMK+BkpSPZtkvVVMF3+YWcuuSz6BesNZw++i1F5+r8JriqekkNlB7LI7+k0hXEmxu5UJxPXkEJF+XMXeWfteY0R78t4lxdC5a4qMlrruZ0UR55x84RqEpz9WmK8vI45kffporvyC88hT9McpJXdaqQvIKTeOJtouK7fApPXXJbx6iiNGaqTxeRl3fMS28rNaeP8m1RYNldtUo0VZRQcDiPo6cu0uR2feCrn0TF+sdI7rWUQr/2CCSPfGXXREVJAYfzjnLqYpPzYR+XHMFuBZZXriGQ30pNFZQUHCbv6CkueiqpaWdFMj/+2Sqfc6rpTw8L3/4ui3bj3F5JaT2hrO0f8JeLvswC+qhEQ+kx8vJLvPzL2bhtQ83/vU5tza56H2hpjf54qdfR3HiB4vw8Ckouuk0QaPmw7KtXKDuRT+HJKlcsUm/K61t1WQP5KKYqThXmUXDSLQZ61Sz/emHjhWLy8woo0QqKPmU9D0jlaxiky2DBIT+x3P3UoOQCVXurMlWPV9KVMk7kF3KyymsscpfRvq11rn+f8FORv0OqOgQb465NjFRlrchu82FP3/enVICx6DrHhoDx2J+IbscC20+Fq1t5eQY40HjncZrGjvPujrGJ8mI5Vqj1WbkylXZVWUtcKTtBfuFJ/Lu/SjzwMz5IFet5LLkXS/0P4Iqc6u1pgFG+DiLGalRzyybOGnqJr29HApYilvbpzZICf/d1b0cg11pn+QGUrkTcM5X3vizgn8fz+eKdKdwTez//Xuy9NOZat32b1Cd82G7oZs6+1Z+ITPsrQ28T8ws1BYFrQcCZOGtfy12L5q5RHRaKlvah95IC59uQrlHFntVcgxgrEmdPpGLvliZgoemK40m1W1qRm1f4ph/Z+dosHn/0IfrlDmDY5Bf44Nuqlt/BuXk1vMGSCR+2GaCOv/9uIBNWF/usdbzBBhLNCwI3PQHrP1cx7rE/UXCLDYeWpivOH7C7fpCvPsaKxPn6WUfULAgIAoKAICAICAKCgCDwCyIgEudfkDGFKoKAICAICAKCgCAgCAgC14+ASJyvH1tRsyAgCAgCgoAgIAgIAoLAL4iASJx/QcYUqggCgoAgIAgIAoKAICAIXD8CInG+fmxpvnKZyhqj72u6rmObompB4JdAwNpwictXvF/d2MyVy5XUGN3eSXijlG2+wuXKGm6IKKZaqmpvqcflb5SVRLuCgCAgCFxzArdN4mzJX0a/nN+zX+OVoNeGsJV/rR1DWmQU8e0ymbWndY1eN5ktR1jR/z4W7m2dXNeGkb2W5jIOrP+IfT+14nVmV1P2miqhVZmFIyv6c9/CvUG+/1qrPrfvg2TQXHaA9R/tQ8FsyWdZvxx+r3SGZsoOrOejfT/97G8vcPi3mzbKplT9OU917MS0zy+5Ljqt/2LtmDQio+JplzmLVnYp76ZatW/911rGpEUSFd+OzFl7rr1N5R9zcreXu5TWH3l7QDK9l9t+9Mn9q5t7+zr2gZ9dcTPfvTeBXpldePS5T/m+4gvmD15K3nV6g0GgfvKzq33dG7SQv6wfOb/ff11buh14OnRseb4jUX9iG2u3naD+JpifuK6OcBWV3zaJ88/6XkPrMZZ0CeehVfJPkVuxtiInlG163WQ2f82cVD3jP/P7KyFX4U6tKNq4g6dSDUz49LIrSQq2mqsp69WGpeA/Gfvbd/m+lbbyqs5r18zXc1LRj//M7YcuvE5p7W6QDBp3PEWqYQKfXpZkx2JmShxTlN8mbWTHU6kYJnyq/ARua8WQy7WUocO/Pdts4Ov53cl58SD1bl9Yjy2hS/hDrPpJ/tl468+e5LtEsXJsSRfCH1qFTZTr4jB42MvZuMSFdaPIevQdTl2nJM3Z1DXfuI594JrLqlGh9Xv+4zcjeKf4CP89qx9p7drz4KK91F6nRMN/P9GQ8Zb82vWzyNdT/Jubp4WC/xzLb9/9/qpinENH589PBw3UyrEV95P04L9z4vqEtqAluZlPvEkSZwv1leVU+73vaaWxqozy6qbA74o113HxYp3r/X+SkeqKKhrd7vS6O5K1oZLyywHqs9RTWVnvqktOYOsqKKtsCN6RTV/yTHIiT33hezs1cF0STZfLqagxORNId5kt9Rcpr/az7KPZSHXZeSrqtGePLXa9pQCJc2DZ/LiwzKm82s+t6maM1WWcr6jzOxMnNV2mvKIGk+YgY6bu4kXqnAmChLG6gip3o/oRSz6kpYelvtKHpXH7JGJS5/C1H4zWxirKyqtpcvOnAE17HrY0UFl+mSYpQNJgbaSqrJzqgBW3loGvL3kI5pE4e3zj2tGUzXWqY0uNoT+bOPzbUV75lOr518FDnKp1Gl45bPryGZITn8KnSwUhpz9729oMIrZ4CCfvmPjymWQSn/qi5b/aF7DPyD9cGUy/MFNR9DWFpVcCx0KVNjxUcfqmx9Ggd/zZ029hZzsB+oC5joqyShr8DNLm2grKqhp9465KGUWGIMYDd1nl/l0RYDzQ0jOgb7UgLrvL4m/bXz9pNlZTdr4CzbBvrqWirIpGP3z9teU4Fpw/Os52/5TH8krqnd3XTG1FGVXeAvjlE0zibKauooxKfw6jiKGWS9jkvCqeWGioLOey+6+7uquvta3luxjZPimG1Dlf+x0/ZX+rdMEFvxw9J90C5jsByvpTIWh/81f4F3jsBibOFr5dmsuji99n2cAO6CNCaaPryoytZc5BoaFoNRO7xRAariOibShJDz7LlrP2CGD5lqW5j7L43SUMSNUT3jaElKFvU1Syiek5iUSFtSEsYyIbztiyHaWzxAxiwQsPk6qPJKxNBFkT1tp/u90my8CX3mJuz1jCI7vwovzm8PpCVo29l6TkTDqnxpPUew5bSzWyp9rNTO4QQ9iddxIWk4Sh1yIOysmYSl3SpX0se6Q94aFRRIVF0v7hP1Fosjt/zECeXfAQ7fURhLbR0XXGVsoUESwUvzuObol6YpOSiQ7V0XnyBk77C5BSJV8uyiUxJJSIiFh6TJ3FkCSda8ZZRTYPn3cwf38ZAzvoiQhtg67rDLbaBMJS/C7juiWij00iOToUXefJbHAIJF1i37JHaB8eSlRUGJHtH+ZPspKWfF52Lhtw+MS7LBmQij68LSEpQ3m7qIRN03NIjAqjTVgGEzecsfmIR1l1xpZvl5L76GLeXzaQDh4sJao2jCctJpQ77gpXWKaOWUuZnNg3FLF6YjdiQsPRRbQlNOlBnt1y1ncg94Ak70hUfrmI3MQQQiMiiO0xlVlDktA5Z5wbKFo9kW4xoYTrImgbmsSDz27B5tpXxyCQL1nyX3YtVfJInC3kv2y7PWq7ZlCTzUdR+wEVhiq+5T2A1ReuYuy9SSRndiY1Ponec7Yid7fazZPpEBPGnXeGEZNkoNeig5hRlzOwvW0iq8aWQGpSy+bJHYgJu5M7w2JIMvRi0cH/wzcv5NB38WHnxbalYDn9us9nj3zdrNFnCNAvPOyluGIQsTBAv/RUR6LqH3+gf1Ko4psxXafw2ksj6TnvS+VCwPzNC+T0XcxhR+JjKWB5v+7MV5RR72Pe7aj3gXoKV43l3qRkMjunEp/UmzlbS2392nqGjU91IzExg+z0RNqP/kjxA1Ap4+Ac5Hgg+8evhy3l3UUPk6aMB+F0enwNJY65DhW/VfetIONyww6m39OHlw44GgTLkRX8uutM/t7oSdKjn1iKeXdcNxL1sSQlRxOq68zkDaf9xCQrZzY+RbfERDKy00lsP5qP5M5k/oYXcvqy2GVgCpb3o/v8PbYLwQD+qFVOYTLwJd6a25PY8Ei6vFiA9cxGnuqWSGJGNumJ7Rn9UancIVTGLfXEOVB8kOvUyiXcibaOJ0hV/+AP/ZMIDY0gIqYrU157iZE95/GlbEItrmq+6xBOqmLD+DRiQu/grnDZvh2cFkEAACAASURBVKmMWVuGpPj2QF56ay49Y8OJ7PIiBRY1jo7cIXC+Ezh3kCj76HGyx6+nQh4Dg/Y3hxK3x+cNTJzlTmKgTVQPZmw5jVGq4+BzXQjpsoRjcvJnPMDCrEi6z99NmRmk2iO8NiAW/aA1nJcTR3nwN9xNVM/ZbDtnwlL6AcNiwtB1GMirhy7T3HiExfeF0nGBPMjaHMlwZ1uyfvsxJxslmr5/i0di9Az/74vyt4osIWGZTNpcisVqwtxs5MCCLBIGr+YHuWNIVXw+LZ12YzdTrTpbaqGhfDOTEhKYtPkCVTXyzLZaXQ3sfqY9+txXOVIngbGUve9t5IjRIXMYXWds4bRRou7gc3QJ6cISBZCFki82cajMFnjNP7xB/8gsnvez0K5p70xSI/uwJK8WyXyeXQtziLoj0p44q8nm1QkU5m2I6jGDLaeNSHUHea5LCF2WHFMCt6XkCzYdKrMFYPMPvNE/kqzn85RKGnY/Q3t9Lq8eqUPCSOne99hoU9Jt2YDNDndH9WT2tnOYLKV8MCyGMF0HBr56iMvNjRxZfB+hHRfYLkY8EkB1PeRgaWgTRQ9/LM0NlK0fQ3TKNLZdqOJSvewxRg4szCKy+3x22xyQI68NIFY/iDWKA3qxcd9t2svM1Ej6LMmjVjJzftdCcqLuINKeOBsPLCQrsjvzd5dhRqL2yGsMiNUzaM15py+2joG6L6XETUG5defBzTVYyZ6kLpu7kl7bgRiq9CGPAcx4gAVZCQxe/YPiP1LV50xLb8fYzdVIlgbKN08iIWESmy9UUdPUrCmnqr21YouXau67loZyNk9KIGHSZi5U1dDUbGLXkwkYptsTD9mCX88hVT8eZSWURp8J1C8cbBR7acmr0Ya7/DTtZVZaYN807XqSBMN0W9IvF/S4O6Xex7zbUe8DC8hKGMxqW3Cl6vNppLcby+ZqCcuhhWS0G8/fahQBqDxfoSxxMh4IXKZV48FdIWRNXkeJPB6UrGJgjJ5hH1bY+r6G3waMJQQZl6VK/nu4HsMz/2P/eWEzh5/LJHrEOqq8xheHLyh8LSV8sekQtrBv5oc3+hOZ5ednyS2HWJjRjvE2iJgrz1Mhr8wz7eLJBAPTHRdCeN4JCOSPWuWU/hYSRuakzZRarJjM/5dDCzNoN/5v2MxYyXlFADU+rljk4Uvyjlp8sI/fAXMJr8paxZMm9s5KI7LPEvJqJcznd7EwJ4o7Iu39XIOrqu+6yWduKGP9mGhSpm3jQtUllKFI6d8hhGVOYnOpBavJTLOGnyn2CJjvqNmgmbNvPEj4r1cqS9EI1t/cdLgdNm9w4pxC7BPbnb9Lbj44n476cWyRk8avZtM+cjjr5DWZ9n/G3dNIjBjBhlo5oMvrNGN5YnuT7VupnNUDwuhqT+Lkq9C85zMJH/kx8gW80lliJvDZFUdtDfz1cR3Rk7bL3yqJc9SQD6l0NGc+wLx0HUNWHefUqVPKX/H7o4hNnc1Xtqk5R0W+n6bdPJ2UxNO7bUktanX9n38ww6BnzCb3FZ22KhWZY5/AoSLmg8zvqGecDMj5z0J9xTl+/H4TT6ZGM3Gb+3fySRYOLexE+KC1XHLoZpLbtM84q8nmrac3c8wcnN8R/bgtHmt3LfUVnPvxezY9mUr0xG0K33/MMKAfs8lj3aqiglKnY72tLXC6fEKifPUAwrraL6ZkbfKeJzN8JB/bjOpKujX00GLps8zA/BWz20cyfJ3b2mvjbqYlRjBCcUCnAXw25IG/U/gg1rqAI+tvm3E289Xs9kQOX+e2ptjI7mmJRIzYYPdF937REgYavqSZOGvJ5qOqxwFfhup9SLFJ3BSlDvOBeaTrhrDquK2vnTpVzPujYkmd/ZVy4Wva/TRJSU9j61LacqrZWzO2eGjlvWNi99NJJD2923aBSBCJs3uc8ugzZsUv/PULBxs5cdaUN8h+KWui7ptyXqWSOGv0MXdS6u2YOTAvHd2QVRy3x9ZTxe8zKjaV2V+ZsRav4L6Izkxdf4Ia5w0+9TKtHg+cs7uN/HWsHv0T21CN12b7WHLVcRlq/jqOuKSpfK7EskMsyIhjzKZqd4zKtsMXPL6w1FNx7ke+3/QkqdET8Qn71mJW3BdB56nrOeGCqJE4B/bHoBLnqCF86BxArRSvuI+IzlNZf6LGeRfZpYO/cStw4qweH7zHDXDPJVxt2rZaxVO+EOkUzqC1rgeWTf+YgUEXTOKs4bseAvpZqiH3b0MUQz6sdC7jdBXxx1Er33GU9lfWK3F2nqrhb47zbpPPG544x0353D4AyQ8XvUjnyDFsNkLjxyMJS5nFPrfkzfrPZXQPy+XP5+RbTu4POMnWqmbt4HC6Lzthv21loWhxF8KHrVOSNUdnUWZwFOOa2T83jdAhHzmTFXdZMG5hXGQb4rN6kZOT4/y7f9RKjvtbDuHuMN6Js1pddR8zMiyNud+4KWqvy0dmSwEvdo5kjAwIifLdL/FweiwJnbrRq1c2iSE6Jmz1TpyNbJuoJ37q352cPWaR1GTz1tOHuYWCFzsTOWazkjhL5bt56eF0YhM60a1XL7ITQ9BN2Ao08vHIMNLmfuO7bsujTlfgtF9yUL12MOHdlzkfVLAULaZL+DDWydcZ7mU19FBnCT5JX6NslxRmeTogy7qHkfvnc+7W9tk2bpuIPn4qf3co4TGrY2ORMmufGwsr/1zWnbDcP/v1xaAZKDIH4Uvu3JSLxhRsvq8lm4+qHgd8GAZpE7kS45ZxRLaJJ6uXq6/l5NzPqJXHlf7smThry6lmb83Y4qGV905rEmfHhaFcl3ufCdwv3OXXlNfDnt5teMqv7psaibOGPd1bUm/HyJZxkbSJz6KXW2zNuX8UK5Xg2kjxulnkGsLQZQ5h0bYzmNEo48Og5ePBN8p48KHsjKqx3902is6tisvy+pvPeTK5HU9srcN0YD6dEp5ga507Rdu2oz1lTypn90sPkx6bQKduveiVnUiIbgI+YV+OusXrmJVrIEyXyZBF2zgjDzGqM6OB/VG9nD1Rc1yYO1RoLGbdrFwMYToyhyximyKA2rjliv+OKhyf6vHBVc4Rct1zCUcdjs9W8TRuY6I+nqmuoO55Z0mVq4bvOgRTPgMkzs6HuR0nq3H0Zw/3fEetrFfi3AJ/c0h2O3zetImzaecUYnWPs7nBZQbTnukYdKPZ6J00KacEFyh3OnoWV9g6MYaYyTv8JiuYvmR6so6xf3VOSbgE0dryTpzV6jLtYHJMDBO3OqfCnbU7Orgz2XcP0PIt1DQdv1lpu7WN5TALM/R+Emcze6YnEzHyY9dsr3kfs1LsM85qsjklsW/4DE7uSYB8yy8N3W9W2pa2YOHwwgz0SuJsYsfkGGImbsVHS486fQNg0Emjhh6qLOXxZPskz7sJpp1MidXxuKcDMt2gY7TigN5wXPvmPdNJjhjJx86bCGb2zUqxzzib2DklFt3jm3G5tok90w3oRm/064vBMwjSlwIy15LNpaO/LV+G6n3IYRO5LtOX00nWjSVQd/NMnLXldNTtr+9oxhZ/yjmP+SbOu59OtF942E6S23bORHmwlr937zOB+4W7/JryqrbhFFzZUPdNkDknuidAct2Ou1Mafcy9JfV2THw5PRnd2L8qdwPdy3lsWyo4+PpgkqIGsabcqF7Gh0FLx4NGPpsQbRsPNPR0t40ib6vislzSyL7ZacQ9voEdz3bEMPXvfnk42pNLyMuA0nS/YaWyxAUshxeSofefONtYWqg4+DqDk6IYtKZcNjBPJ7pfyMkx13E3LLA/qpfzl6jZWpf/t1Qc5PXBSUQNWmNb+hNw3HLFf1dp25Z6fHCVcwzvwSbOQfM072F6cgQjXUEd875ZpDhnnNW5BuXviqomtk9y3WlTDvn4tuIIquO/w2f85juquYNn4hw0H2+D/cL3b9rEWarcwGPR0Qx4s9i2lMN8mrUjE4kf/YltOYWPM2kHSsNdeh5cekC5RW49t5ZhcdGMXF/pN1lBuszmsfHED32PHx29UbqivL1DWfFgKmLNghf45KT3tKycBXgt1VCrS6pg7VA98cM/4Kz8QI61kv1vvcOeWj/ByD1AG7fzRHQc47fI61bkZw9foZ/O34yzRNW6Eehjh7JGfvpMqiHvlYeIudO+xllNNm/n92HungQY2f5ENHHjt6BIVF/IK/109hlniYq1Q9HHD+cDm5JU7n+Ld2xKupZbeMx+2hoPOmnU0MMRSPwlUnJL8kVZsn4UnygL8uQJ/Uo2PBZN9IA3KVZWA5k5vXYkifGj+US5HWmiaM0CXvjkpM+DOVLVOkboYxm6Rn6QUKIm7xUeirnTvsZZonLDY0RHD+BNW8WYT69lZGI8oz/x74vBMwjSlzzs6D7oaMkmgwrs974M1fuQwyYyf+nyZsbGxzP0vR+dd0akKxe5KK/7V7qU+1INbTkddfuzt2ZsIbBt5bdqeC7VkG9J9yQk+3kOX5G712GW5+q507H20YO1rIl7nwncL9zl15RXtQ0Fn/M/dd9EWSbRMySb523KcHh5LvpWxAr1diQubx5LfPxQ3nMFV67Ib9GRwHTmKMerbHG1+fTrPBDejzfP/j/VMh53nxRtgxwPXj6oPLNiPfeBazy4mlgSdFy2mcSc9zuyotLokJTK9C/tyw6d1rKfs3cm8vMJ8j/j9ieIjhuPLezXU/hKP3T+ZpxNZzh6vMoWm5pP8/oD4fR786xsYFb0DCH7+cNckWPT4eXk6l2xKWCcVi3nZ6zCxJmjx7GZsZnTrz9AeL83ZQVUxi1XLPJCoBEfXOUcQ3WwiXPQPKUq1o3QEzt0jfIQt1STxysPxbj6uSofdX/31FWeRElGP+oT29pw+Uuf/q04ggpHmz0C5juqNvBMnFX5yLPR/z6XZdvl1+7eXv9uaOL8zbyOGJxrBcFatIRusY6rZytnPp1GV10ocR2zyUiIJL73PHZcsJvI/A3zOhpc64ipZf0IPb3/WGJPZKycWN4T/eiNysyeef+zZHQbx6xHOxDfPpMUXRhpo963v1XDjLcsshtYf9rCzJ4xRCbfS5++OWQb4sict1cZ2KXK93gkpB3THOuY3f3GvJdZqanMdPuBEbW6TN/9hZGpoYQndCLTEINhwOu2hwO/mUdHg2NdpyxQEUu6xdpnlevZv6gXen0Gffv14J7+05jQO4kprktMl0TG46wcmERbXQpZaUlkj1vB7AcSmbzDFmbUZHNVIndgb+ZWipZ0I3bCVmWpRv3+RfTS68no248e9/Rn2oTeJE3ZaavC9B1/GZlKaHgCnTINxBgG8LrycKB7nb52qF0/An3vP1Jivz6xnlhOT/1oNsrTtV7yqOlhVmUpJzy7mJ7elkhDBh2Hv6M8xW898ynTuuoIjetIdkYCkfG9mbfjgi1ISJW890gI7aY51rq6kzJyfOVAktrqSMlKIyl7HCtmP0Di5B22pNB6hk+ndUUXGkfH7AwSIuPpPW8HNte+OgZB+ZIHN6/2VGWTrycC+71fhip9yGETGzkrP22ZSc+YSJLv7UPfnGwMcZnM22vzUfPeWaSmzsTZpTTkdNTt7J4efUcjtqja1szeWamkznT9mE1z6UYmdgghtF06aSldmfTqXB5ImoLSFT1Yy5p69hkC9AtP+TXk1WrD3TWx+Wai4psdSO48iikPJ7re+NJcysaJHQgJbUd6WgpdJ73K3AdccUWtj3k0Y28ncB/4iS0zexITmcy9ffqSk20gLnMesrlrdz5Dh2gDXXr3IiMuhm6zd9qe8LcGLuMdC9AaD+RkVNeHEYM7kZAqjwfhdBi9xj4eqMd+T9tcRVxW3OGfLOtxN3emPcvXjqzPEySO9pTD9ftZ1EuPPqMv/XrcQ/9pE+jt8DX3crU7eaZDNIYuvemVEUdMt9nsVF6T0Ezpxol0CAmlXXoaKV0n8ercB5Q4rTQfwB9BvZxDRmd/o5adz3Qg2tCF3r0yiIvpxuyd8oOXauOWKxa5q2LbVosPrnIOhJ65hGdtDlmVo8HylHPV4ysZmNgWXUoWHZI7M2rKwyQ6Zpw1+KDmux7iSdTsmk5620gMGR0Z/k4pzT79Wy6gxhHU8x21sp6JM2p8LIUs7hpJ5nO2FzB4qPEL37mBiXNwZJsbL1Ccn0dByUWPB9CCK+3vrCuUncgPvj6piYqSAg7nHeXUxSb74nyJivWPkdxrKYXeS4r9Nek45rcu+5emKk4V5lFwstI54+YoFvjTSs3po3xbdI46rUs+yaZ34ckq//WryRZYAJ9vrDWnOfptEef8CmSi6lQheQUnqXREOJ8arvLAVeghNZRyLC+fEnfhmhu5UJxPXkEJF91sLVWs57HkXiwN6AASV8pOkF94kiq/ujbTeKGY/LwCStwrvkr1leKt8iX3hgPJpu33fhm2wCZSUwUlBYfJO3qKi5rvSg0kp7sugbcDxRZt2/qps6mC7/ILOXXJ91kFP2d7HQquXwSS16uyIHYlGi+c4Nv8EipNJj8/ztNExXf5FJ665LYO363aoO2p1QckmipKKDicx9FTF3E3t7n6NEV5eRw7V+c1mxW4jJuEmpvOGX1jE+XF+RT6i7tB6+ndXEvicjlrBunIWHDIP2vvquV9aw2nj35LkQ8br5PN1ZwuyiPvmO/40FTxHfmFp/DvroH9Ub2cV/uYqT5dRF7eMa/xoAV8vKpsWXzwKhxoN1ie8p2xxguc+NY2Rpjc355jr1udT7C+K9FQeow8pX8GElo+HgzHQPlOoLLN/PBaH8J/81+UO14m0AI+atL+kr676RPnmxK2pYilfXqzpMD/rbWbUmYh1DUkYKFoaR96LylwvhHmGlZ+81Z1W/j97WZbz9eR3bzOd20lcybOfi9qr21barU1n32L/hGZfl8jqlZOfHfjCXi8dvLGi3P1EkiVHNv1EXN7R5Ey03Zn/eor/WXWIBLnVtnVQtMVxy8EtKoCUegWJ2BpuuL8wYtbXJUWiH97+P3tZVsrxe+MZ9irh4Of8WyBx9ysp1r/uYpxj/0J+XeubuS/ur//joETVlPs51GZGymXaFubgLX4HcYPe5XDrbnJpF39z3+GpZD/fOwhBoxbyi7HktifX4pbokWRON8SZhJCCgKCgCAgCAgCgoAgIAjcaAIicb7RFhDtCwKCgCAgCAgCgoAgIAjcEgRE4nxLmEkIKQgIAoKAICAICAKCgCBwowmIxPlGW0C0LwgIAoKAICAICAKCgCBwSxAQifMtYSYhpCAgCAgCgoAgIAgIAoLAjSYgEucbbQHRviAgCAgCgoAgIAgIAoLALUFAJM63hJmEkIKAICAICAKCgCAgCAgCN5qASJxvtAVE+4KAICAICAKCgCAgCAgCtwQBkTjfEmYSQgoCgoAgIAgIAoKAICAI3GgCInG+0RYQ7QsCgoAgIAgIAoKAICAI3BIEROJ8S5hJCCkICAKCgCAgCAgCgoAgcKMJiMT5RltAtC8ICAKCgCAgCAgCgoAgcEsQEInzLWEmIaQgIAgIAoKAICAICAKCwI0mIBLnG20B0b4gIAgIAoKAICAICAKCwC1BQCTOt4SZhJCCgCAgCAgCgoAgIAgIAjeagEbi3MiF745y9MhRjh47wb8qGmlurcTNtZz7/iw1Vv8VWI6soP99C9lr9v/9L+Voc9kB1n+0j58CcPil6HlN9LDks6xfDr/ff52dormMA+s/Yt9VGkXY1kL+sn7k/H4//i3WTNmB9Xy07yeE+1+THiIqEQQEAUFAEPiZCagmzs0/rST37hDi0jLISDegvzuM9JHvcNzYcimbz75Jv7BevFLif8g0fz2HVP14PmtF3S2XpnUlLAX/ydjfvsv3/lUIqtLGHU+RapjAp5eloM6/rU8y72VmShxTPjddXwyNO3gq1cCETy9zNVa5lra9Fr52faH5q93M3pkpxE35HP8Wa2THU6kYJnyKcH9//MQxQUAQEAQEgZudgHrifPYNHgzrzX/8YJtnNp5ayYAoPWM21bVYr2alrl684pF1WmioLOdyk4T/xNlMXUUZlQ2BMlUzdRcvUmdxiCNhrK6gqlFrXrwZY3UZ5yvqAsyMgaW+kvJqo0ciZdw+iZjUOXztM52mIaelnsrKepxiOsR1flpprCqjvLopwIy+hfrKSuoDVwDWRqoqLtPkT3VzHRVllQTCKOta6VG5ljxOwQGJpsvlVNSYPFjJZ1gbqygrr/Yvk3yCzKW8GmOgbDVA4qxar7mWirIqGgO5DGCuraCsqlFj1jMI5u4YVLbNdRWUVTYEbO+a+VoQustiSk2XKa+oweTBXbtPmOsuctHV2ZCM1VRUud+Fck+crfa+7c8hPWFdrT09axN7goAgIAgIAoLA9SPQosQZSx7PZ4TxyHuVPkmSlojeibNU+SWLchMJCY0gIrYHU2cNIUnnmnGuL1zF2HuTSM7sTGp8Er3nbKVUGYMtfLs0l0cXv8uSAanow9sSkjKUt4tK2DQ9h8SoMNqEZTBxwxm/Sail+F3GdUtEH5tEcnQous6T2XDalmVZvl1K7qOLeX/ZQDroIwhto6PrjK2UNUtUbRhPWkwod9wVTmxSMqlj1lImgZacA196i7k9YwmP7MKLBRYs+S/TL+f3OFYfNBStZmK3GELDdUS0DSXpwWfZctZNnoEv8dbcnsSGR9LlxQJPzJZvWfrrYSx9dxEPp+mJDGtDeKfHWVPimO+rp3DVWO5NSiazcyrxSb2Zs7XUxkUumzuQl96aS8/YcCK7vEiBBdTk8WwcpEv7WPZIe8JDo4gKi6T9w3+iUG66oYjVE7sRExqOLqItoUkP8uyWs7bEUWn3URa/v4yBHfREhLZB13UGW8v8JFjeibNavVg5s/EpuiUmkpGdTmL70XxkcxiX2NYzbHyqG4mJGWSnJ9J+9Ec2n7Lk87LbkpD6/NcZkh5Pcqd0kuLakSTbe9hqzhq/4YWcviw+7LiCsVCwvB/d5+9RZli9bUt9IavG3ktSciadU+NJ6j2HrXaZrq2vBaG7TEG6xL5lj9A+PJSoqDAi2z/MnwpNBNMn3l0ygFR9OG1DUhj6dhElm6aTkxhFWJswMiZu4IxiPlviHDNoAS88nIo+Mow2EVlMWHvSfoFqIf9lt6UcrbKnmUOL7yf78bWc8+MyLmOLLUFAEBAEBAFB4NoTCCJx7smi/Wf56exJvvmvMXRMGcOG8y0fsTwT5yb2zkwlss8S8molzOd3sTAnijsi7Ymz8QALshIYvPoHJSGRqj5nWno7xm6uRkIenA3cHdWT2dvOYbKU8sGwGMJ0HRj46iEuNzdyZPF9hHZcwEGfmWGwlHzBpkNltlvJ5h94o38kWc/nKWTNe2diaBNFjxlbOG2UqDv4HF1CurDkmBXMDZStH0N0yjS2XajiUr0ZgpAzJCyTSZtLsVhNmJtBbiMlbgrK6gPjARZmRdJ9/m7KzCDVHuG1AbHoB61BRqzIExJG5qTNlFqsmOQK3P/JiaXhLkKyJrOupBGpqYRVA2PQD/uQCkkWbwFZCYNZ/YOczUpUfT6N9HZj2VwtyZUz0xBCWOYkNpdasJrMNGvI4940NLD7mfboc1/lSJ3cWCl739vIEaORAwuziOw+n902pTjy2gBi9YNYY1OKmYY2RPWYwZbTRqS6gzzXJYQuS475zsh6JM4a9VoOsTCjHeP/VqOIaa48T4XXsh/LoYVktBuP7RQzlecrUE5xb6f5DH/+tY77//i9kuzV7Z1NlmEimypMYNrFkwkGpu9xXJiY+XpOKvrxnyn1eNgWIwcWZJEweDU2/FV8Pi2ddmM3Y8N/DX0tCN1lKA27n6G9PpdXj9QhYaR073tsPGLU7hN3R9Fz9jbOmSyUfjCMmDAdHQa+yqHLzTQeWcx9oR1ZoHQ2W9+8s20Wv/34JI1SE9+/9Qgx+uH890V5ett9Rrq19rRS/JffMurFnVR6zJh7eqfYEwQEAUFAEBAErgcB7cT57hBiUjrQIS2F+Ii2JPabx6cnm1osi0fiLA/0ncIZtPaSc+ba9I8ZGOwzzuYD80jX/X/svQl0FFX6/+3GkK3TnU4CSTokLEnICAFMQBSGmcFBFiEChp1BUTYFRGdGfMFBdObvMOMg48soiP5ZROJENkf5iXCURSIJm4dojBoOCCRvSCT/hOSE9Nvdp1Pn875VvVVv1R2WkZGbc3K6urvq3uf5PM+991u3blWPZNWJCioq5P8y1oyNJ23eJ1idg2/8lO04rJCoXj2UqN5LkfWt/GcrfprM6Hw2tQQ309ZUw5nvvmLLw2nETd6m7KgIn/gpbHe5Zz3Iwu4GJhQ5FJjvUo3QdpqIHfmm1wCvFlfWT+bRRTea9aoFn+ZdM0mKGcPGRqdwjh3Jm8EUgiL4jEx6z+Noy7sFGAxT2Ga2cmBBN/QjV3FCYVhBRdkaxsanMe8Tq1M4xzLyTc/Vg1D2eNG0fsxsk7xsp8nrY6yfMK+LjtHrVeuFzbuYmRTDGIdTzEmNZ4oHMgcXdscwocghYtWlqQVtqHLtZSy/K4aeMzZwssHnBMNZpr1sOXfF9GTGhpN47eJVz0GezDDx6P84xLFUvZqhMb/gFXmmuD3C2XqABd30jFx1wpnDFZStGUt82jwc+OeQeq1yLQzfZdH68WwThvFb8ImYm3g4bULhEdXbcTIpHylfhcqMJl9pbM4Z50nvcdlVavO7PKSPY+p2uQ2phPM1iKerCvEqCAgCgoAgIAj8pwiEFs6qNc6YT/H25HQi+/zRLVLDNdRLOJu3MdmQyIx/u2bu8FrjbC6agK5DIlm5eeTluf7vZuzKE9jVg6+z8vp1I4jus4yTLuF8bAm9oh9gfQCFIFXv4tn7uhHfuQc5ublkJ0Wgn7RVKUktapUPbCU801PH+MLAwrm9dsplquto2ZRPVOpc9qpmxu1fLKNP1GD+fqbNa1+nq94vasHn/Ma6fz7pkSN5s8FM0QQdHRKzyHUzzCPv7rGsPCHPoPvfeBfKHq/KYgODsgAAIABJREFUWzaRH5XO/P0q4+UdlM9TmevtFMv6RDH472cC1Guj5Jme6MYXagvnUOXKVZetZ+5gE1H6TEYu3sYpH9OghbL1cxlsikKfOZLF2045lhB4sbjEvx9OJXnoEjb/z4esm9UHY+5yZGTtEs7mIiboOpCYlavK4TzuHrtSKUudBwrXq8q18HzflB9F+vz9fuv629Um6tcxIroPyzyNjSW9onlAaWwqYexKFus+5qdHMvIt+UqA6vtrEk9XJeJVEBAEBAFBQBD4zxBon3AGzFsno498kLfdU0rhGeolnK27mZUSQ/4mj7K17p1LqnPG2fLRLFL0BbzrmUhVVaIafJ2fhi+c5Uvr6eh/vdJx+RwbhxZlYAhTOFu2T3XPGMpVt9dO+Ri1YLLsnE68/iEKmz3uWXbPwqQfx+Ym7309e6i2XIJvp+cEpOW9ScQZp7HDbOGjWSnoC94lMEZ/4RzKHlXNYNnBNKORyVt9EsGyk+nxeh7ydopZJj3jHE75PCkjTOEcqly3cTZqDq5gRHIsw9dWuz/12rDVcHDFCJJjh7O22rlsxfX0DtthnunVk/yFjzN57INMmr+Sveeda5otu3g0Sf2UDzkXTegDLdWwfMSsFD0FgZPYKw8U23yEc/tyzeWdlu8WdkwzYpy81TMbrBzWzjYRlnDe6XmqxuWtTDYambbDZ8b5WsbT5b54FQQEAUFAEBAErjOBMIRzHi+cbKG19TKNZ/bxl+Gdibl3BV/bQZ6p+vP8ZWz/PvClcbXtXsJZqmP9GAPxo9Yi3wcnNRTzwi+N3O5c4yxdLKQgMZFRr3/nHoCly/Id/b7rJB01hC+czWyfEkfCxCIa5UObSnlhkD7sGWdZ1KYYxvK2Yxkt7bVTrlItnKXajTwYF8fQl8scy06slazLTyJx3NvK8g71vmqW7m1ZOJvuwHDvHzkoL5y1n+GNBxKIy99ArSRxsbCAxMRRvP6dS1hLXJafQqJg9BfOoexx1ytvSDWsG2UgcfQbnJZ1pb2Wfa+8yu7/U8vGB+OIG/oyZcqSFyuV6/JJShzH2/KSE5fYdz9iLkzhLIUo13KKoyfqHOuk2ypZcU80g14+7WWy5dRRTtQ5Lku0Va7gnuhBvHxaWUzuEfOXtzM1MZX7F//fvLnhbQrf+4BD3zU6bqiUl0T0iyD76UNcRqLh0PMMNtyOLpBwli5SWJBI4qjX8eC/zIUL8vpi7zxQjPQVzu3JtTB8l9e416wbhSFxNG84Akbtvld4dff/0742EVI4m7jDcC/PHZCX6tg5s+4BEuLy2aAsN1Kd9F5xPNuo/NcSFqzcT4NY4+yV3+KNICAICAKCwPUnoCmcpeo13B99K7fccgu33HorHWJS6Dt2KR+cdYgPW+kSeusyeSrQXXg+tred/Qe/0g/kL65H251YybDkjuhTs0hPzmbC8nnckzSNHYrGs/N90Rz6GXWk3DmAgXnZmBIyWbBH/tLK/gXdMT26yy2qGzeMwdD/T7geEW0/+Tz9DOPYrJrJdZnTtG8xuQYDGQMH0ffnQ5g5qT/J03cqX1v3L6C76VF2uXSm/RhLc+KZtNWxVENq+IBZ3TqiM2XQffSrnG1rn51yJd512Dn1zkx66yNJ6J5NRmcdif0XsOO840TEe1+XB6pXRYTqGTBmBD06p5GZqie66zjWfu1co2D/nqI5/TDqUrhzwEDysk0kZC7AgXE/C7qbeNTtrFyutj2qmpVNy5f/JD8tkujOPcg0GTENXcERM9hPvcPM3noiE7qTndEZXWJ/Fuw47xCfVt967RxbmkP8pK0Blmp476tZbuNOHusah6lXf3IzEjDmzGOnfIek6q9x52N0jTPRq38uGQlGcubtVG6iRG2TVMWm8SmkDBjPtCkTGT9yAGmxSYx47RvstHF282S6RkTSqVs6qb2n8uL8e5T8UTLTJ3/s3xcxp58RXcqdDBiYR7YpgcwFe5S89Yvt1eRaGL47A8Y/89OIjO5Mj0wTRtNQVhwx06420biBMYb+/MnT2Hi+n4FxSmOzsu+JDHImzOX+rol0yUxFH5XO2DWup2p4t90ri6djrbbuFy/zbejzdVX0xaYgIAgIAoKAIHD1BDSF89UXr12CdLmKk4dL+brOpVS995daaygvOUTx0QoutHqLIO892/fO3lDJ0c+PceZS+0deqfksx4sPU17rsflq7WxrOU/Z4WJKyi/4i0ct19yzt2Zaq8s4XPo1KrOcR0q01pRTcqiYoxUXCAdju+yx1FFRWkzJ17XuExml4rYWzpcdpriknAuO8w4tT8L/Tqtcaz2Vx4opPn6GYKG11ldyrLiY42cuBX5c4ee/I6vTBP6lXJKQzbJzclkfoob+E+XBEEBrzZccLq3gB7811AHckFqpKS/hUPFRKi60um+GDbCn30ftyrUwfHdUYKGuopTiEu9cuZo24We4/IHStksoDxX8q4xnwLrFh4KAICAICAKCwHUi8KMK5+vk081TrFs4e0T8zeP89fHUdmwJvWN+zozXP6LkixMc/vBVpv88nrv/XOb/uLzrY4IoVRAQBAQBQUAQEARuUAJCON+ggQnLLPsXrJrwIH+Rf7lE/F0jAq18t/Ml5j50P78cNJihD0zjD298Tl37L05cI3tEMYKAICAICAKCgCBwoxAQwvlGiYSwQxAQBAQBQUAQEAQEAUHghiYghPMNHR5hnCAgCAgCgoAgIAgIAoLAjUJACOcbJRLCDkFAEBAEBAFBQBAQBASBG5qAEM43dHiEcYKAICAICAKCgCAgCAgCNwoBIZxvlEgIOwQBNwEJc8MPXArncXfuY37qG3aaf7jIZd+bNNsuc7G2AfO1e1rlTx2k8E8QEAQEAUHgKgj8hIWznYbTX3G6wfFjLW5GUjPny78lyKOj3bv9uBs2Di8bRN7v911jM2wcWT6Euxbt4UbWZLYjyxly1yL23MhGXuPIqIuzfvEid6f8ipWuHxlRfxn29n9HrL3dCZb3EvXvP0L3HjN5/wePQrZ/u47x6TpiEzuROXf3DZ3T3n6Kd4KAICAICAL/rQR+usK57Vv+cncUA/7XN94/dGF+h7FRXVmw/0ZWZZ6fJr62iWXl08fTMDh/Ivraln3tSrN++jhphom8194fTrGV8NeC3/LaVz4nS9fOtOtfUtt3/OO+LMZv+N47b9td840Qaxslfy3gt699FeYzsIPkffOnLOyTxzMHm1QU7Bxf2ovoX67i+zaw2/+LY67ySmwKAoKAICAI3NgEbgjhbK46woeF7/De3q+4eK3Gv7ZveenuKPoHEc7zAwhnW1Mt1fXm0L/uZr1ETVUtzcFstV7iwoVLuJ+uLJmpr6mjxfcyszM37C111FxsVQmlIAJCo942cz1V52oCX963NVNbfZFWKYiYsrdQV1VNfWsQA31y2N9enx2CvrVyqaaK2oDgbDTXVnOxVSKwcNY61lmheTtTjWk8/qn/SZH1Ug1Vtc1BBZxm7DW4yzXLx9Y2uaMdwHsrly5c4JJ7FwlzfQ11ARKi7fJpPv/kODUBftPG2lhDVV1LUB+UikPFmjA4BvAg4Ee2Jmqr6zWWSZjZPtVI2uOfBpgNDmRH4LyXmr7l4GcVNLr5ydZY+OixFJIe+dD7Fyvl33psqaOqup7g6Wyjqbaa+kDrO9rZFgJyER8KAoKAICAI/GQJ/MjC2ca3G6aQFXUrt9xyC7fcejtx/X/H/9R6LsdeMfkwhbPt8+cYfP8S1iwbRldDDJEd9PSevZWqgBqyidJVBdyZnEJmzzQSk/vz+NazDsFr+5znBt/PkteWMjTNQHTHCFJH/YNj5VuYlZdEbFQHojIms/GUo2C53l888ByvLb6PdIOOqA7R9HhoLeWKYPIVEFr1lvHahBySDPEkp8QRqe/JtI2VTnElUfvRYgYnRRAZE0N83xnMHZmM3j3j3Myx1ZPJMUYSrY+hY2Qy9z5RxOkAJwSh7N3/hzwGLjnkPlmwlTzPoD4L2e0UgE2lqyi4M5mUzJ6kJSbT//GtnHUylmo/YvHgJCIiY4iJ78uMuSNJ1ntmnLWOdeWHVLeRielGIm+7g+j4ZFLSxrOuSoKmUlYV3ElySiY90xJJ7v84W50Vh469Fnc53sN49pX59IuPRtfrGbx/h8bG588N5v4lr7F0aBqG6I5EpI7iH8fK2TIrj6TYKDpEZTB54yln/mjE0X6KzY/kkJSUQXa3JLqMe8vNzuU/hIq1jCJ4DDzlWNGMpSvP1yxjWFcDMZEd0PeezVbfBiPVsXFiOsbI27gjWs7NNMavq1JOSoPbEW7eN1I4rSvGqNu5PcpIsimXxQet0HyM1ZNzMEZGo4/pSGTyvTxRdNrZFlzxWMOyYV0xxETSQd+b2VurnCes4bcFDyuxJQgIAoKAIHCzEfhRhXPb6VcZGuMUzbJwVv5vJ/m3O2i82kiEKZyte+Zg6hBL39lFVJolLh18il4RvVh63F89mg88SVbnEaz+RlaDEnXvz6RbpwIK6yWQf/7a9DNi+81j2xkLtrNv8IAxCn3XYbz42UXaWo6w5K5Iuj95UJl9U+q9I4Ksaespb5FoLV/FMKOBB96sAbwFhGa9tnI+3PIZVU7B/c3fhqDLeppieXaudQ9z0nQMWFpMo2Tl3AeLyIu9DZ1TOJsPLCJL14eFu6qwItF45CWGxhsYvvacH31tey188HBnTLN2u2f/vGaNzQd4MqszI1Z/o3wv1b3PzG6dKCisR6KVPXPS0A1YSnGjhPXcByzKi+U2nVM4ax6rNtNKc9UGxselMnPbeep+aMKKmQNPZtF5xGocIavj/Znd6FRQiCNk2rHX5K7EO4KozKkUnrVht1hVVwxku+QYmvhZbD/mbTuDxXaWNx4wEqXvyrAXP+NiWwtHltxFZPcnkTUfGnG0fbaIjE4T+VeDo9zaczX4rWIJEWvC5hgilorfHYjtO5uiSjPSpYM81SuCXkuP+82EW5ur2DA+jtSZ2zhf9wNNsp+adoSf97bmagqndqbz1ELO1zXQ2mbmwKIsdH0WsqvKClIjR14aSrxhOGvPyWdojnh0iO3L7KJKzNIlDj7Vi4heS5GbenvagjrrxLYgIAgIAoLAzUXgRxXOTRvHEHmrSzB7Xm9Pncte/6vt7YtMO4RzavwUtrc6i7ceZGF3AxOKfKWJlQMLuqEfuYoTFRVUyP9laxgbn8a8T6wO4ZwazxRXQVI1q4dG0dstKGwUP51JdP4mWuRhfM8cUo2TeE9+o/y18G6BAcOUbT7COUS9rsNtTdSc+Y6vtjxMWtxktplBFlw9ooezzn1DlYWPZ5ucM85WPpnXBd3o9Vx0T/Cb2TUziZgxG12lul+17dUWW9YDC+imH8mqE05uFWWsGRtP2rxPsNo+Y1GPaIav+8G9RMby8WxMzhlnzWPd1jk3fJdqWA+woJuekatOOOJVUUHZmrHEp83DEbI5BI99CO6KgIxl5Ju1bru9zXGIwPgp23GklkT16qFE9XYINXlfW/HTZEbns8mdA8q6D7842suWc1dMT2ZsOElDwCshoWIN4XPUjqVygqjOc6wcXNgdw4QifzGP/1INbTvUwjkEfyzsejSZ5Ed3OU7WrJ8wr4uO0esveuJh3sXMpBjGbJRPw33jAdaDC+lumECRuX1twTvO4p0gIAgIAoLAzUTgRxXOrVsnYQggnO/I+h2fe61nvIKQtH2n3BzY/88V3jOBrZsZG9WNhQccylwRhAnTed+5pABbCc/01DG+0Fc4mymaoKNDYha5eXnkuf7vHsvKE3ancE5gurugetaNiKbPspPuS8XHlvQi+oH1yLc4+dWLlf3z04kc+aZ7kE+Y/r48Raddr1TNrmfvo1t8Z3rk5JKbnUSEfhJbzWDeNhlD4gz+7fIN9RrnFjblR5E6d69q/amdL5b1IWrw3/2Aa9urLbbMRRPQdUgkK1fFLe9uxq48gd28jcmGRGZ4jPRa46x5rK+VvsLZXMQEXQcSs3I98crL4+6xK3GEbA6pQWMfgrssnFPV8fY1xiMCXfjr140gus8yTjovZtiOLaFX9AOslxNCI47QQtn6uQw2RaHPHMnibadUMXPUqx1rCJ+jdiwdwlntt42SZ3qiG18YlnDWtsPDLGTe+wrnlk3kR6UyV33Gbf+CZX2iGPz3M15tyhUPW8kz9NSNp9DcvrbgG2nxXhAQBAQBQeDmIfCjCmcaP+Sx9Du41b1MQ17nHMldy476CYN2h0SqY+39UaQ/4X1jUtvpv3FvVB5/+tqhXvwEYVDhbOGjWSnoC95VZoz97PETUuEJ552uUZwW3psUh3HaDq9BXrkJSqNeeUlEuv7XrFTWIoDt0CIyDA7hbN09i5SYfDa5H0ZgZe/cVOeMs4Wd0+PRP1RIs9sZC7tnmdCP2+z+xLXh4hTYXnn2LwlZ6Lvckfd3zRpbPppFir6Ad9Uzq+6CdzMrJYZ8j5FY984l1TnjrHmsqwzXq2U7U11XAOTPLB8xK0VPQcCKA5y8eMW+vfF2GeF69YhAFxMt4awVR1eJ2Go4uGIEybHDWVvtvkygfK0daxmFRgzcFcgb2rFsn3C2sH2q88qCsw5tOzzMQuW9w07VjLNlJ9Pj9TxU6MlmLLuZZdIzbrNyqsqeOaleOeoRzu1rC164xBtBQBAQBASBm4rAjyucgZYv1vJwXid+duut3BbVhV89tZXTVzvbrISwjcqVQ4jpNIJVZU7FZjvH9kez0OUud8/6uQShe6LYSzypc0HiYmEBiYmjeP07lxSSuCw/LUHWMFcgnE13GLj3jweV9bb2M2/wQEIc+RtqfYSzdr3m7VOIS5hIkbIovInSFwahd844S3XrGWOIZ9Ra+QYpiYbiF/il8XbnGmeJ2o0PEhc3lJfLHIsJrJXryE9KZNzbsg3ef4oQDmqvnbLl/YjIfppDl0FqOMTzgw3c7lynLF0spCAxkVGvf+cW1tLlC1yQwUl1rB9jIH7UWuWmRKmhmBd+aQzvWG8TUYRSioGxbyuLgUG6SGFBIomjXscTssvKE08cIdOacdbm7h9vX2M8ItCVLVrCWSuOllNHOVHnONFrq1zBPdGDePm095oN7VjLKDRi4GW6diz9/daacZZPxFIwjH0bZ0RC2OFhJt9DoNnefGecpVo2PhhH3NCXcaSzlcp1+SQljuNt5WZjT9mueHiEc+i2IFXv4s/zl7Fdfvad+BMEBAFBQBC4aQn86MLZQV7C0nyJlmsimFWxtH7Dpkf7YYwwkJZ9Jz06xRDXexrrvvQsw7DuX0B306Psco2m9mMszYlnkrzWwffP/j1Fc/ph1KVw54CB5GWbSMhcwB75WOt+FnQ38ai7oEY2jDHQ/0/lzqUadk4+3w/DuM3KDK8i2PUDGDOiB53TMknVR9N13Fq+VlaQWNm/oDumR3c5LNCqt2kfi3MNGDIGMqjvzxkycxL9k6fjmBk2c2LlMJI76knNSic5ewLL591D0rQdDgFrP8U7M3ujj0yge3YGnXWJ9F+wg/MBtIG2vdB2djOTu0YQ2akb6am9mfrifO5x22Hn+6I59DPqSLlzAAPzsjElZLJAAQfmEysZltwRfWoW6cnZTFg+j3uSprFDiYn2sV4hkhr4YFY3OupMZHQfzatn27B/X8ScfkZ0KXcyYGAe2aYEMhfsUfwPGXst7n7x9rJEOflxxdCVWo0bxmDo/ydcv2tiP/k8/Qzj2CxPkmrEsXHnY3SNM9Grfy4ZCUZy5u2kxnvCWVnSoxlrwueoGUs/v+0cW5pD/KStAZZqSDR8MItuHXWYMroz+lX5CTRadrQj7+U1y3PTSJvj+TEf+6l3mNlbT2RCd7IzOqNL7M+CHeedS7U8ZbviYT+2lJx4x9UZQrQFW+kSeusyeUq5k9M31uK9ICAICAKCwM1C4AYRztcTt4S5toIjhw5xpKJW45mz4dog0VpTTsmhYo5WXKDVT8CEV457ptvcSnXZYUq/rnXPxgYuQaNeewOVRz/n2JlL3uu5lYIkLled5HDp10F+LbGNlvNlHC4uofxCgJMFpzFh2dtaw5eHS6n4IfCdnVJrDeUlhyg+WsEFH3DS5SpOHi7l6yA/6ah1rBcvqZmzx4s5XK7iKbVSU17CoeKjVFxo9dw85nVgsDca3IMdcqWfa8TRWl/JseJijgeMsavCULGGsDmGiKWrxtCvEs1nj1N8uJxal2KVl3Rr5IJ3me3k39bC+bLDFJeUo5HO3lW434XXFty7iw1BQBAQBASBm47ATSCcb8yYuoWoSkzcmJY6rPpvs/dGZilsEwQEAUFAEBAEBIH/TgJCOP9IcbN/sYoJD/7F50czfiRjwqj2v83eMFwSuwgCgoAgIAgIAoKAINAuAkI4twuX2FkQEAQEAUFAEBAEBAFB4GYlIITzzRp54bcgIAgIAoKAICAICAKCQLsICOHcLlxiZ0FAEBAEBAFBQBAQBASBm5WAEM43a+SF34KAICAICAKCgCAgCAgC7SIghHO7cImdBQFBQBC4RgQsjdQ1Bn504zWqQRRz1QQsNNY1hnhU6FVXIgoQBASB/yICP2nh3HL+S44ePcKRI87/oyc529TeBy/bOLxsEHm/33d9wmo7wvIhd7FojzyAtlF1YANv7f3e+aMp16dKdaltVQfY8NZevnf8MJ36K7F9jQhcT8a2I8sZctcilPS5DvlzNbZfzbHXCL1GMd7t2nZ4GYPyfq+x/zX+yl7Byl+lMPBPx286UXbD5UVbFQc2vMVev07Qznf/GEpK/+c5EvwR99c4MURxgoAgcKMT+OkK57bvWTn4Z0TEp5GRkeH4z+zLwv9p74OTPT/Ve12Caf2Ux9MMTHxP7plb2PFIGqZJ73Cxvfr+Co1r2fEIaaZJvPOfqvAK7fxvPsyXsa3krxT89jW+ugYnK9ZPHyfNMBElfa5D/vja3p44XM2x7annyvb1bteu55RfWVntPaqNs+tGkzXyNb69BjnQ3tp/7P2vXV7YKPlrAb997aurm2ho2cEjaSYmvXPR68eRpPPrGZt1P69WXOuftP2xIyDqFwQEgashcEMIZ3PVET4sfIf39n7FxWs1kLSd5m/3RpH7QqhO1UZTbTX15mBK1XuAdcBuw1xfxbmaS/hfaLXSWFNFXYu2I7bmWqovtiJ5CefgobQ11VLbpO7ArVyqqaK2OVA9Eq0Xq6lpsHgNBBDsc9967bTUVVFd3xrglwgd+8r2VNebfcp3fGe9VENVbXOAwSw8Nl7WWBupqarDH6eW/14lKG+uzF75F+4uUl3TgMUvPTTqD2qzwy7z9qkY0x7nU5/kaTPXU3Wuhks+nwfwhubaai62SngLZ/89IRhzjVywNVFb24Q623xLtl66wIVLnj0kcz01dS1B88XreLn86voAv+Kp1a7kEuS2WotXM1AXLLVysbqGBt9gtZmprzpHjRdY73YdTDgHz2V1xYG2tfoViaZz33C+JdBxjs/aw1fbxgDM7C3UVVVT39oW3ID2fhOyzAB2eNWh0Z6U/QLxNLN9qpG0xz/164c121KwPPGyB6w1x/i09CyXg2IKZJNPIeKtICAI/OQI/MjC2ca3G6aQFXUrt9xyC7fcejtx/X/H/9T6qZT2g9cUzjY+f24w9y9Zw7JhXTHERNJB35vZW6sCDPzeA6yt7DUm5CRhiE8mJS4Sfc9pbKx0iFf7qc08kpNEUkY23ZK6MO6ts/52S7V8tHgwSRGRxMTE03fGXEYm650zzjYO/9GxLETRTrbPeW7wMJ59ZT794qPR9XpG+cGUptJVFNyZTEpmT9ISk+n/+FbOOjt36Ye9LPtNF6IjY4mN0tHlvr9QaoFgn9sO/1G5RL3PKdaaj61mco6RyGg9MR0jSb73CYpOO/yzff4cg+9fwpplw+hqiCGyg57es7dS5RpYmkpZVXAnySmZ9ExLJLn/42x1GhYWGy9adk5tfoScpCQysruR1GUcbznL0vJfXcTV2Iv0A3uX/YYu0ZHExkah63Iff5FBAsHrD2yzh7FE3caJpBsjue2OaOKTU0gbv44qSxmvTcghyRBPckockfqeTNtYGeDEA6Taj1g8OImIyBhi4vsyY+5IkvWuGWfv/AnGPHAuONrEsGdfYX6/eKJ1vXimxIbHdnDxfG3pUNIM0XSMSGXUP45RvmUWeUmxRHWIImPyRk4580F9LEou38+SNcsY1tVATGQH9L1ns9WZPFrtSql32LO8Mr8f8dE6ej1Tog6z/APe/LB3Gb/pEk1kbCxRui7c95dSLNgoe20COUkGhXVcpJ6e0zbiaK7e7dpPOGvksk/lqrch+hXrfv6QN5Alh1wnHDZKnh9En4W7leUa7eWLho2BmTVzbPVkcoyRROtj6BiZzL1PFOFs3io/mtkx6+cMePaAZxmJvKTsF72Z829fta9dZiA7vPJCsz1p8JTq2DgxHWPkbdwRLbebNMavq0KyabWlIHliO8wfB+Xxe08nyOrJORgjo9HHdCQy+V6eKDrtbI8aNqkIik1BQBD46RL4UYVz2+lXGRrjFM2ycFb+byf5tztovFrminCOoMvoJaz6xz/4xz9eZfV7J2hSypUHTRMdYvsyu6gSs3SJg0/1IqLXUo77TeB6D7C28g/Z8lmVY0CxfsPfhujIerpYmQ37bFEGnSb+iwa5Dmst52r8F8a17plDmm4AS4sbkazn+GBRHrG36ZzC2VOXItGse5hjiiAqcyqFZ23YLVbazAd4MqszI1Z/o9gg1b3PzG6dKCisR6KZXY91wTD4RY5cksB8lj2vb+aIOdjn4BIM78sVmg+wKEtHn4W7qLKC1HiEl4bGYxi+lnNtjn1NHWLpO7uISrPEpYNP0SuiF0sVaGYOPJlF5xGr+UYuS6rj/Znd6FRQSL1kIxw2XiG3fcaijE5M/JdCE2vtORScmv57laD4dmX2QvOux+hiGMyLRy4hYebsntfZLC901Ko/iM1ejK3NVG0YT1zqTLadr+NT9tIpAAAgAElEQVSHJivYyvlwy2dUOYLON38bgi7raYpd+srtVit75qShG7CU4kYJ67kPWJQXy206l3BW508w5sFywdEmIqIymVp4FpvdgtUZ89SE6cj5Ifth+lks/eZt44zFxtk3HsAYpafrsBf57GIbLUeWcFdkd5486DgL8/ZbzuUOxPadTVGlGenSQZ7qFUGvpccVQRK8XTnrjYgic2ohZ212LLJh6r/mXTzWxcDgF4/gSPs9vL75CGZslH+4hc8cYLF+8zeG6LJ4WgHrYSUX5bLVUaxWLqsr9t12MAzar1g+4OHOJmbtVgIt18qnj6dhmPgeck/RPr7aNipl+TAzH1hElq4PC3dVYUWi8chLDI03MHztOR9HJGr/92gMpsf4n1bHV9ZDT5EZN4b1dd6TGqHKDGSHi7Wrzwnen2nztDZXsWF8HKkzt3G+7gfkpqTZloLlidzPpiYw3WEQBxZloeuzkF2OTpAjLw0l3jCctXIniLZNPiDFW0FAEPgJEvhRhXPTxjFE3uoSzJ7X21Pnstc5A3rFzBXh3BFjzkgKJkxgwoSJTFmyg2ql33cMmvFTtuMcF7AeXEh3wwSK/LSuY9+E6e97mWJrquHMd1+x5eE04iZvA+yULb+LmJ4z2HCyIcDMtXy4LGZ6ED18HT+4xh/Lx8w2uWacPXU5NJQsNmIZ+Wate0mE9cACuulHsupEBRUV8n8Za8bGkzbvE6xWuSwD47c4Tg/cBgf7XCUYFGH0yTy66EazXrXe2bxrJkkxY9jY6BQX8VPY7oHGwu4GJsjQrAdY0E3PyFUnnHZVULZmLPFp8/jEGg4bt7WODXsZy++KoeeMDZxs8AglTf99ilAG6Cuy18rHs00Yxm9xnmh5CtasP5jNe+bgEp9yScGWamBroubMd3y15WHS4iazzTcXZWHeI5rh635w54Pl49mY3DPO6vwJwjxoLsjHmogd+SbqCz5qkePLU6pezdCo3s4TJzm9i3k6M5r8TY5ZSfWxKOIknime5OHgwu4YJhQpotFF2L9dOQVl7EjeVBvmOkDOYZmBYTy+ae/ZxUZTzRm++2oLD6fFMVkB62El7+eyVTlGM5c9pfpvOcoM2q+EIZxTVfmqyTeEjbI/Ji9mVj6Z1wXd6PWq+yfM7JqZRMyYjf6uNLzLhIRkZrwvx9LKZ09mkDB+C/Vee4Yu098OD2ulz9HqzxSRmkpQngRfqhGoLQXNE7Vwtn7CvC46Rq9XrXc272JmUgxj5E4wpE1egMQbQUAQ+AkS+FGFc+vWSRgCCOc7sn7H536zbe2kr7lUwzNouuZ+bCXP0FM3nkJfseLsKF3CWarexbP3dSO+cw9ycnPJTopAP2mrw7iWMtbPHYwpSk/myMVsO+Wr/s1sm2wgcca/PZdAvdY4+9il7tCd7puLJqDrkEhWbh55ea7/uxm78gT2lk3kR6Uzf79PvcE+VwkGeRBr2ZRPlM9Ji/2LZfSJGszfz7S5xYUyMSPbYyvhmZ46xsvQzEVM0HUgMStXZVced49dyQl5Fj8kG//4tpStZ+5gE1H6TEYu3oaMU9N/nyJcYqj99rawKT+K9Pn7/dZOhqo/kM2+dvgJZ6maXc/eR7f4zvTIySU3O4kI/SS2+uaieRuTDYnM+Lcra/FZ4+yTP4GYB80Fn2OdLNW2q7eVr+vXMSK6D8tOOi/T2I6xpFc0D6x3XtdRnzD45bKNkmd6ohtfqAhnrXblV69PnJW8TZ+Pb9rLSziqdz3Lfd3i6dwjh9zcbJIi9ExSwHr8lYtz1aEUHSqXfer3vPWU6YqQV78SjnB2zu4rZWrxDWGjyx937uPI6dS5e1U5beeLZX2IGvx3jwvurWbefziFTlO2cslygIU9OjNl6yX3t46N0GX62+FhLdum3Z5C8AwknDXaUtA8Ueem0j5SmaueubF/wbI+UQz++xm3cJbHg4Ax9iEk3goCgsBPj8CPKpxp/JDH0u/gVvcyDXmdcyR3LTuq6tyvEPp1Ec7ypdV09L9e6ViOgI1DizIwuISz01RbzUFWjEgmdvhaH+Ot7J6VQkz+Js9MpnUvc1M1ZpzdlxAdRVk+mkWKvoB3fZcayl9bdjDNaGTy1sve9Qb7XCUY5EHMsnM68fqHKGz2HG7ZPQuTfhybm7wHPGUPtXC2fMSsFD0FAQ3zlBecjWcf7y0bNQdXMCI5luFrq9H03/tAtxhyi4ew7bWwY5oR4+St+JAMs35vm33Fg2X7VOdMvMNg+Qa/dP2vWamscQHboUVkGAIIZ+tuZqXEkL/Jc0XBuncuqQFnnD0wvJgHzQV/kSKXoLZdva2UriXsfI51zDi7LofLR6uFs3a78qvX45qyZdkxDaNxMr5pj3xSmq7n1ysdy5qwHWJRhiG0cA4zl33MCC2qLLt4NEnNQGZuQq9aqqG+MoEW3xA2+jOzsHN6PPqHCvE0bwu7Z5nQj9vs74p8ZWTvPNITHmLjjifobpqB3/JmQpfpb4d3Tmm3Z/+c9DoRwcL2qc6rbU4PtNpS8DxRLdWw7GR6vJ6HvDtBZpn0jJM7QdVEihDOAdNGfCgI/OQJ/LjCWZ6I/GItD+d14me33sptUV341VNbOX21s81y2JzCud+y4zS3ttIq/5st2FRLNcKbNfB03sgzHFPiSJhY5FiD3VTKC4P0zhlnC6eOnqBOmXxro3LFPUQPetkngSTq1o/BED+KtfIdOVIDxS/8EuPtGmucfYSzdLGQgsRERr3+nXvGQ7osP+FAAqmGdaMMJI5+w8HQXsu+V15l9/8J8rlr+YVzlkuq3ciDcXEMfbnMsYTFWsm6/CQSx72tXL73GwTVQlS6SGFBIomjXuc714giXebCBXmNcHA2lmNrefIPb/O179pyyymOnqhz3JDTVsmKe6IZ9PJpNP33oX3l9krUrBuFIXE0byjJaKd23yu8urtRu/4gNvvaIZ+MpBjG8rZj+Tbm7VOIS5hIkbKwv4nSFwahDzTjLNWxfoyB+FFrlRu6pIZiXvilkdsDrnEOwjxYjjR68twVPhmn2nb1toJaS9j5HKstnLXalbcNPiFW3ko16xhlSGT0G6eVJ4HYa/fxyqu7aTRvZ0pcAhMdYP//e+leYJA+jBlnzVyGoDkbSlTJS3n6RZD99CEuI9Fw6HkGG25HdyXCOYSNfrFConbjg8TFDeXlMsdaK2vlOvKTEhn3dm0grGAt5ndZsaR3TSZt1kfuZW2enUOX6W+Hdzy127N/TvoKZ3kiwjD2bcd9JcoyqOBtKWieqGecpVo2PhhH3NCXcWCyUrkun6TEcbytLBUKYZM84/3n+Szb/n2Q5XoeemJLEBAE/jsJ/OjC2YFNwtJ8iZZrIZhdcZCqWXN/tN9s9qi35FV6VvYv6I7p0V1u8Wk/tpSc+ACzfKp95aKb9i0m12AgY+Ag+v58CDMn9Sd5+k6gkZ2PdSXO1Iv+uRkkGHOYt7PGZY3n1XyClcOS6ahPJSs9mewJy5l3TxLTdshyxccu634WdDfx6C61lLHzfdEc+hl1pNw5gIF52ZgSMlmwx7GP5ct/kp8WSXTnHmSajJiGrlAe3h/sc+v+BXQ3PYqjCjun3plJb30kCd2zyeisI7H/Anacd6wx9t5XXtZ9jKU58c4ZPLB/X8ScfkZ0KXcyYGAe2aYEMhfswRKUjUTt678hotNMZ/0eTDTu5LGucZh69Sc3IwFjzjx21shnPdr+q0rgyu2VZ++/5J/5aURGd6ZHpgmjaSgrlF9B0Kg/iM2+dkgNHzCrW0d0pgy6j36Vsw37WJxrwJAxkEF9f86QmZPonzydneqwOx0zn1jJsOSO6FOzSE/OZsLyedyTNA0lfbzyJ3g+Bs4Fn9xz1qe2Xb2tfN24gTGG/vyp3HnWYz/J8/0MjNvsmNP02t8vl+0cW5pD/KStylKN4O0K/ziqg6xsW/jyn/mkRUbTuUcmJqOJoSvkmwOb2Lc4F4Mhg4GD+vLzITOZ1D+Z6QpYj79yES5bXUUHz2WNnPXi7yjJu19p4+zmyXSNiKRTt3RSe0/lxfn3KP2H0vq92qLcpWjzDW6jxx/vruMU78zsjT4yge7ZGXTWJdJ/wQ6czdvluupVXsrRl5/dns4TnwZIRnlPu3aZLq5qO7w/02hPIXlKNHwwi24ddZgyujP61bO0NWm1pSB54pOb9lPvMLO3nsiE7mRndEaX2J8FO847hbAnb1xEvGJsK2VJbx2ZTx28+qumqkiITUFAELhxCNwgwvnGARKOJfaGSo5+fowzlzw3rTmOs1JfeYzi4uMBvlOVLF2m6uRhSr+ucwt31bdhbUqtNZSXHKL4aAUXWl13GjoPtdRRUVpMyde13uUH+9ynxraW85QdLqak/ILXjVs+uwV+K7VSU17CoeKjVFxodd/EJp8U+LGRatjwYAq5z5UGrsdaT+WxYoqPn8EXtab/gS0L/GlQe+XdLdRVlFJc8jW1rlHSWUrQ+jVsVhsgNZ/lePFhyl0F2xuoPPo5x85cCjlTJV2u4uThUr6u8zFKXYGyHYC5a58wc8G1+3/iNXi7Cq92S10FpcUlfO1iqhxmp6HyKJ8f88+hkKUGyo1QORuyUGit+ZLDpRX84HMrQhiH+u8SyEb/vVSftNFyvozDxSWUX/BdRK/aTdmUqF47HH3Gk3ymaWt7yvStw/E+aHsKvLvqU4nms8cpPlzuaaMh2lLgPFEVKW+2tXC+7DDFJeWExORzqHgrCAgCP20CQjj/tON7Q3tnO/YcA/ovpcT1lI4b2lphnCAAN1XOtp3mlSExZD5drPljOCIvBAFBQBC4mQgI4XwzRftG89XWyuVruTznRvNP2PPTI3Az5eylf/O7YZNYXeZ7A8JPL6zCI0FAEBAEwiUghHO4pMR+goAgIAgIAoKAICAICAI3NQEhnG/q8AvnBQFBQBAQBAQBQUAQEATCJSCEc7ikxH6CgCAgCAgCgoAgIAgIAjc1ASGcb+rwC+cFAUFAEBAEBAFBQBAQBMIlIIRzuKTEfoKAICAICAKCgCAgCAgCNzUBIZxv6vAL5wUBQUAQEAQEAUFAEBAEwiUghHO4pMR+goAgIAgIAoKAICAICAI3NQEhnG/q8AvnBQFBQBAQBAQBQUAQEATCJSCEc7ikxH6CgCAgCAgCgoAgIAgIAjc1ASGcb+rwC+cFAUFAEBAEBAFBQBAQBMIlIIRzuKTEfoKAICAICAKCgCAgCAgCNzUBIZxv6vAL5wUBQUAQEAQEAUFAEBAEwiUghHO4pMR+goAgIAgIAoKAICAICAI3NQEhnG/q8AvnBQFBQBAQBAQBQUAQEATCJSCEc7ikxH6CgCAgCAgCgoAgIAgIAjc1ASGcb+rwC+cFAUFAEBAE/rME2rh8sZYGs/SfrVbUJggIAteEQHjC2VxF6fsbeP2fb7Dl46+4aL+CutsaOfPVaRqCHGs7spwhdy1ij/UKyv5vOaStigMb3mLv90Eg/Lf48WPaGYLhjZNHNo4sH8Jdi/bwU07p/2Qq2A4vY1De7695lTdOzgR37Uaw0Yt/iHYY3JMr/8aLwRXW31Z1gA1v7eVH64Lt37JufDq62EQ6Zc5l93XpHNqoOrCBt/Z+z09mpLEdZtmgPH6/77oAu/KkvOZH2ji8bBB5v98XumTbEZYPuYtF10M0Xc+yNT3z+N/uSEtNnNy2jm0nm7jep6QhhXPz0Vd4sGssCXfex/hJD3F/n2QS+j3Lgcua3vt92Xb6ZQZF5fJCeeCmbP30cdIME3nP7HfoDfKBjZK/FvDb17668s6oZQePpJmY9M7F6x7YGwTatTcjBMMbJ4+sfPp4GoaJ73HDpvS1j851LdG6Zw6pCdOveR03Ts4Ed+1GsNGLf4h2GNyTK//Gi0FY9fv32S07HiHNNIl3LoYztPoff+XWO460H19Kr+hfsur7NrDbr3ws0TSkhR2PpGGa9A5hualZ1g3ypXUPc1ITmP6+5QYx6HqZYWXPnFQSpr8fugLrpzyeZmDi9RBNV1i2reSvFPz2Nb4KLPNC+4TH/3ZH2n6c5Xcnc++fT16nduUxX1s4t+zliYxIsmb9m5o210HNfLltJ8dbXe/De207/TfulYWzF1EbzbXVXGyV8OoU3UVauVRTRW1zsChYuXThApdsrgMkzPU11LW4jXV94f3aZqa+6hw1l4Kd09hoqq2m3utSmpntU42kPf6p/wyi9RI1VbUEM9PWVEttk9tIb1vkd/YW6qqqqW8NYretidraJjRK8C5TLq/mIgGLa7etdlrqqqiubyWIde66pdaLVNc0YPEdk0L5RyDejmKtjTVU1bWEaAgh8qi9Pl9Rfjgx2Jqprb5IqxREOIdk4cLp8cn1SbteQ/jcnrLk/K2uN4c42bvGbTVADnsJN7cDGvVqxtHDN3DfE37ey6bYW+qouRi6jbjNdm9o2E8oG7WOdVfg2AjQh1gv1VBV2xygbbVhrq/iXM0lr74uMH+fegK91YwDEMA2TzGhGHj2xNpITVUdLe7hQqPPVh2mbMo2VNfj1eUT7PjAfBxFWmmsqaLOY4RXTZaPHiMl6RE+bLcqkDEFa4cSrRerqWmwaLfRMPqe4HVA8HzR9tnFRXssDz4GKMcHEs6h8spF3i8vXF9ovwYdz7QPkxOaptpaPEN+ED4B7fcIx2DV2Jprqb7YihRE3Mp9UVV1feDxXy40YK47agtVdvAccBxv3j4VY9rjfBpIWvm28xD+W7A79aG/8mgz11N1roagEs4NT6utundq94amcG54ZzwGQz4b6nyVULvrwVc4S7UfsXhwEhGRMcTE92XG3JEk6z0zzk2lqyi4M5mUzJ6kJSbT//GtnFX42fj8ucHcv+Q1lg5NwxDdkYjUUfzjWDlbZuWRFBtFh6gMJm88FUDo2Sh7bQI5SQbik1OIi9TTc9pGKpWO1lXuGpYN64ohJpIO+t7M3lpFm1THxonpGCNv447oeJJT0hi/rgqJJkpXFXBncgqZPdNITO7P41vPOuq1fc5zg4fx7Cvz6Rcfja7XM5RcPswfvS43NXNs9WRyjJFE62PoGJnMvU8UcVplz7BnX2F+v3iidb14pkRDOsv1/eIBnnttMfelG9BFdSC6x0OsLXf10O201QbNx1YzOcdIZLSemI6RJN/7BEUO47wTQPqBvct+Q5foSGJjo9B1uY+/lMr1hvbv/iUBeMul20+x+ZEckpIyyO6WRJdxbznib/NmqJ1H7fX5CvNDoSFR+9FiBidFEBkTQ3zfGcwdmYzePeOsxcIHZ93H/F9DkomU24axN9Nfepb8fgv4SEZq3c8f8gay5JArF2yUPD+IPgt344i0hs/qakKUY/v8OQbfv4Q1y4bR1RBDZAc9vWdvpcq/D+OatdUQOewr3LTqDd7OQTtnws97mdEvHniO1xbfR7pBR1SHaHo8tBZHk7Oy/w95DFxyyH3Cayt5nkF9FrLb2SSD2x/aRq1jPWF29Gl+fUhTKasK7iQ5JZOeaYkk93+crY7OFVvZa0zIScIQn0xKXCT6ntPY6Ogg8eKvboe2Ypb0N5GcnOz4T+nBY9vlS5Kh25OfbR7jteOkrh87pzY/Qk5SEhnZ3UjqMo63ztQE7LMth/+oLPdRrvgrffT9LFmzjGFdDcREdkDfezZb5SQP0udbNPjYT23mkZwkkjKy6ZbUhXFvnVV5A42F0+hqjOL226MwJpvIXXwQ61W2Q+mHvSz7TReiI2OJjdLR5b6/UGqxcfiPjsv9Dv2i3feEbOsa+RLKZxlA8FzVGHO9yMn9nnrGWSuv1AcGyAs5z0MwJ9h4FuI4heOwZ3llfj/io3X0eqaEwHy07NcQzlItHy0eTFJEJDEx8fSdMZeRyXrPjHPzMVZPzsEYGY0+piORyffyRNFpx4mxVq7LyEKVrZEDDuISdRsnkm6M5LY7ohV9lTZ+HVVSoD7osoYOc/hvHP4kf7gvDYMuig4xWUxa97XjJN5WxmsTckgyyDosjkh9T6ZtrHT4KFXx1kPZTNxQo5xAavVl6iy5km0N4WzlwMJuRNyzgsoAg2V7K/MWzq3smZOGbsBSihslrOc+YFFeLLfpnMLZfIAnszozYvU3ihiQ6t5nZrdOFBTWIylT+SZ+FtuPedvOYLGd5Y0HjETpuzLsxc+42NbCkSV3Edn9SQ76nfXYKP9wC59VOUYu6zd/Y4gui6eLZREiB8xEh9i+zC6qxCxd4uBTvYjotZTjdrA2V7FhfBypM7dxvu4HmqxgPvAkWZ1HsPobuTyJuvdn0q1TAYX1kqOhmyKIypxK4VkbdouVNq/GLx+/iCxdHxbuqsKKROORlxgab2D42nNueyKiMplaeBab3YJVKw5y2aY7iMiaxvryFqTWclYNM2J44E1qpCuw1XyARVk6+izcRZUVpMYjvDQ0HsPwtZzzsaN512N0MQzmxSOXkDBzds/rbD5iDsu/YLxtny0io9NE/tUgZ5qV2nM1jiUPXgy186jd8eHK84PWPcxJ0zFgaTGNkpVzHywiL/Y2dE7hrB1rdWtqZc/c9OBtw/IBD3c2MculvvCe2db0WV1NiHJkkWTqEEvf2UVUmiUuHXyKXhG9WCo3BvXftWyrIXLYS7hp1qsVR+2coR15rzC6I4Ksaespb5FoLV/FMKOBB96sASx88HBnTLNcJzR4X1XTtD+0jcH7R3VwHH2adx9i5sCTWXQesRpHt1XH+zO70amgELnbspV/yJbPqhwnYdZv+NsQHVlPFyuFevH3aoc2Gs5+Q0VFBV8UPkqG4V5WKEvytOIQyDa17SEYqOu3fcaijE5MdHQWWGvPUWMO3Ge7fFCu+Cv51oHYvrMpqjQjXTrIU70i6LX0uDIQB+rzg/Ox8dmiDDpN/BeOLquWc7IR6j9bM9WFU+nceSqF5+tokC8JXlU7bGbXY10wDH6RI5fkTv4se17fzBGzQ3zIl/vlkSlU36PkcdC2rpUvYfismefaY64ana9wDj6Oq44KkhehmAcbz0Idp3CMiCJzaiFnbXYs1v83SE6EaheBl2q07plDmm4AS4sbkazn+GBRHrG36ZzC2cyBRVno+ixkl2PA5shLQ4k3DGetPGCHyPWQZWv0GW7i1maqNownLnUm287X8YMskpy6yrsPCuW/ids7ZvHbTV/TIrXy1Su/wWgYzf++oHRQfLjlMxwSzso3fxuCLutpFAnXdpq/3RvNL1Z+r0xeBm+rbouveENDOFt4/7dGIu5fyw9XP+HsPeMsJ3SPaIav+8F9acny8WxMzhln64EFdNOPZNWJCqUzrqgoY83YeNLmfYLVuQYmfsp2HKtFJKpXDyWqt0PgyiRsxU+TGZ3PppZgXGw01Zzhu6+28HBaHJO3yR2co7PxlAvWgwvpbphAkdL/+V62s3JgQTf0I1dxosJpZ9kaxsanMe8TqzNRYxn5Zq3bR+/Gb+WTeV3QjV6vWodmZtfMJGLGbHQnXOzIN6kNh78ykBiZ9J7H6ZZ3CzAYprDN3H5brZ/Mo4tuNOtVi+TMu2aSFDOGjY1qrlY+nm3CMH4LTeqPCce/VILxtpct566YnszYcJIGtVD3HTCD5lH7ffaY3/78kIV+j+jhrHM3FovCxTHjHIqFp2ZCtA3tzjuEz6pqtMuR03cOqfFT2O5akmU9yMLuBiY4GoO7pGvaVjVz2GmTc42zdr0u8wLEMQTf8PPeaY9xEp4m18K7BQYMU7aFFM6a9oeyUbN/dPkuvzqEiVcfYj3Agm56Rq464exbKyhbM5b4tHnI3Zbrz9ZUw5nvvmLLw2nETZb98ebv3Zc5j7J+wZ/ujidv2VHn1Q93aUH6WxNetrl2l19DMPCq317G8rti6DljAye9OgvfPtvjg1s4p8YzxZPkHFzYHcOEIud9Cf7Hu0z052OnbPldxPScwYaTDQGudjqOtOx6lOTkR9nlvOpwVe3Q+jGzTQbGb/HueV1jmUM4h+57NNu6Zr6E9lkzz0OOuS7aSvIFWOMcoH2rDiFYXmierAQbz+QmrT1poQjn2JG86R6wQ/EJZL/npEftinz15rNFPYgevs6jxyxy/J0zztZPmNdFx+j1qvunzLuYmRTDGHnAVvrWYLkequzw+gzZXv+lGgH6ILdjwf03TnoP9210ze/ykD6OqdtVJ6K2JmrOfMdXWx4mLW4yioTzEc6uavzbquubK3/VEM5W9j2RRscBL/GNWrhcYV1eM87mbUw2JDLj367ew3s2xlw0AV2HRLJy88jLc/3fzdiVJ7A7G5vrbFo2p37dCKL7LOOkczLMdmwJvaIfYL1vf4JE9a5nua9bPJ175JCbm01ShJ5JWz3CWV2ureQZeurGUxhQOJspmqCjQ2IWuW4b88i7eywrT8hT1OpLS05oXp+1sCk/itS5e1XrCO18sawPUYP/7hz0HGeeHkoa8L3Kduxn3T+f9MiRvNnQfltbNuUTlTqXvarB1P7FMvpEDebvZ9QJ4fAjff5+lR9y/e33z5t3C2Xr5zLYFIU+cySLt51ylK/2UzOP2u+zfNXgSvPDvG0yhsQZeFJaPRMcioUqrpo+heq8Q/isqiacQUC+Ec99L46thGd66hjvaAzukq5pW1XH1lmDJ4c9okf+SrtejTiG4Bt+3nvscTPCyv756USOfDOkcNa0P4SNmse6IyNveAZhdx9iLmKCrgOJWbmqvjWPu8euRO62pOpdPHtfN+I79yAnN5fspAj0k7YqpSoCy3Vzpl+sbHy1YjDxOYspdp1stbM9eZkegoFv/9pStp65g01E6TMZuXgbp5R+y1/4unzwCGf1DWc2Sp7piW58YVDhrMWHljLWzx2MKUpP5sjFbHMY4eXWFQnnYO2wZRP5UenM36/qpB2Rct9gZgnZDwfIY3VbD5EvoXzWzlX//PQeA1TovPJNo32rDpE3A+aFpgAONp6F6nsDcHQYECAntOz3MPF2xcy2yQYSZ/zbc1KqXuOs5EIqc70HbJb1iWLw38/IxvmceKhzPSXNZG0AACAASURBVETZoXJAZWhg4eyrY8Lz391nWfcxPz2SkW81yB0Uu569j27xnemRk0tudhIR+kkoEs5HOGu2VZXNV7KpIZwlftgwhljd/aypCmfKU7t6L+Fs3c2slBjyN3mUrXXvXFKdM86Wj2aRoi/gXc/kqapwT2K5wIYtnOVES9fz65WOJSDYDrEowxCmcLawfapr1ls2x8JHs1LQF7xLYDN9E9X3rNnCzunx6B8qpNntnYXds0zox20OPOi59wuw4WoYO11UoOW9ScQZp7HD3H5bLTunE69/iEKPcVh2z8KkH8dmT9gUDjumGTFO3uo5Q1TMa79/ATtNWw0HV4wgOXY4a6udS2Bcd1dr5lH7feYq8sO6exYpMfl4UtrK3rmpzjXOoVio4qnpk4x7F48mqQd7uT2Y3PVo5qSqGu1yAgwC6sFUVc41bauaOeyxSa5es16tOIbgG37ee+zxNLkW3psUh3HaDqVd7Ho0Sbk73tUilRmpcPq4UDZq9o+q4AQSzpaPmJWipyBg5yqf7KWj//VKxzIObBxalIEhDOFs/+YVfh2fzaL9qg5DKw6BbPMyXXuM8BcC8sE2ag6uYERyLMPXVisx8O6zPTELTzj79vnafFzm22oOsmJEMrHD17o+cr/6C2et9uxjr+Ki6gTWsoNpRiOTt7rn5pz1qMfI0H2P18mEXx1a+eJ2i2A+a7bTADkQcAyQq3H1DXLgNPPKY5NnyycvQvShgcezUH1vgFh5DPDmo2m/J3aqwxU9sHtWCjH5mzxXdq17mZvqnHG27GR6vJ6HvAdsZpn0jJMHbDU/pWC1cLaiXXZ4OSAXa9k+1efqlccfVz+oHT/X/js9JwiXtzLZaGTaDrOy3C1d/2tWKuvMwHZoERmGQMI5vLbqzTj8dxrCWV7Vv5s53X6G6cHXOOnqD1u+Zfuf/soHdXaqd/2Z+cu2Iz9ZJ9Sfl3CW6lg/xkD8qLXKjXBSQzEv/NLI7c41ztLFQgoSExn1+ndueNLlC1yQ13EFaGxhC2fzdqbEJTCxyLHWoKn0BQbpw51xlkVtCoaxbzvWsCFxsbCAxMRRvP6dKyUkLstP+VDMDCWcJWo3Pkhc3FBeLnNM0Vgr15GflMi4t2sD+ikzthxby5N/eJuvfZaaKg3DdAeGe//IQXmxov0MbzyQQFz+Bmql9tsq1W7kwbg4hr5c5lgSY61kXX4SiePe9lk6IlGzbhSGxNG8cVpeK26ndt8rvLr7/7TbP3WnaTl1lBN1DifbKldwT/QgXj7tXKvlEs6aedR+n7mK/JDq1jPGEM+otfLNGBINxS/wS+PtzjXOoWKtaj2aPsl4y1jeL4Lspw9xWa7n0PMMNnjq0cxJVTXa5QQYBIII52vaVuXOPWgOe2yS3dCsVyuOIfiGn/cOe0x3GLj3jweV9cH2M2/wQEIc+Rvk9itfpu1HRPbTHLoMUsMhnh9sCK+PC2WjZv+oDrJrEHKsdVW+kS5SWJBI4qjX8XRbl7lwwXF/wvYpcSRMLELpIZtKeWGQPvSMc9tpXrs/ge6Pvc+F1lZazWbH/RhacQjQj6stl2/O0xojvISA5RRHT9Q5bhBqq2TFPdEMevm0Ipy9+2xPDoUrnL2PNxOcj4VTR0/g6LLaqFxxD9GDXvZySX7jJ5w127OPvXIB6nYo1bBulIHE0W/g6Hpr2ffKq+xuVMc9dN+jKZw18yW0z5rtNEAOqMcAL3hq4aeZV6qjguWFJvNg41ljiL43QKwIwkfTfk/sVJ447qFaPwZD/CjWyjfoSw0Uv/BLjLc71zhLtWx8MI64oS/jkBNWKtflk5Q4jrflpSNqfkrBauEsUadZtlaf4W2lPLmWYhjL28pCf/k7jz8ulRR6nDVxh+FenjsgLzuxc2bdAyTE5bOhVsK8fQpxCRNxSLgmSl8YhD7gjLNWW3VcWfvz/GVsD0e8eruovNMWzvKljhOvM6WXgZ/Fmsi6MwuTIZ47C1Zz3GyjdElvdJlPBbgJz7+mtrP/4Ff6gfzFue7DfGIlw5I7ok/NIj05mwnL53FP0jR2KHTtfF80h35GHSl3DmBgXjamhEwW7JG/tLJ/QXdMj+5yi+rGDWMw9P8TrkdE208+Tz/DODa7xL7bnCb2Lc7FYMhg4KC+/HzITCb1T2a6MmXkX6792FJy4p1nM7JI+WAW3TrqMGV0Z/SrZ2mzf0/RnH4YdSncOWAgedkmEjIX4DBzPwu6m3jUvZhNNt3nM/sp3pnZG31kAt2zM+isS6T/gh2cV05E/O2RlxLUvv4bIjrN9KyRc/mmNAw9A8aMoEfnNDJT9UR3Hcfar52X8dprq3yn+jsz6a2PJKF7NhmddST2X8AOh3GuWh2vli/5Z34akdGd6ZFpwmgayoojZuXJGO3xT827cedjdI0z0at/LhkJRnLm7VRucvRlqJlH7fb5avLDzImVw0juqCc1K53k7Aksn3cPSdN2OPJUM9beOBWfkhxto2tKT8ZOv48k9xNn2ji7eTJdIyLp1C2d1N5TeXH+PSRPd56ha/nsVY12Odb9C+huUq3FtB9jaU688+qMuqBr2FZD5LDLJkftWvVqxRE0c6Ydea8IDv0AxozoQee0TFL10XQdtxZXk2s7u5nJXSOI7NSN9NTeTH1xPvckT8cxQ61lf2gbg/eP6tgE6kPA/n0Rc/oZ0aXcyYCBeWSbEshcsEfJ06Z9i8k1GMgYOIi+Px/CzEn9ldySS/Xir+7LWgoZH3Mrt9xyi/P/Dn7+7FF55qVd/a3acnlbM07q+ht38ljXOEy9+pObkYAxZx475TuiA/TZZnVeq8tQKrdzbGkO8ZO2Opdq+Pf5DUH5NLLzsa7EmXrRPzeDBGMO83bKN4l6/1n3zCUtbY7qh76urh1avvwn+WmRRHfuQabJiGnoCuXmQK8xMkTf44qre6jyaevB8yUcn7Xy3D8/1WOAFzmvWGnlleqooHmhzZxg4xnax/lxJBgfLfs9TFSeODbNJ1g5LJmO+lSy0pPJnrCcefckMc0hmrCfeoeZvfVEJnQnO6MzusT+LNhx3rHe3oufXJxProcqW6PPUNspNXzArG4d0Zky6D76Vc62efxxC+cQ/cK+JzLImTCX+7sm0iUzFX1UOmPXOJ+q0bSPxbkGDBkDGdT35wyZOYn+rj7VZ6mGVl9mK11Cb10mT/k/QULtTtDtkMLZcaSZCxVHKP78GN/WqRZoBy02vC+ky1WcPFzK13UepOojpdYayksOUXy0ggutV79cxFG2nYbKo3x+7AyXwpgpV9sjd8TNZ49TfLicWrfJEq015ZQcKuZoxQXab2YbLefLOFxcQvmFEGylGjY8mELuc6XOjl1lnfuM0kxrdRmHS79W2ejar/22trWcp+xwMSXlF/zrdBWrvFqoqyiluMS33nb451UeWOsrOVZczPEzl4LebCMfop1H7fX56vLjctVJhX3glA6fhdRynpOfH6a81oIlwI8DtdZ8yeHSCn7wXd6oMAzfZ+1yfAKi8faatNWwctjbiOD1asdRO2cgnLx3z9SZW6kuO0zp17Xuk3m3la01fHm4lIrAgSK4/aHyGs1j3fUH25BaqSkv4VDxUSoutHpuYJaH1IZKjn5+jDPt7yAD1KYdhwAHeH0UKk7una31VB4rpvi4b78eqM92HxXGhv/xwflYqa88RnHx8Xazu6p2aKmjorSYkkD55/Yw/L7HfYh6I2i+hOezVp6rqwl/O8y8CpoXoM082HgW6jhfD4LxCdN+3+Kky1SdlPuaOv++Rt63rYXzZYcpLiknlJzwLZpQZQfNAe+SpOazHC92jF3e36jfheH//8fem0BHVaX72/eqSOaqTJCkQsKQBFoIU0CUiLehmQUBGSLQKMooINqt2EAD2v2prY3opVFELqAI3chkIy0NS2UKJBBwEY14hQUCyVckkC/TCql/Vf0rtZ5vnVPTqemcCgEF2ayldSp19t7vft53v/t39tmnStaHAXSRrYozx49Q5KsLGr/n1d6R/Pq/y9z5LPhYVdrS9OMQhXPTKxYlbjwBa9FievdaRIH74RtFG27R4Vb0ig/F4e1MIPAPdNzOPQpi+20Ww27hLIZcEIeKPwsCgoAgcPMJ2MtPsGvtHHrFpDJDvuV/c9sUwvnm8r2xtVsbuOb63Qvfmm1fs2Lco7ym9iMpvmXE+9uCgK34HcYPf4XDAVeXb4suhGbkbRbDtq9XMO7R1xBDLjT3irMEAUFAELgZBKyFf+HRh/szbvEu51bXm9GKp04hnD0sxJEgIAgIAoKAICAICAKCgCAQlIAQzkHRiA8EAUFAEBAEBAFBQBAQBAQBDwEhnD0sxJEgIAgIAoKAICAICAKCgCAQlIAQzkHRiA8EAUFAEBAEBAFBQBAQBAQBDwEhnD0sxJEgIAgIAoKAICAICAKCgCAQlIAQzkHRiA8EAUFAEBAEBAFBQBAQBAQBDwEhnD0sxJEgIAgIAoKAICAICAKCgCAQlIAQzkHRiA8EAUFAEBAEBAFBQBAQBAQBDwEhnD0sxJEgIAgIAoKAICAICAKCgCAQlIAQzkHRiA8EAUFAEBAEBAFBQBAQBAQBDwEhnD0sxJEgIAgIAoKAICAICAKCgCAQlIAQzkHRiA8EAUFAEBAEBAFBQBAQBAQBDwEhnD0sxJEgIAgIAoKAICAICAKCgCAQlIAQzkHRiA8EAUFAEBAEBAFBQBAQBAQBDwEhnD0sxJEgIAgIAoLALUTAbqriSo3lFrJImCIICAJ3OgEN4VzPpW+Oc/zYcY4Xfc3pC9VcdwprrOb8t+eosgVGbj22jH495rP3uhsIXO+t9ddGSg+sZ+2+HwmC4dYyV1hzZxOwHmVJ3xx+/9UNHpTWYyzr14P5t/Rgt3JsWT96zN97/TnveqOnGdzttafYtmYbp2rt19v6rVPO8jWv3J/Cfy0vaVa+vDPmlp/Qbc2Iz5/Qyutu6raKl5uRS738a+Xokr7k/P6r6+b5cxW8mX5UFc6NPy4n994w4tMyyGjfhsTIe4nJGMTv/vG/mJpIo/Hcm/SN6MnLJYElo+XL2aTpx/NJUytuoh3Xf7qVgr+M5bervm1GEq9nx5NpGCZ8zNVfwLx2/SybWdJawF/G/pZV3waOpWbWLoq7CFj2MiM1gcmfml1/uTGvli+ZnaZn/K072AELX85OQz/+kybmuhuQJ5rB3XZiGfcnP8ifT93uY6ORH94eQNaY9fzY2Lywu/Xnlub17ycv3Yz4/MltvY4Gb6t4uRm51Mu/FvbOSCVh8qfXQfLnLXIz/agunM+9wYOS2HUJFPMlvvh/hmJo2Zan/nmVpmi/Rt+6ZKZW6srLuNpgJ3AnLdQYSymvCzYJWKi5fJkaq8tBdkyVRirqNTJto4nK0osYVW4BWmvLKas0KfpoYvvEONJmfxlgBUrDTmst5eW1uM10met6tdVTUVpGZUMQu7XKA7b6CoxXGwhUg6XGSGl5XRDBb6W2vJxapXFa9rjsll4tNRhLywnqIsn2skpMWsGiUo+l2khpRb3HftN2JsalMfvLACuhKvUozcbewNUyI1VmH8PUYsNSjbG0gnq/cLRRX1FKWWVg/l7thvDGP/YCF1L3q+Say1z2DA7spkqMFfUBYwSkPhi5qoxBrwTqsSF4u42YKku5aKwJMEbAWldO2dUG7EGSvRTDpWWVKE3wtOp7FMBe31OCvVeLEWsd5WVXabAHEc5qZeX21PIESL4tVwy2RlMlpReNeKUiJXeb0x6/ga3O2qvrajEtnaiVX7T6HOoYl9NFiDHZeI1zR77ghDHQRZuFamMpFf4DUdHt5s4tiqq0DoP2P3Qf+eU4rTblz+00XC3DWGVWzFMhFfT3eZDcphmfITYX2mka8yjSXFVGpdZkcj25HfV4CcghtE75n3UD4kUrlwbP0T7mBBrbyvxDIOGsHtehxrKaZvGx0uetWpyo+1FaEFHXlD5NBXnbNOEsVWKv5JO81kQ8tJxzfsk8SCuAr3C2l3/OgtwkwsKjiIrvxpSZQ0nWeVacawtXMPa+ZFIyO5KWmEyv2Vu5ILdn5cjiXAYtXMWi/mnoI1sSljqMt4tK2DQth6SYCFpEZJC34WwAgWCleNU4spP0xCenEBuuo+OkDZxxCiHrkcXkDlrIe0sG0lYfRXgLHV2mb6X0/1awYXw6ceF3cU9kPMkpaYxZUyonKy07B770FnO6xxMZ3ZkXC65x9I+O2x4OyVdH0co8suPCidRF0TI8mQef2cI52R5HP73LK9UtSPY+NHwxqxYMIF0fTUSLSDo8tpoS11xTW8iKsfeRnJJJx7REknvNZqsDolw2d+BLvDWnO/GR0XR+sQBQs8fXt7UUrhjLfckpZHZMIzG5F7O3XnAwtx5hce4gFr63hIFt9USFt0DXZTpbSwMFjEo9trNsfDKbpKQMOrVLos3otZw3bmB8ehzhd91DZHwyKWljWFMqiV+VerxMt3Nl3xJ+0yaS8JgYIqLbMOC1QsyoxYaNsxufJDspiYxO7UhqM5q1To51RSvJy44jPFJHVMtwkh98hi0OB3q1imU/L+T0YeFhlw+tFCztS9d5e5DcFTT2AiLT8Oughaxa1J80fSQtw1IZ9nYRJZumkZMUQ0SLCDLyNnDWPZYeYvjiVSwYkI4+OoIWkR14bHWJbBNeCVRCrNJu8SrGZSehl3wSG46u4yQ2uAaWvZzPF+SSFBZOVFQ83abMZGiyzrPiXFfEyrxs4sIj0UW1JDz5QZ7Zcs5zoeQmKY0JNXvVGavHiJ3yzxeQmxRGeFQU8d2mMHNoMjr3inMI8WUPkifk8TCQl96aQ/f4SKI7v0jBtWJWjcsmSS/lk1jCdR2ZtOGMo88y9zgGP/sCA9L0REe0ICprAmu+c2QNqwpre+laHus0nvVGaUyoxbR2flHl1YQx7ortUGNSLUfbzm7kyewkkjI60S6pDaPXXnBHh+vg+ucWVw3Sq4X9L+TQZ+Fh94KHtWApfbvOY49jwKrmODUfKVshQI6TUotl/wvk9FmIJ10UsLRvV+bJjYP9yj6W/KYNkeExxERE02bAaxSatcoF8rkpcG6zasWn9p2ouh3T+FXvlzjgmo+Qtj89RJcZ/6TeC4KUWrTm+/dYMrAt+qhwWui6MH1raYD5/XpyO6jGixoHrz78RPGilUtVcrSXuWrzpVfe9xbOqnEdJJaV7aprFg2G8hQULE40/KhRVmljKMdNF86SAR+NIipmHFuasK3CWzg3sHdGGtG9F5FfbcdycRfzc2K4K9opnE0HeDarNUNWfi9P4PaKT5narhVjN1dil6+ADNwb051Z285jtl7g/eFxROjaMvCVQ1xtrOfYwh6Et3+Wg34LklZKPtvEoVLHSLZ8/wb9orN4Pt8hZix7Z2BoEUO36Vs4Y7JTc/A5Ood1ZtEJG5a6UtaPiSV16jYuVVyhVqo7BDvDIjKZuPkCVpsZS6MnCCULTAfmkxXdlXm7S7Fgp/rYq/SP1zN49UU5ce+dYcC7vLdLZXvvCSNr0jpK6u00lKxgYJye4R8Ypdo58GwWrYes5HupMXsFn05tR6uxm6m0g1w2LILMiZu5YLVhtjRq2OPdtunAs2S1HsJKR+VUfDqVdq3GstlROTMMLYjpNp0tZ0zYaw7yXOcwOi864SeG1OqxHppPRqvx/KNKattC+UUjJizUla5nTGwqU7ddouJKrby6qVaPl+V1u3m6jZ7cV45RYwfThb28u/EYJlRiw3qI+RmtGO8wBEv5RYxS7JsOMD8rmq7zdlNqAXv1MV7tH49+8Gou+gpe8y6eaG1gmnPi890KoBZ7XvaH4td7Y+g+axvnzVYuvD+cuAgdbQe+wqGrjdQfW0iP8PY8Kw8OKR4N3BOWxaR1JdTbGyhZMZA4/XA+kISXVwJVjydryWdsOlTqFNzf80a/aLKez5dNb9g7g7To3izKr8Zuuciu+TnE3BXtFM4mDszPIrrrPHY7IHLs1f7E6wez2g+ihr0ajFVjpGEvM9Ki6b0on2q7hYu75pMTcxfRTuGsWlbhoIB5QuJoCCMicyKbL1ixmS00Wkv4bNMhHKnIwvdv9CM663nkVCSffzcts37Lh9/VY2/4lrd+E4f+kf/hsh3UWMt5NvIhlsv7G1Ri2plH1fKLap9lG0Mb43JshxyTajZbOTQ/g1bj/4EjJZRzUR6ICgfQnLlFWY+ZXU+0xjDNcWErfeJ1V1Sj/2o+UrYSOMeBedcTtDZMc4h0R+OK7U117H66DfrcVzjmSGLsfXcjx0xa5Rzjx8vn/ydIbtOKzxC2cNnL/4dH9Aae/leDo8uWwzyXGcuIdRXeK+QhzKMtYroxfcsZTPYaDj7XmbDOizjhe+fvenK7VryocVA6kp8mXjRzqcqcrzRXc2y7/evRLFJ5tbgOFsvKdtU1iwZD1Ti5UeNeaW3w4+sSztKgTggbzrra4BX7fuIlnCUh0iGSwWuuuAeQ+d/TMThXnC0H5tJON5QVJ09z+rT0XzHvjYonbdYXWJy3DuIf345jONopW9mfiC6egWTNf57MyJF86HtZ6zbKSq3xPD98u4kn0mLJ2+a4ApCcmhr/ONud4xzLQea11zNOvkLwvwWrbaeBmKEfUO7eDeAJQjMWvpjVhuhH1in2O5vYPTWJqBEb3MLZu7y7A/KBbG/cBD5x97Oev4/Vo398G1gOMLedjqErTjoZnqb4vVHEp83iC4tTOMcM5QO3cVr2KNu2cGBuO3RDV3BS9s9pThe/x6j4NGY5KmdGajyPe0BycF579OO2+OwXVa/HVryMHlEdmbL+FFVKIeq3VUO9Hi/LpTjTj2FT0NgNEBu2Ypb1iKLjlPWcUhhi+WIWbaIfYZ1iw7pp91SSokawoVrZKtKMpimcg8eeoq4Q/Kqsx162kv4RXeSLP7kWaz7PZ0YyUh4cjniMm/CJZwWo/u+M1et5XBoTkjhwJVCNdl0WWmuNnP/hWzY9kUZs3jZ51fPQ/A5EDl7DFdc4MP+b6QbnirPlC2a1ieaRdYqtX6bdTE2KYoQfRA17VRmrx4iU9DtEDmaNx0j+Pd3gXHFWL+vqu+PVP0/IHA0xDP2g3J3v3GWstRjP/8C3m54gLTYPORXJ3OOY8Mk192l1f38MXexEtisWK/xZO+/suYWzq3iAmHYK5+D5RaPPso2hjHFHrgk9JtVstlG8rAdRHaew/lRVgBVHKdyaM7e42pZeNSbxEPsfyEfKVoLlOFXhbJHGj54xAZKYarlAPg+S29w2Bo1P7RVnqOLv4xJInvKpnF8sh54lI2EMmyrdtcsH2vNoKp75HiwH59Fe779wZ7me3K4RL25LA3Fwfygd/BTxIl04quVS9TnfY24oY9vlX49m8ZSXdvr45nkIFsvKcqqaRYOhapxo+FG1rNLAEI+vQzjbubJmCBFJT/Ev9y0Y7da8hLNpG3n6RKb801OB8mretGUc0S0SyeqZQ06O67/7GbX8JDancJY2q7tKV64ZQmTXJbieh7EWLaRzZCBhb6ds90sMaBdP6w7Z9OzZiaQwHRO2KoRzwmTcz0JZC3ixYzRjNsvLi357nJtqp7TK6Npob6aeD0dGkDpzn2I/qI2vl3QlIvevTuHs2JTv6qcvZTkIlfZKtxfnpBM+9AMwbWFcdAsSs3oqGOZw/6jlnLQ5JzOvslr2KFs3sWVcNC0Ss+jp9k8OOfePYrmjco/gkotZKXixI9FjNvsIZ416qKd43UxyDRHoMoeyYNtZBys/4axVj8f2+g9HEpE+h/1+dyPUY6O+eB0zcw1E6DIZumAbZy0g15U6k32KumxfL6FrRC5/Pa9U+iEKZ6U/vGLPY3+T/Vq5hiGRXVniGRws7BzJcPmqVxmPzjYs+5mTHs7QD6q8hbNGPNnLdvPSgHbEt+5Ads+edEoKQzdhq3znY1uensQp/3SPV5R7nOs/ZGREKjO9IbKkawS5fz2v6Lh0qGGvqnBWjxHTtjz0iVPwpCTlHmf1st5GBhHOrgsQ18n2Mna/NIB28a3pkN2Tnp2SCNNNQE5FygsW5/mWr+aQHj6UtVUQnLWvcFaL6QAsXbbJrxp99rMx2BgPkGtUY1LNZqC+mHUzczFE6MgcuoBt0kBU/mvW3KKsKBQh5BIXUjnv/qv5SNkKQXKcqgCWx0w6c/yTmMZKdWCfB8ptNDE+vfvkeVf36ROktHqcrTVmDszrQOvHt1Lj+Vg+auo8ai14kY7RY5CnZUVd15XbNeJFlYOi7dCEc3PjxYRqLtXI0R5zmzK2PTEjlVeP6yDztadh+U53qnKeU2oWDeGsGicaflQtq7Av1MOmC+fGi7w3WE/8Y5vkW/6hNuQlnC17mJYSxcgPPct+ln0zSXWuOJs/n0aKbix/d6+kKlvxONIlKEMWztKEna7j18sdW0CwHmZ+hj5E4Wxm+0TXqrfDnqba6T3xm9k5OR7dY5upc3fPzJ5pBnSjNwYWCe7zHAcu4bzTBYJ6PpkQS9ykHWD+nGkpOsYGhhgggLXsUTZu5vNpKejG/t2zUqn8OORJVaMeV51WIwdfH0JyzGBWl9nBvJ2JrtVt+ZwQ65H0645JxMXlsdWzmOdoRSM2HCdZMR58nSHJMQxeXYZ552TidY+x2eNAzHumYdCNZqMntB1Fzbt5KkmZOKU4dq1oBhAXwYRzU/2qKlJcY2mnR9TWf8KE2Dgm7fBZcVZtVxKZ6eh+vdyxLQgrh+dnoJeFs4U901KIGvkhbiSWfcxMda44m3cyOV7HY94QmWbQMdoPooa9qozVY8SyZxopUSPxpCQL+2amOlec1cs6HOz6v3+e8Fq5d54mLRSk637NcnmrE1gPzydD7yOcPQOba1vziIubxA6TGmsf4awa0y6WngUIVw8crxp9DnmMB4httZhUtdljodV4kNeHJBMzeLXnj9JRs+YWZVVmdj+VJH+bgCu9SvnWdVfU36dK4azuI2Ur7mOfHGfe/RRJSoEh8XbdYrnjWgAAIABJREFUpTHvYFJcHHl+SQxUywW68PQY4JXbQopP9wqTuxL/A9M+ZqUn8NiGHTzT3sCUf/pP6k2dR4MJ5+vK7RrxosrBq7c/Rbxo5VL1Od9jblPGtidPOLYXBsvzntrxiWXFJ27d4UltCs2COkPVONHwo2pZpYEhHocgnLuz5EQdDfVVXPpmDyuf6oE+7mHeOOVIJ9IVyJ/nLGG7xncGeQlnewXrRuiJH7ZafhDOXpXPyw/Hcbdzj7P96mbGJiYy7N0f3BO6/Zr0NLZ0r9fjSFdCC1k4m7bzeGwC47c47qPXFr5MX12oK86SqE1BP+ojx/466eqriXZ6226nfMOjxMb2581ix94Qy5k1jExKZPRH5QH76etTOZHfo+fBPx6UL2Js599neEIsI9eXS8axeWwiicPe5QcXKPs1Ll+ukW8Xu0S3J/dp2aNs3c7VzWNJTBzGu57KuSZ9w4nsIsUtfrmYclIJvR7z2eOcrHBsZGs88zoPRPblTemJVLN04aVn1EfyTkfJE+r2KJq0G9cwTJ/II++fkx/6sZV/xVvv7KFaLTbMZzl+ssKxP7vxDK8/EEnfN89hL9/Ao7Gx9H+z2LFtyHKGNSOTSBz9kWJ7jrNx6ZZo9zA6PX+Ya9ipOryUXP3d7j20fv4IJpyb6lc1kSKPJQP36B/kjwel5wdsnH9/OAmxI1kvbeFRiiPVdk1sfzyWhPFbkEdWbSEv99U5V5ztVKwbgT5+GKulhybtVeS//DBxdzv3ONvL2fBoLLH938QxDCycWTOSpMTRfOTeRuRyoDT2VexVZaweI/aKdYzQxzNstfRQop2q/Jd5OM7lH/WyLuscr/55wouj82TT9seJTRiPIxXVUvhyX3TKFWfDPegfXMwBaRuQ7TxrhicQO3I95XY11j7CWS2mA+RR735o9FkZG3LBYGO8icJZ1WYzZ4+fxJESGjnz+gNE9n3Tx+zmzC3KqqRtId0J6/Q8h69JYXuYpbl69xzl71Nl/9V9pGwlWI6Tbnt3D+vE847GObw0F717zBhZM0xP4iPvc056PMdWzldvvcOeasft8qDlAvk8SG7TjE/FHRRz0WqefeEjvvPdcyx31EL+77KISW9Lcto0Pndtg1RAaOo8Gkw4X1du19AiqhwUfZC+lejmx4tWLlWf8z3mNmVse/SW9NxU8DwPwWLZ064jFxiCaRYNhqpxouFH1bJKA0M8VhXO9rL3GBT5n/zHf/wH/3lXCyITO9DnsT+w+VvPVaO1cCFdojN5zv9JPC8TGi+8zX/p+vDa945b2KaTyxmY3BJdahbpyZ0Yt2wWDyRNYocs8mz8uGUG3eOiSbmvN31yOmFIyGTuXulDC/vntsfw1G63qK5ePwJ9rz/h+opo26mldNePZqNiJdBhTC1fLeiJXp9Bn77d+FW/qUzolcxk5+WPZf9c2hueYrdLaNqKWJQd71yRtlO1axrtWkZjyGjPI+9I3yDRNDv9bLed5eOpXdCFJ9C+UwatoxPpNXcHl2RE/v30AiqRkPZk63ozYkgHWqdlkqqLpO3o1Tgfvsf24xZmdI8jOuU+evfJoZMhgcy5e2Vufn2VKle1x6d1249smdGduOgU7uvdh5xOBhIy5+Jw0X7mtjfwlAckRYuyiZ+w1WerhtRm8Hqqdz5N21gDnXv1JCMhjuxZO5G/LMBexa5p7WgZbSCj/SO8Iz2GrlKPt+VmvvnbSNLCI2ndIRNDnIH+r0sPB6rERvVOnm4bi6FzL3pmJBCXPYudsiE2zn48lS66cBLadyKjdTSJveayw+FA72Zp5MLGPNqGhdOqXTqpXSbyypwHSJ7sWO3184dX7HlX1SS/Vq9nhL4Xf/IMDpZ21zNaHhyOpKjrPYIhHVqTlpmKLrIto1d/59gSY/H2o1q7tV8toKdeT0afvnT7VT+mTugl90223HSS5QOTaalLJSs9mU7jljHrgSQmOQY7trMfM7WLjvCE9nTKaE10Yi/m7rgUYA+rhr0ajNVjxMTJ5QNJbqkjNSud5E7jWDbrAZIm7XDkmZDjK0Ce8OEoM6n9igU99egz+tC326/oN3UCvZInI6ciy1c8k5HNuJmDaJvYhsxUHRHpo3jPObDVWMsLFO49zioxHSCPekeZ+tiUviUm1DHuF9uqMalmczU7n25LrKEzvXpmkBCXzayd0oPQ3v+uf27xrqfxwkby2oYR3qod6aldmPjKHB5w+0i9/2o+UrYSNMc1XmBjXlvCwlvRLj2VLhNfYc4DnrnK/M3fGJkWTmTrDmQa4jD0f11+OBDVcgHmlGC5TTU+lX23U/7ubwhrNdUzbyo7KIXR10vodu/dpD/zpXvO9j6lafOorWgR2fHOuzNeFV1Hbpc2k6lpETUOXm3DTxEvaOVSlTnfy1y1fOY1tj0xI5VXi+ugsaxoWEuzqDJU1VsaftQoqzAxpENV4RxSDc04yX6tlFNHC/muwqVUvSuzNxgpKThM/vHTXG5wPVnkfU7T39moOnOcI0XnqfHZhqpdl526CyfIP1pCucLk5tnZSP2lYo7mF1ByWfHkj7Yx7tsen5oaKCs+SuF35f6Jyd6AsaSAw/nHOX25wf/hJL92mmKPnQZjCQWH8zl++jLX76Lg9Vgqz1CUn8+J8zXeQspex4UT+RwtUfY5eD2+3TRXnKYwv4DvlI5EJTYslZwpyif/hH/cNNZfovhoPgUll/0vDHwabjB+w9HC01zx2Zrpc5r22yb7NVCVntUEU0MZxdJY9OIRoIxKu7aqMxw/UsT5QAPLfo3SU1KMVvjHqNRMYz2Xio+SX1BC8GEQmr3qjNVixM610lMcLfyOwClJraySVeA8oTxDPrZVceb4EYp8Y1txomxPACbBWDd+/yq9I3/Nf0tbmhyNNCPfSRWE2mdnczfkRWUcYqHyTBH5+ScCx5mz/Rs2tzQY+eZoIaevY8AG85EvoqA5jgaM3xyl8PQVxXMwitLmCk4X5lPgl/c1yimqkA+D5bYQ4hO7kfWPptBzcWHQ3GcvW81gXQbPHlJPes2bRz2danJul6JcTYuEwsHV/E8QL2jlUpUc7TLT8Xp9Y1stroPHsqNF951VNc2iwVAtTlT9KPn5BmnKn1U4eztRvGsqAXcQKkR8U+sQ59/JBDxC9PYIodvN3p8ytuyUn9jF2jm9iEmd4bjz81M2L9q6IwlYixbTu9ciCgJswXAAaeTcW/2IynR+1eIdSUl02kXgl6JZhHB2efQ2fLV9vYJxj75Gges3NW7DPgiTf04CNr5eMY5HXytw/8jDz2mNdtu3m73aPbpxZ1gp/MujPNx/HIt3BdrmcuNaEjUJAm4C1gauqc4/NfzzdwOZsLLY7zv83XWIgzuGwC9FswjhfMeErOioICAICAKCgCAgCAgCgkBzCAjh3Bx6oqwgIAgIAoKAICAICAKCwB1DQAjnO8bVoqOCgCAgCAgCgoAgIAgIAs0hIIRzc+iJsoKAICAICAKCgCAgCAgCdwwBIZx/Alebqyuovj2+tsCLRuO1q5RXmUL4CjuvYjfmjbmaitsR2o3pvahFEBAEBAFBQBAQBG5BAkI4W4+ypG8Ov/9K+o7JRkoPrGftvh9v2BPAth/epn9KL5Ye83xHs/XoEvrm/P4WDAeXSTb+d80Y0qNjSGyVycw96t+/6SrV1NfG0gOsX7uPH31/ccr2A2/3T6HXUumHScQ/QUAQEAQEAUFAEBAEbg0CQjh7/XRsPTueTMMw4WOkX7pt9j/7JdaNymLQO6e9vu7L9V2Gza7/ZlVgO8GizpE8vOJH+dcRbb7C9ga1W7/jSdIME/jYC7adS+tGkTXoHU6rfs3RDTJCVCMICAKCgCAgCAgCgkCIBG4J4WxvuEqZsQrzdYhVS81lLtd4FJbdVImxot77V+bcMGzUVxi52qD4yUAv4ew+0efASm15ObWeZrw+t1QbKa2o91+lthgp+rKQC9cU7bl+Kjthslcd0m/d11eUUlbZEMR2n9M13lpryymrDLDNotFEZelFjDUqq8jmz3k6JYknP7uO/SXWWsrLKjEF8GVofrZgLPqSwgvXgnNQaUMDi/hYEBAEBAFBQBAQBASB6ybw8wpn+xX2LfkNbSLDiYmJILrNAF4rNGPZ/wI5fRZy2CVUrQUs7duVeXscQs56ZDG5gxayalF/0vSRtAxLZdjbRZRsmkZOUgwRLSLIyNvAWVmvWjmy+CGGL17FggHp6KMjaBHZgcdWlzh++tdLOFs5+se+5Pz+K/knTuV2Br7EW3O6Ex8ZTecXC7xB286y8clskpIy6NQuiTaj13JBbrOOopV5ZMeFE6mLomV4Mg8+s4VzzpVb3xXnuqKV5GXHER6pI6plOMkPPsMW18nKFi37eSGnDws9YChY2peu8/bIfXFxeW/JQNrqowhvoaPL9K2UOjkUrxpHdpKe+OQUYsN1dJy0gTO+q8nVm5nUNo6Iu+8mIi4ZQ88FHLRY2P9CDn0WHnavnFsLltK36zxkl1iPsDh3EAvfW8LAtnqiwlug6zKdrY6GIYifrUf/KG9ZkXfJAKoctNpQchLHgoAgIAgIAoKAICAI3AQCP6twrtv9NG30ubxyrAY7Ji7sfZeNx0yYdz1Ba8M0hyiTOm35ktlpesZ/4tjxKglPw70xdJ+1jfNmKxfeH05chI62A1/h0NVG6o8tpEd4e549KK2qSj/Ta+CesCwmrSuh3t5AyYqBxOmH84HRDl7C2fsnfeV2wiLInLiZC1YbZov3yrH10HwyWo3nH1WykZRfNMp7ck0H5pMV3ZV5u0uxYKf62Kv0j9czePVF2YVewtl0gPlZ0XSdt5tSC9irj/Fq/3j0g1dz0bs5MO/iidYGpjkvIKS+fTk7Df34T+R2ZXtbxNBt+hbOmOzUHHyOzmGdWXRCUsdWSj7bxKFSx8WH5fs36BedxfP5rqsTV3RZqSvbzMTWrZm4+RIVVdIKuJldT7TGMM0h0B0umU2afjyySySGhhbEdJvOljMm7DUHea5zGJ0XnZBX4YP52cXhU8kkLQ4abbisF6+CgCAgCAgCgoAgIAjcLAI/o3C28O/pBvRjNlHr07tQhHNq/ONsb3AUtJetpH9EF6dAlDRiPs9nRjLyw3qncE4lbsInSO/kf/V/Z6xez+PbTNrCOWYoH5QH2HcA2IqX0SOqI1PWn6LKLXItfDGrDdGPrFPskzaxe2oSUSM2yM27BKP0xvLFLNpEP8I6xT5f0+6pJEWNYEO1w1z3/0MQzkouWA4yr72ecVuUj9hZqTWe54dvN/FEWix5EgPff+bdPJWczFO7XVs1QhDOqfE87nIIFg7Oa49+3BZMBPezi4MknDU5yBc4wdrw7YB4LwgIAoKAICAICAKCwI0n8DMK53o+HBlB+pz98rYIZddCEs4Jk5FXKqWClWsYEtmVJaec+w6sRSzsHMnwdZIk915Fltux7GdOejhDP6jSFM6pynaURsrH9RSvm0muIQJd5lAWbDuLBUe/UmfuU/TLxtdLuhKR+1dH83tnINUr/av/cCQRqTPZp9hybPt6CV0jcvnrebcal88NZcXZy15rAS92jGbMZkkc2ynb/RID2sXTukM2PXt2IilMx4StN0o4JzDZ7RArBS92JHrMZkxOHoH8rBTOmhy87gxIOJRtOPCI/wsCgoAgIAgIAoKAIHAzCfyMwtnMjklxxOVt5ZpPD827nyJJKVjl2/Q6r60aXgIxJOG807GnWWqr/hMmxMYxaYf2irNXOz52ut9ajRx8fQjJMYNZXWZi5+R4dI9tps59gpk90wzoRm+U/+ISjNIb887JxOseY7PnZMx7pmHQjWaj31L8bp5KUgpUxzYUnWKrhpe9SuEsbXdJ1/Hr5d87OFgPMz9DH7Jw3v1UEgmTP3UzlPpg0Cm2aqQq7VKK2uB+dnGQ9LYmByGc3dEkDgQBQUAQEAQEAUHg5yHwMwpnO8Y1w9AnPsL756R9tjbKv3qLd/ZUy1sguod14vnD18BexeGluejvjm6GcDZwj/5B/niwEjs2zr8/nITYkayXtmB4CTLv1WmlsAvkHvPZ45yscKxyN555nQci+/Lmuf9L+YZHiY3tz5vFjr0kljNrGJmUyOiPyuVqXPVKb+zlG3g0Npb+bxYjn205w5qRSSSO/gi/HSK2YpZ1D6PT84e5hp2qw0vJ1d9NdCjC2bSdx2MTGL/Fsf+jtvBl+upCXXG2UbysO2GdnsfhksMszdVzd3Qowjm4n10cJOGsycHLTxI5pTgHe9lu/jxnCdt/9FmlD+Q48TdBQBAQBAQBQUAQEASug8DPKJyl5dZv+NvINMIjW9Mh00CcoT+vSz8U0niBjXltCQtvRbv0VLpMfIU5DyQzeafzwbb9c2lveAr3Ftzq9YzQ9+JPJc6tGrZTLO2uZ/RGaRnXIYZ1vUcwpENr0jJT0UW2ZfTq7xxbKSz7mdve4NzPa2H/3PYYntotr6xafNvxAVy982naxhro3KsnGQlxZM/aifS8IbazfDy1C7rwBNp3yqB1dCK95u7gklPTuep1VGfj7MdT6aILJ6F9JzJaR5PYay47XCd7tdnIhY15tA0Lp1W7dFK7TOSVOQ+QPNmxmu6q183FVsSi7HjnqnItXy3oiV6fQZ++3fhVv6lM6OVh6tWMZS8z09KYsdezf6Txwkby2oYR3qod6aldmPjKHB5InozsEi+GUk02ihZlEz9hq+MHTIL42dteDQ4abVgLF9IlOpPn5AdCvXoj3ggCgoAgIAgIAoKAIHBDCPy8wlnugpmK04XkF3xHuetZNPnvDRi/OUrh6SuKvcLX02fPKrKpoYzio4V8593Q9VTqLmOpPENRfj4nztf4fO9wI/WXijmaX0DJ5QD7iN01OA4a6y9RfDSfgpLLmr+W12D8hqOFp7ni0bU+tQV7a6PqzHGOFJ2n5noWZhuMfHO0kNNNb1i6SgriZ29bm8LBu6R4JwgIAoKAICAICAKCwM0lcAsI55vbQdeKs3J/7s1uUdQvCAgCgoAgIAgIAoKAIPDLI3AHCGcbX68Yx6OvFbh/vOOX50bRI0FAEBAEBAFBQBAQBASBm03gDhDONxuhqF8QEAQEAUFAEBAEBAFB4E4gIITzneBl0UdBQBAQBAQBQUAQEAQEgWYTEMK52QhFBYKAICAICAKCgCAgCAgCdwIBIZzvBC+LPgoCgoAgIAgIAoKAICAINJuAEM7NRigqEAQEAUFAEBAEBAFBQBC4EwgI4XwneFn0URAQBAQBQUAQEAQEAUGg2QSEcG42QlGBICAICAKCgCAgCAgCgsCdQEAI5zvBy6KPgoAgIAgIAoKAICAICALNJiCEc7MRigoEAUFAEBAEBAFBQBAQBO4EAkI43wleFn0UBAQBQUAQEAQEAUFAEGg2ASGcm41QVCAICAKCgCAgCAgCgoAgcCcQEML5TvCy6KMgIAgIAoKAICAICAKCQLMJCOHcbISiAkFAEBAEBAFBQBAQBASBO4GAEM53gpdFHwUBQUAQEAQEAUFAEBAEmk1ACOdmIxQVCAKCgCAgCAgCgoAgIAjcCQSEcL4TvCz6KAgIAoKATMBCdUUVJkFDEBAEBIFbkIDdVMWVGsstaJnHJA3hXM+lb45z/Ngxjjn/O37qArV2TwUhHzVWc/7bc1TZApewHltGvx7z2Xtr8wpsfJP+2kjpgfWs3fcjQVA0qbaf7WTrUZb0zeH3X918hzWWHmD92n382ExgN6qen435jWhYw28/KSPLFX449Q0X63wSiqqNP8X4sXJ0SV9yfv/VjSB+C9XRyLl3B2PosZCjDbeQWT+FKY2lHFi/ln3NTSI/ha0/ZRuqY60ZhliPsaxfD+bf8hO6lWPL+tFj/l5u/kwWgGdz+NtrObVtDdtO1eKTQQM0dJv8yfI1r9yfwn8tL2m2PrqZmlJVODf+uJzce8OIT8sgI8PxX2a3efzL3HQnNJ57k74RPXm5JLD6sXw5mzT9eD65pZdCrBT8ZSy/XfVtM5xaz44n0zBM+Jirt3O0W/YyIzWByZ9eRzA0MXzqdzxJmmECHzcT2I2qB25EHDQRwo06XcNvN46RlsF2Lq7sT8R/3k3q9H/jpeNUbfwpxo+FvTNSSZj8qVYnbqvP7Zc3M6FTf/76rSQRbqMYthbwl7G/ZdW3geeOkJxQv4Mn0wxM+PjqL0dkhNRxjZNUx5pGWbWPLV8yO03P+Ft7QgcsfDk7Df34T67jLswNGEPN4W87wbL7k3nwz6eaoUfUnPhTf9bID28PIGvMen5sbH7bN1NTqgvnc2/woCR2m5OwnP1vDFiXlbryMq422AncSQs1xlLK64IlTAs1ly9TY3VBtmOqNFJRHwL1RhOVpRcxBr0lYKW2vIxKk1Ldmtg+MY602V8GuDrVsNVaS3l5LW5TXSa7Xm31VJSWUdkQxHat8q563K92Gq6WYawy+00UtvoKSssqCdaUNKn6991dseMgyIBXq9tSbaS0ol5zkId0XpN5+Njvfqvht4AsrjMOLNUYSyuoDxbOLpvsDVwtM1JlVsYeNJoqKb1oJGjIEsJ4UPrNVkd52VWVOHAZZKO+opSyygb8o9NCtbGUCs1Ouepyvjae4Y3c1gyeNILWKVP4tE7xudJGxZ/VDq215ZTXBh1dwYsGzAMhCmerk5+3m4K35fWJVtx5nQyWGoyl5QRNhdJ4KKvEK135VEH9Jb6/WOfMByoxrNWWpYbLl2s8ucxuotJYQWhpVyOGA/XDtJ2JcWnM/tJ/TdBSY6S0vC5ITpHyWDlqYaGWryR81x1XvuwV76U6yypNfnlZcYr7UL1/Ulhc5rJnAsRuqsRYUR9gnEpVSuPYyFVl4g8y1oK324ipspSLxpoAcyBY68opu9qAPYhw1uLt7rj7IIDN7s80DtTi2D12gwhntbLuZlXGUIDYCZi/lfxV8nHAsm47FAcB85ni81DmTa2+BxqjiiZ8D0OO0cZrnDvyBSeMARbjQp070dCUWn3zNT7I+59NONvLP2dBbhJh4VFExXdjysyhJOs8K861hSsYe18yKZkdSUtMptfsrVyQZ20rRxbnMmjhKhb1T0Mf2ZKw1GG8XVTCpmk5JMVE0CIig7wNZ4MkDyvFq8aRnaQnPjmF2HAdHSdt4IwsZlx1v8eSgW3RR4XTQteF6VtLabRXsGF8OnHhd3FPZDzJKWmMWVMqJz8tWwe+9BZzuscTGd2ZFwuucfSPjtvAjmmgjqKVeWTHhROpi6JleDIPPrOFcwp7vMtriwP7lX0s+U0bIsNjiImIps2A1yiUYrGuiJV52cSFR6KLakl48oM8s+Wcc9JR6Xug4FEOeOlztbptZ9n4ZDZJSRl0apdEm9Frnb70qTjIedajf6Rvzu9x7Aqp5ejrQ2mXmEKHdskktEqWfTF85TkaLft5IacPCw+7GFkpWNqXrvP2IHXfux7Q8tughTcqDmyc3fgk2UlJZHRqR1Kb0ax1BLMPADtX9i3hN20iCY+JISK6DQNeK8RsLWbVuGyS9FLcxRKu68ikDWd8/BbieJD9FsfgZ19gQJqe6IgWRGVNYM13jmj0ZVRXtJK87DjCI3VEtQwn+cFn2OIITmxnN/JkdhJJGZ1ol9SG0WsvyP2xHFrI/Z0eY815f5nt6rDt25fJSZ7AlrLPeMqQyPh/VLs+At/Y8nwir5R6jZ/ao7w+tB2JKR1ol5xAq+RkUtKGs/JcI5b9L5DTZyGecChgad+uzNsjR4NKHtASznYq/v0H+iWHEx4VRVyXybz60ki6z/1cjjP1dtXizqujzje1FK4Yy33JKWR2TCMxuRezt15w5DbrERbnDmLhe0sY2FZPVHgLdF2ms7U0MHfrkT/yYM7v+PL/BMtlIbS1ahH90/REtgwjddjbFJVsYlpOEjERLYjIyGPD2cBtoxbDKv2wV2xgfHoc4XfdQ2S85NsxrCm1SxBZMfY+klMy6ZiWSHKv2Wx1jinrkcXkDnyJt+Z0Jz4yms4vFkiDnz8qt5ap5SvZnoG89NYcusdHEt35RQpcKSWQi6S/aeUeyaZBC3lvyUDa6qMIb6Gjy/StBHGVdv8GLWTVov6k6SNpGZbKsLeLKNk0jZykGCJaRJCRtwGHK6S8/hDDF69iwYB09NERtIjswGOrS+RY9RtralyLVzEuOwm95IfYcHQdJ7HBMXGCvZzPF+SSFBZOVFQ83abMZGiyzrPirMbbj6mWzep5HlTiGDvlny8gNylMHrvx3aYwc2gyOveKs1pZhaHB9ECg2Lmmkr818rHquLGXsvaxToxfb8SOtq7R1hEqfVcZowoq7kN5DDYhRoNrslDnTikE1TSlSt/cVod+oC2cw9rwyMIVvP3227z9zko+OVkbeu2KM71XnBvYOyON6N6LyK+2Y7m4i/k5MdwV7RTOpgM8m9WaISu/lwe3veJTprZrxdjNldiRJjUD98Z0Z9a285itF3h/eBwRurYMfOUQVxvrObawB+Htn+Wg/wKFPPGWfLaJQ6WOqxrL92/QLzqL5/OlzOiou0VMN6ZvOYPJXsPB5zoT1nkRJ2xgqStl/ZhYUqdu41LFFWql+kOwNSwik4mbL2C1mbE0eiZlyQLTgflkRXdl3u5SLNipPvYq/eP1DF590W2Pd3kF1ICHdex+ug363Fc4VmMH0wX2vruRYyYTB+ZnEd11HrtLLWCv5tir/YnXD2b1RWmyU++7X1Ne4ka9buuh+WS0Gs8/qqRaLJRfNAa8LRbsPMveGaQmTEbaFdJ49q88pLufP8m3m2vYOysLQ94m5ItU8y6eaG1gmiyMHG0pb8Mp6wnFbzcsDqyHmJ/RivEOAFjKL2IMtCWpbjdPt9GT+8oxHK7by7sbj2GylvDZpkM4QtbC92/0IzrreeSQbep4kPxmuJuWWb/lw+/qsTd8y1u/iUP/yP9w2S5pVg9ridH8rGi6ztuNI2SO8Wr/ePSDV3Ox0cqh+Rm0Gv8PHG4t56KzU7biv/G2EX1iAAAgAElEQVTbUS+yszzYUqyVoj90IWXyDuowsW9mOrGPbuCK63Sv2PKNPOX4aeTsXx9Cd/+fcITDXmZlGcjbZJTzhnnXE7Q2TMMTDsrbx1bU84DKVo2GvcxMj6b3onyq7RYu7ppPTsxdRDsnX9V2VfOFb1+l/PAsWa2HsPJ7KVvYqfh0Ku1ajWVzpewsZhhaENNtOlvOmLDXHOS5zmF0XnQi4Aqs0reBcpl2W/cS030W286bsV54n+FxEejaDuSVQ1dprD/Gwh7htH/2YMCVSNRiWI7JYP2wUFe6njGxqUzddomKK7VYMHHg2SxaD1mJA0sFn05tR6uxm3FgmYEhLILMiZu5YLVhtjT6XIyp5ytZTBrCiMicyOYLVmxmS5BFGIW/Qsg9hhYxdJu+hTMmOzUHn6NzWGcWSROL378Q+ndvDN1nbeO82cqF94cTF6Gj7cBXOHS1kfpjC+kR3p5n5QnQkdfvCcti0roS6u0NlKwYSJx+OB8YnTHk3nKn3q615DM2HSp1Cu7veaNfNFnP58vWN+ydQVp0bxblV2O3XGTX/Bxi7op2CmcN3n7917BZg7VqHDfsZUZa8LGrWtbHzkBjKGDsaMZ+8HysOm4az/HGg5E8tPxHGtHKZwa0dIRq31XHqA8YaZbfOwNDyDGqYnuocyfqmlK1b/7ma/5FWzi3jCN76FjGjRvHuPGPs3BHWUi3mHxb9hLOEowOkQxec8Vdl/nf0zE4V5wtB+bSTjeUFSdPc/q09F8x742KJ23WF1hkoZBK/OPbnfsi7ZRJeyW7OMSt1K41/3kyI0fyYb2vFcr3VmqN5/nh2008kRZL3jZJyTgmZU/dYDk4j/b6cWyRhY7/rRltWw3EDP0Aj4ZQTvwWvpjVhuhH1in2O5vYPTWJqBEb3GLWu7yyDwGOLf9mukHPmE0+FziWL5jVJppH1in2+Jl2MzUpihEbpNU+rb77tKUUNxp124qX0SOqI1PWn6IqyIKUVHuw87wm/IPPkmF4yrnP3uH7qIfecqxgayRUr3qaFGPNjANbMct6RNFxynpOqQCwSGNAPwZf17nJW2sxnv+Bbzc9QVpsHnLI+vlNYzzIfotjwifX3NXW/f0xdLET2W7yFs6WL2bRJvoR1in2lpt2TyUpagQbqm0UL+tBVMcprD9VpS0s3K1JoXaI+VmpTP3MYYPl4LN0iBnEe2VO5ayMLWU5+dh7/Bx8NgPDU/9yTOb2Mlb2j+KhtxwrsqoC1l1v8DwQbI+zdIHXIXIwa9xK38y/pxvcq1Zq7arnC7dRzgMLB+a2Qzd0BSflPHia08XvMSo+jVlfWJxiMJ7Ht7t2iFs4OK89+nFbAl6YKuMffHNZE9uSWUfQxS3SreQ/n0nkyA9RT7sBYlj2t0o/fLdqWA4wt52OoStOOueH0xS/N4r4tFk4sMzAEDOUDzxJ11s4a+Qrh/iJYegH5e75ydczfu9DyT3xj+Nx1UHmtdczzjGxeFcXQv9SFXXZy1bSP6KLR4Rb83k+M5KR8gToGC9xEz7x+KX+74zV63lcSiDKsabRrstIa62R8z98y6Yn0ojN2yYvRh2a34HIwWs8F79maR5yrjhr8XZV7H7VsFmVtXocq49d9bJu89wHvmNIym3SwkSQ2AmUv2X+wfOxu6lAZb2Es+vMYPnMV4e4zne9avRda4y6qnG+yrkm5Bh1FQ5ge4hzJ6qaUqNvruab8KotnG/GHmfTNvL0iUz5p2PVV7JXucfZtGUc0S0SyeqZQ06O67/7GbX8JDanUJAmNVfpyjVDiOy6hFPOi3dr0UI6Rw5nnY92dHCxU7b7JQa0i6d1h2x69uxEUpiOCVs9wllZt7XgRTpGj2FzEOHcVFtdAtXRRj0fjowgdeY+xSqNja+XdCUi969uMau0R9O39R8yMiKdOft9ltvlv6cyc5/i77avWdI1gty/ng/YlnfffVpWJlzNuuspXjeTXEMEusyhLNh2VtFfZb2Bz/Oa8Gv+yROpyfRfuJF/fbaGaV3j6LlMigtANaFKOc2zmtpUv3mz8E+Y6vVBffE6ZuYaiNBlMnTBNs4q3OAiUP/hSCLS5+DrOuxl7H5pAO3iW9Mhuyc9OyURppuAHLJNHQ9Kvzkbtnw1h/Twoayt8mYk25M6E++QWULXiFz+Km3DqC9m3cxcDBE6MocuYFugTrk6p3iVVqfahHVk1O/+wB/+8Af+8OJ4ukaE8/CK8w4BHsBGT3GlcIaafz5BanJ/Fm78F5+tmUbXuJ4sO+lIBGoCVlq9DSUPeNr1HJm25aFPnIInfXnvk1RrVytOPK1IRya2jIumRWIWPd15MIec+0exXOqjHycrBS92JHrM5usQzk1tq5I1QyLpusT1YJKVooWdiRy+jsBpVyWGtfrhK5xNWxgX3YLErJ6K+SGH+0ctx4HFM87dPJVtaOUr5bnuCjQOmpB75JqsBbzYMZoxjonFu/Km9q9yDUMiu7LEMwGysHMkw+UJ0Hu8yA1Z9jMnPZyhH8gD3vOQt0a79rLdvDSgHfGtO5DdsyedksLQTdgqx+m2PD2JU/7pnpNR7nHW4u3d+4BzkbQVxm2zKmv1OFYfu+pl/cz0u/iUTA/w0Lxa/g5wvjIfq+Z+L+EcWj5zaaZAfbl5uQZQjVE120ObO1HVlE31qz8d37/8PMLZsodpKVGM/NCTYi37ZpLqXHE2fz6NFN1Y/h5w6cI/ETRJOEsDOl3Hr5c7toFgPcz8DH2IwtnM9omulW8Hyqba6i2czeycHI/usc14no0ys2eaAd3ojYETiK8Hfd+bdzApLo68rZ4VRfkU804mx+t4bLOnJcx7mGbQMXqj5Ad/rt5i0ach5YDXrNtZ1mrk4OtDSI4ZzGrX6qJPtfJbn/OUgtd69EU6dxzJvNl5jHp0AnOW7+OSa/+heTdPJSm/6UPqk2clUFlPU/3mzaKpceDqpBXjwdcZkhzD4NVlrj+6X807JhEXl4ev66SLynTdr1ku35cG6+H5ZOibKZx3elLota15xMVNYofPirN552TidY/hHTLTMOhGI4eM03Kr8SCvD0kmZvBqd1+CH9Tx6ZQUWuVOZ+myZSxz/vfckDTC73+V7+VdQwEmH3eFyji1cvTFznQcOY/ZeaN4dMIclu+75H5ozbz7KZKcW3zk4lLMulfBQssD7mYVB5Y900iJGoknfVnYNzPVs+Ks0q563CkakQ/NfD4tBd3Yv3tWC5WnKMeg/PemCGffGG5qW00TzqoxrNUP83YmulbZpX6aP2daio6xgScIrwtkNy5lG1r5SnmuuwKNgybkHrkmNeHc1P6pihLXeNnpEbX1nzAhNo5JjgHvEc6q7UoXh+nofr3csT0GK4fnZ6CXhbOFPdNSiBr5oeeiybKPmanOFWct3n5oNWxWZa0ex+pjV72sn5n4jqHAwjmk2A+Wj9Vyv1I4N1HXBOrLzcs1GsJZ1XaXpepzJ6qasql+dbUZ/DUE4dydJSfqaGhokP8zma3y7Svp6vPPc5awPcTvDfHaqmGvYN0IPfHDVssPwdmr8nn54Tjudu5xtl/dzNjERIa9+4N7sNuvSU8PS7dyXYPqOlecTdt5PDaB8VscDyPVFr5MX12oK86SqE1BP+ojx75OaddhE231tt9O+YZHiY3tz5vFjtutljNrGJmUyOiPygP2VXaluYjVz77AR98F2B9nN7JmmJ7ER97nnCQobeV89dY77Pn/ytnwaCyx/d/E0ZSFM2tGkpQ4mo/kW5r+XL3Fok8QKScXu3rd5rPHOVnhsLXxzOs8ENmXN8/579kIdp5S8F7bPpHE1EEs+O8PWP/RZj7ZdZgfqp11Sbd1uofR6fnDXMNO1eGl5Orvdu89VdbTVL95s2hiHJjPcvxkhWNVvPEMrz8QSd83z/kABbtxDcP0iTzy/jlZ/NnKv+Ktd/bw/25/nNiE8ThCtpbCl/uia86Ks+Ee9A8u5oC0BcN2njXDE4gduV7eTuTFqHwDj8bG0v/NYse2KMsZ1oxMInH0R5TbzZw9fhKHWxs58/oDRPZ9U+5T45l/sHDucvZXuTYtK7pa/Q/GJaTw5C7vCzvr8T9wX1g3lkqrZsrYUhR1HCrj9BrbJyaSOmgB//3Bej7a/Am7Dv+AJxyW0T2sE88fvgb2Kg4vzUV/t3PfZYh5wK95acxXrGOEPp5hq6UHa+1U5b/Mw3GeOJO2HAVrVz3ufFuzc3XzWBITh/HuD64LHTvXpG8SklOh7wVG04Szdy5raltNE84mtRj287dPP6QL/BQ9oz6Sd9NLSZfNYxNJHPYuHizX5G/6cGDRWHHWyFeB489M0epneeGj7wLuH6cJuUf2sppwbmr/NIWzgXv0D/LHg9IzQjbOvz+chNiRrJfyvpK9arsmtj8eS8L4LcgzZ20hL/fVOVec7VSsG4E+fhirpQeH7VXkv/wwca6xpsXbN+zlOV7FZlXW6nGsPnbVy/qZif884MXTWUAz9lXysWpZpXAOMZ+5soh/XzT6rowTubDPGPWpUDmPyB+pxaia7SHOnahqSo2++dgeyltV4Wwve49Bkf/Jf/zHf7j/+8/wYaytBGvhQrpEZ/Jc4Cfw/NpuvPA2/6Xrw2vykhKYTi5nYHJLdKlZpCd3YtyyWTyQNIkdsmdt/LhlBt3jokm5rzd9cjphSMhk7l7pQwv757bH8NRut6iuXj8Cfa8/4fqKaNuppXTXj2ajYnHVY1AtXy3oiV6fQZ++3fhVv6lM6JXMZPmKz79uW9EisuNdq3t2qnZNo13LaAwZ7XnkHWkvZdNs9bPfdpaPp3ZBF55A+04ZtI5OpNfcHVyStaC/PVI/7OXv8puwVkzdHXgYmL/5GyPTwols3YFMQxyG/q9zzAS2sx8ztYuO8IT2dMpoTXRiL+buuOTcn+rflnffPQTlI8t+5rY38JTTBrW6q3c+TdtYA5179SQjIY7sWTuRnkvx/RfsPMv+ubQ3PIXUlL30Q8akpNB7zCQeHz+Gob3TiEkawqrvJWHeyIWNebQNC6dVu3RSu0zklTkPkDzZsdqirEf6aqamxJg3iybGQfVOnm4bi6FzL3pmJBCXPYudgQBg5pu/jSQtPJLWHTIxxBno//oxTLVfsaCnHn1GH/p2+xX9pk6gV/JkHIsU/n5THQ+Wr3gmI5txMwfRNrENmak6ItJH8Z7zWzV8GZ39eCpddOEktO9ERutoEnvNZYccnNXsfLotsYbO9OqZQUJcNrN2Gh2hIe3Vjn6IN//X/+KobssEEtOm87m3bgbbSZZ2j6THsm/kbyhQxpZ3nCj7a6f0wzGkpPRmzKTHGT9mKL3TYkgasgpHOFxgY15bwsJb0S49lS4TX2HOA66xHloe8G7b9c7EyeUDSWqpIzWrLSkdRzF5QJJ7xZlGtXbV4s5Vv+LV9iNbZnQnLjqF+3r3IaeTgYTMuThSofcYlGK6aFE28RO2Bt6qoRhH0lYVv1zWpLaqWT9CT68/uX6owMappd3Rj96ouHum6IdaDPvkEr9+2KvYNa0dLaMNZLR/hHcuNGL7cQszuscRnXIfvfvk0MmQQObcvfKc4B3DTht82lDLV9K2AL/4s5fz7m/CaDXVM+8oetfE3CMtaBSxKDveeafTuybpXZP6V72eEfpe/MkzAbK0u57R8gTouNDU9R7BkA6tSctMRRfZltGrv3Nsl/Ppq1q7tV8toKdeT0afvnT7VT+mTugl51bZetNJlg9MpqUulaz0ZDqNW8asB5KY5JjQNeYe3/5r2KyR51GLYxxjN1keu+kkdxrHslkPkDRph0NPqJb1tTPAGPLhKZdQjX31fIxaWaVwJrR8FlgxOPul1ne/fjUl1wCqMapie8hzp4amVOubr1tDeK8qnEMo36xT7NdKOXW0kO8qArvT3mCkpOAw+cdPc7khgNK67tZtVJ05zpGi89T4z+0atdqpu3CC/KMllCvMbp6tjdRfKuZofgEll+XN1Co22DGuf5SUnospVDvVXMHpwnwKvit3X2DIlTbWc6n4KPkFJWg2pWJFwI9U6rZUnqEoP58T52tUHyRTP8/Kkd9l0WrcPxyrHpIRtlPyPu3+f7vsfpCnwfgNRwtPcyXAPmJfu6/fb02MA0slZ4ryyT+hHXPmitMU5hfwnTLAbFWcOX6EIg1+vv1Te3+t9BRHQ4iDxvpLFB/Np6Dkso8gs1B5poj8/BOcb/pAUjMttM+sR/hdVivGKb7KznZK2oPdn79JXxEi/2vA+M1RCk9fCbCvvnl5oP7SKY7IecAc4EcU1NqFpsWdnQZjCQWH8zl++jI3LhUGiuGb1ZY0VpsRw/Y6LpzI52iJIp/ZGzCWFHA4/zinLze4x39owSNp3dBzod24nkdTerJYNelCU3KPpp3N7Z/cgOcOjamhjGJpvlXmlUBGqLRrqzrD8SNFgce7/Rqlp45S+F2F95zjaiNk3qHZrM5aLY7tyLmv8DsCSw+1sq7OuF4DjSHXZ4rXEGI/aD4OVrbxe17tHcmv/9v1hQ3NyWcuW5vSd1eZG/GqYnsT5k51TXnj+vazCucbgfuOq8NaxOLevVhU4HqS/k4iID2A1IWoX03h3c8L+PrkUT57ZzK/ir+fPxcH2LZyJ6G5E/tqLWJhlyh+NeVdPi/4mpNHP+Odyb8i/v4/89OGg/fDgXeiK37ZfbZStLg3vRYVeP/C5W3RaY8IVazz3OKW3442/7RI7eUn2LV2Dr1iUpkh3376adu/01sTwvm2iwArDddcT8PddsY33+CGH9j56kweG/QwfXP7M3zSC7x/pEJ1Fbv5jYoablUCDT/s5NWZjzHo4b7k9h/OpBfe50hFk28jNbN7NorfGc/wVw4HWNVuZtWi+C1BwNpwzf3Q6S1hUMhG2Ph6xTgefa3gNrL/drQ5ZIfckBOthX/h0Yf7M27xLue2zhtSragkRAJCOIcISpwmCAgCgoAgIAgIAoKAIHBnExDC+c72v+i9ICAICAKCgCAgCAgCgkCIBIRwDhGUOE0QEAQEAUFAEBAEBAFB4M4mIITzne1/0XtBQBAQBAQBQUAQEAQEgRAJCOEcIihxmiAgCNyBBOwmqq7U3BEP/TVeu0p5lanpX+t2I8LCXE1F9e3zvQ83osuiDkFAELg9CQjhfIv6zXp0CX1zfh+SdddKv+X48WMcP36Sb89d8fmu3ZCqECf94glYObasHz3m770tRaDXeGgs5cD6tez78WZ/BaGFr1+5n5T/Wu7+caXrChPrMZb168H8vSF8sfh1NdDcQjb+d80Y0qNjSGyVycw9N8fOxtIDrF+7Dz+32X7g7f4p9Fp67BeRu6zHltGvx3xuWXc3N1wU5b3GpeLv4lAQ+CUTEML5FvWu6ycrNc1r/JHlD91LWHwaGR3SSIy8F33nPN499cv/nmdrwV8Y+9tVfHuz9ZOmE26HE27v7xr2Gg/1O3gyzcCEj6/e1NXRxh/eZkDWGNb/2Myvt7N8yew0PeM/UfvFop8xhmwnWNQ5kodX/Cj/EqrtJo2n+h1PkmaYwMfST727/9m5tG4UWYPe4fQv5Fs2LV/OJk0/nlvV3W70N+DAa1zegPpEFYLA7UDgNhHOVmrLy6g0KROuA2+jqZLSi0ZqtBZJLNUYSyuob+KkYG+4SpmxCrN/0xr+lWwup9Y9GVioNpZS4WdAI6bKUi4avW8Hh5yQ5J/djKDny98idc1e9zVv9NcT8fAKzinne0sNxtJy6gL239dWqWs26itKKatsCOE7ki3UGEspD1w5ENx/vhAtNUZKy+vkvnh/5s/PtH0icWmz+dLP91r2eGoO5l+1uLJUGymtqPe30VZPRWkZlQ1K8J621I8k3kauXk9ZNd9a6ygvu0qDPYhwVivrY3AwVj6nBXhroebyZWrcY8GOqdJIRX0QThJH41WUKEIaD9ZaystrVb+v1lJzmcseQ7CbKjFW1AeI8UaunTvCFyeMAX4FzT8WA3Qaa105ZVcbsAcRzsFjPVBt6n+z1pZTVhlgm0WjicrSixjVEqT5c55OSeLJz65jq4TEvKwS/9Rsp+FqGcYqs8bFjQVj0ZcUXrgWwAfOPgdtw4eJViyHWo+9gatlRqp8k74qSyt15WVcbbATSDir5ROvXvxS5ymvToo3gsDtTeBnFc6W/S+Q02chh10TqrWApX27Mm+PlMCtHFmcy6CF77FkYFv0UeG00HVh+tZSR4K1FrNqXDZJ+niSU2IJ13Vk0oYz/mIGG2c3Pkl2UhIZndqR1GY0ay80gmU/L+T0YaGncQqW9qXrvD2OidJ+hX1LfkObyHBiYiKIbjOA1wrNmuWsRxaTO/Al3prTnfjIaDq/WIDt7EaezE4iKaMT7ZLaMHrtBTlqrMWrGJedhD4+mZTYcHQdJ7HhjEPZhiQUpFp8hDPYKX/3N4QlT0PGSC2FK8ZyX3IKmR3TSEzuxeytF2SGgWyVqqwrWkledhzhkTqiWoaT/OAzbDkXUHFTW7iCsfclk5LZkbTEZHrN3oqEV9N/MgHF/2oLWTH2PpJTMumYlkhyr9lsdVQUgN95KjaMJz0unLvuiSQ+OYW0MWsotaNij6It6TCYf9XiynaWjU9mk5SUQad2SbQZvdbZ1zqKVuaRHRdOpC6KluHJPPjMFoIgUxgixfhDDF+8igUD0tFHR9AisgOPrS5xxKBWjKr4Vo6DzxeQmxRGeFQU8d2mMHNoMrrxnzhvhwePC4WBjsMgrEIbv6tY1D8NfWRLwlKH8XZRCZum5ZAUE0GLiAzyNpx1jucjLH5oOItXLWBAup7oiBZEdniM1SUOMec1HqxH+WPfHH7/lXTF5MgTA196iznd44mM7syLBa6E4jBfjvNBC1m1qD9p+khahqUy7O0iSjZNIycphogWEWTkbeCsU8erjctgY9mLmb38/2fvTaCjKtO93+9TkUyVqlQSMlRIGJIQZU7AgTR2o8iMgAxhaBRlskHQ0y1eoBHtc1taG2kvLSJ6GESwkcnWHGlYigyRBAIuogGP4YJAckMCOZm+kPqq6qvs9btr75r2rmFXhTDqdi1M7ar9Pu/z/J//M+x3v7uKLxblkhgWTlRULL2nz2FYkt6z4qzCdYWcIP532fXussF0MkQR3k5Pj1nbKXfGX8k7E+iZaJDiIyZcT7epG3GmF880dVuZ2slIxN13E2FMwpS9iIP/K0hutH3D0tzHWfzuMgZ3MhAV3g59j1lsd0yMcHkfyx7rSGR4NNEROjo++jpi6rQd+aO0/UxyW7A8E2QOjwHiKxUut0qOwOV9y3isYyTh0dFE6Dry6OtFWLChhqVQ9QWLchMJC48iKrY30+cMI0nvXHFWyycKI37mdUphq3agIXBnI3BLG2fLZ0+RYHI1eIBiZUb82U0T7aJ7M2tbGWahnoMvdCes+xKOiz2crZTPtxyiXKqrVn54YyC6zBcpUNZMsB1iYXoHJv6jVvKUteoCleIdU8tnPJVgYqajuxQn56vnUjE4G4vG/GfpaMjltaP1CJg5v3cNm4+ag44TC7wpLIKMKVs5b7Njsf5vDi1Mp8PEfyBpYK3igqSAaMLnbDlU7mySfuCNgToyXyxw6Ll3Nilx04Kzy6dxbmTv3C6EP/BnfmgB84EFZCYMZfUPIlAC1Z/OoHOH8WytEfDVVRrAwkwdvZ7Pp9wKQt1R/jwoFsOQtVzwXiA0H2BBZgJDV/8g2SBUf8qMzh0Yv7UGgSD+U1hm5sCCTBKGrsahZjWfzuhMh/FbqRFs/vGzNlK+YRwxKTPYcbGayw1W0VgVfRQTEtC/KryyHVpIeoeJOKhkpepCpdSEmg8sJFPXi+fzy7EiUHf0zwyKNTBk7QXlpD5HDozuCctk6vpSmoRmSlcNxmgYwfuVQlCuqfmW5r3MTtXRf0kBdYKVC58tJCf6LnROfquO9dIzEFahxO+90X2Yu+McFtt53hthJELficGvHeJKSxNHF/clvMsCDor9r3Uvs033EJY5lfWlTQjNpawabMQw4n1EKBSNs3huShzTPhU57cAwLCKDKVvPY7NbsHrxVOL5vdH0mbuDcxYb598bgTFCT6fBr3HoSgtNRxfTN7wLCyRF1OIyABe98GreO5tUXX+WFNQhWC/w2cIcou/SORtnNa57CQqSoyS72kXTe9Y2yswC9QdfoHtYd5Y4EiSln2/hkCNBYv3hDQbqMnnRN0HSWLGVKQkJTNl6keraZlqCzOvwVTuie89iW5kZof4gL3QPo/uS49hpJP/ZjhhyX+NovQDm8+xdsxkxdbp8KLnNfEA9z0h8CDSHEidVLrdCDo35PNvRQO5rR3Govpc1m8V91zYVLJvZOzsVXf8lFNQJWC98xsKcaO7SuRpnrU4pvaUdaQjc+Qjc5o1zCrGTd+LarWs9+DxdDBPYJt8qaGug8tyPfL/lKVJj8tgh/0z0j72E5X2j6DZ9AydrZRVVtThY+dcsE4ZxW2jw9rHqOEdxMEUP4/0q194OOyXL+xLVbTobTtb6vR1pa6jk3I/fs+WpVGLydkgzuoqM9/Q+x1LjHEbyoLksXbqI58b1JlbXnXn/eVlqXg/M74x+2CpOnD7NafFfybuMiU1l7pdWR+Os0BWsX86lo24k62X7EM35M0iMGsXGOuXs1gPz6awfxqoTTtmnS3h3TCypc7/EKjU0IfhPFGk9wPzOeoatOuHQ8fRpSt4dQ2zqXL60BsbPe6uGuj5y3VX86zrND6/sJcvpG9WN6RtO4qGSlS/ndkQ3cj0eyMzkz0gkatRGl7QAf8WmLwXjpE9ocp3R9DHjDQYmi0RW5ZoVNd+KTX7XyCGsu+zioUXitGPFWX2sSxXH38BYBW+c5f4XqFg9iIgezgtf8dq34EUyIkezSTReaoaNTPrEjQRNH4/HYJgsxbQiHvw0ztHD3scdckoDHA1b7GR2OhOJULGaQRE9nA2mpAgvZkQyWlLEM9g3LgNzUTaKQwu7EjlkHR7o/8Usk3PFWZXrHinSK1X/OzEsJSEAACAASURBVBtRmV1YD/J8FwMTlAmShspz/Pj9Fp5KjSHPJ0GKiwj5PJOUxDP5jtV9dd65fBXLZBegWDn4fBcME7Zhtoq2Ghi3xSdzKhrnoHlG8nGAORQwBeFyyHLA+q9ZmAzj8KO6c0abL5biwkzXSIasE/Ot4z+LKMe14uzS1U8+cX0k/f251ymFsdqBhsCdjcBt3zjHTfvUsSIr1rfCl+imG8dWsTkWKsh/+VE6xybQtWc22VmJhOknsd27cQaaStYzJ9dEhD6DYYt2cEZc4VItSk1sGh1B2ryvfb+BQHWc16qKixtNJayfk4spQk/GsEXskBQQTcjn5Uc7E5vQlZ7Z2WQlhqGftF0apWgUXHL8/ZUa5/YkPDyNeQt/z5LX32fPj67mw8y2CTraxWeSnZNDjuvfA2NYecKuKGQu0U2bRhORMod9sn3D9m+X0Ssil7+ek114AOZtE9C1iyczWyY75wHGrDyB3dk4B/Sfa0Lxr3kbE3TtiM/M9uiYk8MDY1ZyQry7EAA/78ZZXR/5hCr+VeVVEyXr55BrikCfMYxFO85gxSErZc4+GVfsfLusFxG5f5VP6ue1o3GWYyRuIZqXFs6w92uDcFTdt+YdeRjip/NPZy+kvKOiPlapaGCsQmmc5bbVrBtKZK9lnHTu+rEVL6Z75AjWiz2Wohl2aGD9eh5p4cMQoVDEg+JcPxgqDXCPlVY6xc9q1jE0shfLPIqwuHskIyRF1OMyEBc9U5rZkWcgfvo/3XlLcSctGNc9goL434OJ2y5bIS910zHOkSCpyH+ZRzvHktC1J9nZWSSG6ZnkL0FeU+PsWvEXFbZR+FI3dOO2Ym7axOiINOZ9LUsgTptcPhT1DZpnFD72mkOOEUG4HLIcp05p8/BVXQiMpXkHeYZ4pnsCTbnHWTWfKAz5edcppanakYbAHY3ArW2c858hMW4a7sQvJjnXykyQxkt8ACNN/xtWSvf2wXZ4IekG/42zw0M2Kg+uYGhSNEPWVjhWWRLlyd9xy9exImdh11QjxrztXPV2r1hkAo7zU8xk422VB1kxNInoIWvFToGvnktD/5uVju0J2Di8MB3DNTXOnocDZdOJVwd8MTMZ/fiPPSuashPkhcz1tmX3NGL1T7K10fUOWPbMxKQfy2avRSTLFzNJ1o/nY1ef7hki2SeupsobJ8WFj/xcyxfMTNYz3r8g95lK/MCyc4pzVdpxiro+bjESLoH8GxKvbJUcXDGUpOghrK0ws3taLPont+KBzMKemSb0YzfLJ/Xz2tX07fY0WU2fMCnGyNRd4oqzGteC+HbPTJKjRrPJ7TMr++akOPc4q49VKho4FiytjN+QGufd7k6fpk8mEWOcigiFi6uSbopmyIWh5wJbqb9nrDvPqDbO6nHpku3NRdf7YlzvmZlM1OhNnrtV1n3MSXGuOIfIdUmeqv/92CVvnMVtb2l6frPSsY0K22EWphtCbJzVeOfvIkfWOFt2MdVoJG+7T+Z0+1D0Q9A8o/CxiIZsDg/YQXOc7wVZIDlg2TUVozEPH9XVsLTuYWZyFKM9gYZ13xxSnCvOIeUThT0/0zqlsFE70BC4sxG4pY2zeOu7T1gWLx6+CkIth1/JxXC3ay+gb0GUN17mnZOJiZvINmn7QANFrw5A72/F2XKGYyeqHQ8NtpSx4qFIBrx51rGFo08YWS8e5ioCtYdfIddwt3MPqEDluuEY4kfy3llx07Sdqv1v8faeuiDj/BQzLJw5doJqaZWthbIVDxE54E1xmZWdk2OIm7gNhwlFvDpA73/FWVy1+Pd5LNspfl2U138+e5zlnwtc2Tqe+PjhrPnR1ZAIXBW/4UC2b9TdUIgL+VUbeSImhkFvlji2yFjLWDc6kfixH/rcCheubGV8fDzD1/zobvyEq+K3Fog3LdX9J9cS4Qpbx8cTP3wNHjWvcumSuL88EH6Ohj7ZMIYPHdvXUddHPmNg/6rxynLmGCccjqSlbAUPRQ7gzbP/h6qNTxATM4g3Sxx7Aaxl6xidGM/YD6sck1qKWbvgD3x4yrnU6lZFxMjEPYaH+eNBcV+4nXPvjSAuZjQbxH0H4u1bFY6q+VaoXs8oQyzD157FLvK74FUeMXr4rTbWrZ70IjBWrY3foI2z6R4MD/+RgzWi7ed4b0QcMaM3SLy7eY2zWlwG5qIHM4Hq9aMwxA5nrfh0qFBLwauPYHTlNVWue6RIr1T97yfXyBtn804mx8Qx0ZEgaSh6lQH6EFecg8yr2owKlawbbiB+5Hs4UmcV+996GzF1unwo5pugeSbkxlk9x6nq6gW3ULmO4YZ4Rr53VvpmFnvVft56ew91algK1awfZSB2+FrpYWChtoBXHzFyt3OPs1o+UUz/c69TCmO1Aw2BOxuBW9o403KezXmdCAvvQOe0FHpMeY15DyUxTVp1svL1/C6Ynsl3N2X24iX0jHWuKjfsZ1G2AUP6gwzofR8DZ0yiX9I0ZAtWDs/U7ebZTjGYuvcjOz0OY8+57BafNqKF85vz6BQWTofOaaT0mMJr8x4iaZpz9c/yHX8fnUp4ZAJdM0wYTYNYIT7hEmSc9ev5dDE9g2u7INSx+9lOxJi60y87nThjT+burpR0a9i/iGyDgfQHB9D7voHMmNRPml/80CVHOtFWxOIeOjJeOCjbDuAwT8Twb7+O5oE//+DbVIun2H9i2+w+GHXJ3N//QXKyTMRlzGev9AUh3rpKAzjz0Qx66MOJ65JFeoKO+H7z2XXRp2WXLih+2jabPkYdyff358GcLExxGcwXhRPEf071XX/sP21jdh8juuT76f9gDlmmODLm78Wigp9Q+xkzO7dHZ0qny8i3Od9iJ7A+rpmcfwP5V4VXdbufpVOMie79skmPM9Jz7m7pwTXsZ/hoRg/04XF0yUonQRdPv/m7cEEmVK3hsbAOzPCQwqmE4+JC338UQ7smkJqRgj6yE2PXnnL6OQhHVXwrXpidWDmYpPZ6UjLTSMqawPK5D5E4dZcjnlTHhohVK+O3bsMoDP3+5P4xEfvJV+hjGMtmcaleapT09B81lK4JqWSk6InsNJa1pxy3/BXxYP2a+V1Mzj25vjzz0t4dS2746zYwytCPP5U6L2TsJ3mlj4GxkiIQOC4Dx7JiTvMJVg5Oor0+hcy0JLImLGfuQ4lM3eW4eA3MdYWU1ucaezFLesY6V5Ub2L8oG4MhnQcH9Oa+gTOY1M+VW73mse5lTmoqs92/2BGEdwr8RVl2ipf0JHbSdulhWct3f2d0ajiRCV3JMBkxDVrheDhQkRvt6nkmyBwKC9S43Bo5WPju76NJDY8koWsGJqOJQSvEhwPVsTSfWMngpPboUzJJS8piwvK5PJQ4FcndKvlEYcPPvU4pjNUONATubARubeMsYddM5XdHKDp92bcpDIatvZayY99QfK7ef9PoGm+toay4gILj56j36v+aK7/jSNFpLvtuyZNuA1afLqKg8BRVrgVbp0z1ca6JXX+t1JQVU1BwnHNeCthryzj2TbHP+66R1+evQHNlKYWHCzh2+hLNrqdYVIS3NF2k5EgBhaWXgv6al9BcSWnhYQqOneZSKMIDzSs0U1layOGCY5y+1Ox+2EZswgPhJzSe53jBEUplDgpdHwt+/avCK2tNGcUFBRz34VwLTRdLOFJQSOkl+UZ7gcoNT5CcvZQi+dsSBp5VeXNzBSVHijgls8MFkzrX1HwrcLX8JEeKTlHtxV+HbLWxrtldfwNgRRvi1yVa/OteYTTTXFEi6ewHCvmIG/o6cFwG5qJCIeEq5SePUHSq2n3hr/w8ENcVZ0kH6v73Pd/zjp3asmN8U+yb9zznBH517fOKqbOa00UFFJ6q8m+/c9rW5JnAmoqftIbL6pIs1acpKij0ikV1LIWr5ZwU49dfoKnkE4Umv/g6pUBDO9AQuG0RuA0a59sWG00xDYG2I2ArZmn/fiwpdH03jFykp3H229fKT/25v3Y3zr94JH7untbs0xDQENAQuKMR0BrnO9p9mvK3PwI2mq96f7m4S2s7366awBOvF6r+2p3r7J/1X/u3rJrwBK97/XjJz9pmzTgNAQ0BDQENgTsOAa1xvuNcpimsIaAhoCGgIaAhoCGgIaAhcCsQ0BrnW4G6NqeGgIaAhoCGgIaAhoCGgIbAHYeA1jjfcS7TFNYQ0BDQENAQ0BDQENAQ0BC4FQhojfOtQF2bU0NAQ0BDQENAQ0BDQENAQ+COQ0BrnO84l2kKawhoCGgIaAhoCGgIaAhoCNwKBLTG+Vagrs2pIaAhoCGgIaAhoCGgIaAhcMchoDXOd5zLNIU1BDQENAQ0BDQENAQ0BDQEbgUCWuN8K1DX5tQQ0BDQENAQ0BDQENAQ0BC44xDQGuc7zmWawhoCGgIaAhoCGgIaAhoCGgK3AgGtcb4VqGtzaghoCGgIaAhoCGgIaAhoCNxxCGiN8x3nMk1hDQENAQ0BDQENAQ0BDQENgVuBgNY43wrUtTk1BDQENAQ0BDQENAQ0BDQE7jgEtMb5jnOZprCGgIaAhoCGgIaAhoCGgIbArUBAa5xvBeranBoCGgIaAhoCGgIaAhoCGgJ3HAJa43zHuUxTWENAQ0BDQEMgJAQEM7WX67GGdLJ2UusQsFBXXYeldYO0szUE7ngEgjTOTVz87hjHjh7lqPTvGMfLaq7N6JY6zn1/llq7/+G2o8sZ2Hche3/WGa6F8gMb+GDfTwSAwT84t8u7tiMsG5DD7/ffWCe1lB9gwwf7+KmNIF0vObcL/K3WI4i/bjw+AvU/7OOjtat5Z/1Ovjl/tdUm3C4DbjxWt4ulN0sPG0eXD6Tvwr03sKm18u1rD5D865WUtiWX2I6yfGBfFra2OAWJv1CRVtTGlnIObPiAfW1NjqFOHnA+Oz/+bRDJ/V7hqDlUYWrnXSsfbBxZNoCc3+9XE35bfmY7sowBOb+/7rop+HL9pV9fvAPyKxTFr5UzwLXGtFMt1ca55aeV5N4bRmxqOunp4r8M7sv7j1As8jmn5eybDIjI5tUAGcz61XOkGibyyXUJQp/pr8MbNgr/Mp7fvvN9G5reJnY9nYpp0kdcEa6DSjdbhHUvs1PimPbpjV1jaNr1NKmmSXzURpCulxy4Hr6/2c4Cgvjr+uHjzzY7P773BKbojjw0Jo/xQ7MxxT/J1iZ/597+73ljZSv8C+N/+w7ft6Uhu/3NvoEaWvnquVQMEz/hRqX8lh//xqOZ49jwU0vb7LB+xXOpBia2tjgFib9QlVLUxqZdPJ1qYtJHV7gpJSTAfMLF9YzJfJy3T9tCNSPIedfKByt7Z6cQN+3TIPJvv4+te2eTEjftuium4Mv1l3598Q7Ar9DUvlbOiLXxGmPaqZh643z2DR4Wm93rUB1a/Mqy0VhVwZVmAf/OtlJfWU5VY6DqZKX+0iXq3bErYK6ppLopSKJsMVNTfoHK+kArpzYaqiqoMctTk5mdU4ykPveVnxWSIHraGqiqasCtpjcr7E1Ul1dQ0xxA72DjFfIEmq9UUFlr8Ums9qZqyitqCDSN2CD62i0THqAQqMq11lFZXk1TIBeKHK6rpLy6Sf2CpFUYyHT2eRnEV34xUPG9tZ7K8ir8UTQku4RmrlRUUmuRcw0IxlFrPZcu1Xs4JZipqaxGQX25v+yNVFVcUfG9Cyg7TdXlVNQ048tGK3WV5VSrOdMlxnaE32eG8dCKMrccy5UrNCjMDOYLlzDHX1tDFRU1Zh9ei59a6yspr2r0w6HA8UAbfGfeOQVj6nN85ZVCWsw1lF+oJGBqcZkUyO+AajyJ48VYqKhBkZ5cclVzybVh4ZiyiqqGgBnMNbv0VxUDm5OHQoCip+ITUbi1/hKXPAkfwVxDZXWTm2MeRVq4evYbvjxe6XcrQSixaWusouJKM0KAIhuYc04t5PHnUixYXLvOI1htdJ/oeOEnP6rpJzRfoaKyFu+0gwov5TNaK4v5qug8V32ThPO0ILXEJayNfAD/jbNqDIVQk0S517X3EOOyUpl//TfOKvOqcicYX65TXveLdwvmmnIuVAbfEhWQdy4+hPJXlTPqugSL6VCmF8+5ZY2zUPUFi3ITCQuPIiq2N9PnDCNJ71lxbihaxfj7k0jO6EZqfBL9ntvOeSlIbXyzNJfHF7/DkkGpGCLbE5YynL8Vl7JlZg6J0RG0i0gnb+MZP8nURsk7E+iZaCA2KZmYcD3dpm6kTGrqXHLfZdngThiiwmmn78Gs7eW0CNVsnJiGMfwu7omMJSk5lXHryqUCHkzPwS+/xbw+sUTquvNS4VWO/NFxW8lRbxspXp1HT2M4kfoo2ocn8fDvtnFWpo9yvHrhEi7vY9ljHYkMjyY6QkfHR1+nSFwcbixmdV5PjOGR6KPaE570ML/bdtbZZKjY7c0i70KgKtfOmc1P0zMxkfSsziR2HMsHDgd6pNrPsPnpniQmppPVOZGOYz+QfGw78kfpFpZjR0gDR1YMo3N8Ml07JxHXIUnCf8Tqs7RYv+YPOQ+y+LALFxuFrwyg1/N7pGKplAPBfPX44tb4voGiVeO5PymZjG6pxCf147nt5x2cC2CXx3DxlcDlfct4rGMk4dHRROg68ujrRVhQ4ajtG5bmPs7id5YwKNVAZPswUob/jeLSLczMSSQ6oh0R6XlsPOOsZpK/jAxZ8AceTTWgi2hHVOYk1p1ysM8bn8bi1eT1NBIeqSeqfThJD/+ObQ4yYj+zmad7JpKYnkXnxI6M/eC8ZI710GIeyHqSdee8KqjtMAu7tqf7okKalYZLR4F9oTzZ9s1Sch9fzLvLBtPJEEV4Oz09Zm2n3DVdQxGrxt9PUnIG3VLjSer3HNudPAsYD7Tedx6sBKo3TiTNGM5d90RKeSR13DrKLSW8M6EniQYxP8QQru/G1I1lfht5/34PEqcu37+7jMGdDESFt0PfYxbb3UCo5RK4JiykOQfz8lvz6BMbia77SxS6Qk3pJseRTQ0DgaovFpGbGEZ4VBSxvaczZ1gSeveKc2CfuDjwzpJBpBoiaR+WwvC/FVO6ZSY5idFEtIsgPW8jLtrbSt5hQs9EDLFJJMeEo+82lY2OJA+hxKZQxReLckkMCycqKpbe0+cwLEnvWXFW4ZwCFkW+VIlrxSBQrY22I/zRvV3Okbt9aoSafsJl9i17jI6R4URHR6Dr+CivS0UiQD5SzBeEo7SilnDtfFDC5dU4t7UmEUqdCLH3EOPnVyNY+s4iHk1z5N/Irk+yttRxx9a7cQ6cE9W5o8oXyWWtz+tKjOVHSrxVY00+LBDvFPyy8vUfcnhw8WH3gpCt8BUG9HqePRJk6pxR1SVYTMt1DeF18MY5/D5+t6OYEydOcOLEt/xw6dpurClXnJvZOzsVXf8lFNQJWC98xsKcaO7SORtn8wEWZCYwdPUPUgMkVH/KjM4dGL+1BkG64jFxb3Qf5u44h8V2nvdGGInQd2Lwa4e40tLE0cV9Ce+ygINeq0Hiimrp51s4VO4k7g9vMFCXyYsFYjUQCWGiXXRvZm0rwyzUc/CF7oR1X8JxO1gby9kwLoaUGTu4WH2ZBlF2CHqGRWQwZet5bHYL1hYP6UQNzAcWkqnrxfP55VgRqDv6ZwbFGhiy9oJbH+V4NY82kv9sRwy5r3G0XgDzefau2cxRs5kDCzPR9Xqe/HIrCHUc/fMgYg1DWHtB7D7U7VbMqCgEQeTaDrEwvQMT/1EribBWXaDSizq2QwtJ7zARxylWqi5USrdtXQlF3BHScuav/Er/AH/6XgS8nr1zMzHlbaFSBNDyGU8lmJjpiCrJFvntX7mcUHzVGt+bDywgM2Eoq38QFRGo/nQGnTuMZ2uNQCC7FFg25vNsRwO5rx3F4a69rNl8FLMaR0X8TfcS3WcuO85ZsJ1/jxHGCPSdBvPaoSu0NB1lcd9wuiw46LgrIp1/N+0zf8umU00Izd/z1mNGDCP/g0uCuJPDcatQ2nljPsDCTB29ns/HQZOj/HlQLIYha7nQYuPQwnQ6TPwHkjetVVxwOtNe8nd+O+YldlcplpLFZVG+++uvMbYzkj39TfLLZHs0VONGgZKko6ldNL1nbaPMLFB/8AW6h3VniRiUmDmwIJOEoatxuKGaT2d0psP4rdQIgeJBjLvW+06BlbWR8g3jiEmZwY6L1VwWk4GtlM+3HMKRWqz88MZAdJkvIqUWuUkB/R4kniRftiO69yy2lZkR6g/yQvcwui85LjXn6rnk2rCQtvqYwojImMLW8zbsFqufxQiZcWoYNO9ldqqO/ksKqBOsXPhsITnRd6FzNs5qPhGxN90bTZ+5OzhnsXH+vREYI/R0Gvwah6600HR0MX3Du7DAmfBtpZ+z5VC5Y6XZ+gNvDNSR+WKBpGgosdm8dzapuv4sKahDsF7gs4U5RN+lczbOapyTYSG+VORLtdojHxekNipkOnK3skao69eY/ywdDbm8drQeATPn965hs7hJORAvFfMF4Whrakkb+CBHS7niHES/EGpSKHUi5N5Ditl7CMucyvpSMf+WsmqwEcOI96mU5V/JHtWcqMadIHy5xryuxFh+5OlhxHfVYk0+KiDvFPyy8NlTCZhmOha+xPGKnQhBOKOmi3pMyzUN7XXwxvne9sSYOtGpk/ivKw8vdSSg0MR7zlI0ziKBu0YyZN1l921Xy79mYXKuOFsPzKezfhirTpzm9GnxXwnvjoklde6XWKXgTCF28k7nSpZAxepBRPRwNLjijLaCF8mIHM0mWa32aCKdQUPlOX78fgtPpcaQt0Ps6ByE8MgF68Hn6WKYwDap4fO9XR9cTxPRw97H01N4SGfBypdzO6IbuV6239lM/oxEokZtdOrjPV5pheLI+i9mmQyM29KgeBvrl8ztqGPketmeOHM+MxKjGLWxLgS7ZeLkJA8m117C8r5RdJu+gZO1ruVBmSzxlnTJcvpGdWP6hpPIT5E3KdaDC0g3PcN/Stc6Dl9H/eotx92HVjTOwX0l51Qw31s5ML8z+mGrOCHx8zSnS95lTGwqc7+0BrRLbr1V5LthHN7u8pxj8+WohH8sk3c613CFClYPiqCHs3kSm9WCFzOIHL0JifrS+UYmfeJ5KK/x4yfRx0xhp1nZOFu/nEtH3UjWy/aVm/NnkBg1io11dkqW9yWq23Q2nKxVb548BgBX+WH7Usbeb+Ce9iYe+cNnXGwBdV8oBDia+9jJuEzGepDnuxiYIAal9QDzO+sZtuqEM0+cpuTdMcSmzuXL/xUgHrg238k5KWoYaKuGuI2i8tyPfL/lKVJj8pBSi8ykgH4PFk/evsfKwee7YJiwDXOwXBIoNwTBwtE4RzPs/Sp3npaZEvilHwzEhrVr5BDWXXZdYFn41yyTc8VZ3ScS9jIOCBWrGRTRw3nxJCV8XsyIZLRXwrc1VHLux+/Z8lQqMXk7JH0D5RyPMeJFYlcih6zDo6rIJeeKsxrnvBdq5PnSPYGfuHZ/JtqiXhuVzbijcVbUGFX9rBLmhnFb8KoSBOal7LmWYBwNWkM9hraFDx4p4itPTQ1a60KoSeq5ybtHCNJ7uPOvpxFp+ng8BsNkKS+4copkhWrP47LYD3eC8OX653UZ3i61RNr6iTXPx4F5p+SzeuOszhnPbL66BIlpz9CQXwVvnG/EHmfzDvIM8Uz/p9QNScrKryzM2yagaxdPZnYOOTmufw8wZuUJ7LJAcY2uWTeUyF7LOOncR2srXkz3yBGs984OCFTkv8yjnWNJ6NqT7OwsEsP0TNruaZzFhwxccm2FL9FNN46tARrn1uopD3ILTWwaHUHKnH2yPdN2vl3Wi4jcvyoSgksfVa82bWJ0RBrzvvbK3tL7KczZJ3vf/i3LekWQ+9dzfudR2i2bVV4IgsqFppL1zMk1EaHPYNiiHZyRqeCQ2kTJ+jnkmiLQZwxj0Y4zEhauhCKthNb/k6dSkhi0eDP/+fk6ZvYykr1c5EHrVpxb6yslBt4XTWa2TdDRLj6TbDc/c8h5YAwrT4ia+bdLhiRNm0YTkTYPb3eJq9cBOSrHXxJWw7qhkfRadtK97aZ4cXciR6x3FEaf88G6fx5p4cP4oFbZOEv6pMxBSZNl9IrI5a/iNoymEtbPycUUoSdj2CJ2+DpTbp7ytVDDsTUT6do+hjGbqlH3hXKoggviR7ZCXuqmY5wYlOZtTNC1Iz4zW5YncnhgzEpO1AeIB67Nd956+DTOQgX5Lz9K59gEuvbMJjsrkTD9JKTUIjMpoN+DxZOPL20UvtQN3bitmIPlkkC5IRgWPnPKDPH3UgUD8448DPHT8aR8+R5ndZ94Y0/NOoZG9mKZJ+GzuHskI5wJX6jI5+VHOxOb0JWe2dlkJYahn7TdqXGw2DSzI89A/PR/uuuA4kEiNc45648bGgV+KnHtHiBekanXRmWj4Wli3DVCVT9HzUmb97Ws5jgmD8hLuQ3BOOqnNivzqMfQtvDBI0V85cGAoPoFr0nquckzlwtv1d5Djp1TaevXjvz7viz/ih+pz6vCnSB8uf553YOBqLd6rDmNduYnf7xT8lm9cVbnjJouQWLapWYr/t6axtm6h5nJUYze5OlsrfvmkOJccbZ8MZNk/Xg+9lyoyUzyOC4k8spGSgkwTc9vVjq2gCDuw0w3hNg4W9g5xbXq7RDaWj3lQW7Bwu5pseif3EqjW0cLe2aa0I/drEgILjvdp/l7YdnFVKORvO2e1UXpNMtupsXqeXKrZxYse5hp0jN2s4i/L56Bkp2C5EHlupS0UXlwBUOTohmytsL1pvKvrZKDK4aSFD2EtRWCYguB7chLdO82muefy2PME5OYt3IfF137LC35PJMo/5YP0RbXKpayMWytr5QYePvewhczk9GP/9ixsqu0xnPkZZfnA7DsmorRmIe3u1Q56pOIQ2ycd3sYdHV7HkbjVHZ5rThbdk8jVv8kSprMxKQfi0QTp/K2yoOsGJpE9JC1cnOCv245wxsPh5HxYgHqvlCK8mmaaUnnogAAIABJREFU5I2z5QtmJusZ7y9RBIoHrs133npYdk5xrGw7LwbFC/80/W9YKe0ZAdvhhaQbfBvngH4PFk8+vpc3zkFyybVi4TOn0jfeR2oYWPfMJDlqNJ6Ub2XfnBTnirO6T7yxV2+cxYY8Df1vVjq272Dj8MJ0DO7G2al1wNi0smdmMlGjN3lWZa37mJPiXHFW45wPIPLV2q94LmDtkQ0MUhsVOdhP7kZVPwu7phox5m3Hq0qo5COZDcE46kcfZR712NkWPnikiK889Yug+rlGBq5J6rnJM5cro4bUOMvyb9Mnk4jxyr+iVqrzig+nBuJOEL5c/7zuwUDEPqRYIzDvlHy2kP9MovQNKS58xdh370RQzSFqugSJaRctWvH3Ghtn8Qro35m3bCehftOPYquGUM36UQZih6+VHoQTagt49REjdzv3OAtXtjI+Pp7ha350X/ULV8WnqcXbfB7HucBVJa8cDPNOJsfEMXGbuEVBfAjgVQboQ11xFpvaZAxjPnTs8xSvtlqpp1J3gaqNTxATM4g3Sxy33q1l6xidGM/YD6v82ikpbSlm7YI/8OEpr+UNoZJ1ww3Ej3yPs2Jjaa9i/1tvs+e/q9j4RAwxg97EMY2VsnWjSYwfy4fSHhJfPAMlOwXJhSByLWc4dqLasRLaUsaKhyIZ8OZZuTewnDnGiWqHHS1lK3gocgBvnm1RNM5Xd04hPuVxFv0/77Phw6188tlhfqxzbv0Qb731CSPrxcNcRaD28CvkGu5275uUF9zW+kqJgbfvBa5sHU98/HDW/OhiocBV8RteBALaJTdeqFzHcEM8I987Kz0IYa/az1tv76FOjaM+jUwIjbPpHgwPL+WAuAXDfo51I+KIGb1B2j6kwKdqI0/ExDDozRLHFihrGetGJxI/9kOqBAtnjp3A4aoWylY8ROSANyVzWsr+weL5K/m61nUL3mGlcOlfrF13iApnY2n+YTVDY2N4YmN1kLiRo6S8+JE+kTfOwhW2jo8nfvgaPG64Kn3biBAoHuquzXdyrEQ9LGISN4zhQ8cWfsw7JxMTNxFHammg6NUB6P2sOAf0e7B48vG9vHEOkkuuEQtFvLvdYqF47QL+8OEp510O9weqGAjV6xlliGX4WvGhZIHagld5xOiKVXWfeGOv3jib2Tk5hriJ25CyfEMRrw7Qu1ecA+UcjxUC1etHYYgdzlrxwVihloJXH8F4t3OPsxrnPEIcr+Q+U4tr+bggtVHpE9/cjap+ApXrhmOIH8l7jiJB1f63eHtPHQF5KbchGEf91GZlHvUY2hY+eKSIrzwYEEy/EGpSa+uEau8hYifl3z9ysMaRf9/zk39FK1TnVeNOEL4I15jXLcVrWfCHD/FuMxR4ox5rHj8F5p2Sz+KWwD6EZb3I4ati6B3mlVyDpy9UzSFqugSJaY+iIb9Sb5zP/41f6x/k9R+896jaKFrcA13GC34ewPM/d4uXLPOJlQxOao8+JZO0pCwmLJ/LQ4lT2SX1IXZ+2jabPkYdyff358GcLExxGczfK35o5ev5XTA9k+9uqus2jMLQ70/uL7m3n3yFPoaxbJYtsjq0amD/omwMhnQeHNCb+wbOYFK/JKZJV4S+cu3FS+gZ61o1Eqj9bCad2+swpXdh5NviNyi0Tk8f3e1n+GhGD/ThcXTJSidBF0+/+bukfaA+5zphFarW8FhYB2bkuxo2D96W7/7O6NRwIhO6kmEyYhq0QvpyevuZj5jRQ094XBey0hPQxfdj/q6Lzr2qwez2yMf6NfO7mHjGObeq3LrdPNspBlP3fmSnx2HsOZfd4hMRsv/qdj9LpxgT3ftlkx5npOfc3Y6HJr6eTxfTM4jTCOWbGJecTP9xU5k8cRzD+qcSnTiUd34QG+4Wzm/Oo1NYOB06p5HSYwqvzXuIpGm7JW5YZXJopa+C+t7+E9tm98GoS+b+/g+Sk2UiLmM+IkUD2SUzXWy9+O7vo0kNjyShawYmo4lBK8SHA1U46oU/1LFhlIF+fyp1NjF2Tr7SB8PYzY67GNb9/C69JxPmPE6n+I5kpOiJSBvDu85v1fDG58xHM+ihDyeuSxbpCTri+81nl7gpmTp2P9uJGFN3+mWnE2fsydzdlZI50t5I3a9487+UOUKoyWdhHyMRMWlkZXUmNjKWvjO3UCbdLVCLGyVKSh3FC8JilvSMdd4lAvtP25jdx4gu+X76P5hDlimOjPl7Jf8HigeuwXfeegi1nzGzc3t0pnS6jHyb87X7WZRtwJD+IAN638fAGZPolzQN2WKT07BAfhe/8EElTn18b6d4SU9iJ213fA+yai6Ba8HCO94lA4Qq1jwWRocZnvzr9liDGgZmTqwcTFJ7PSmZaSRlTWD53IdInLrLkcdVfOKNPXUbGGXox59cvwlgP8krfQyMdSb8hv2LyDYYSH9wAL3vG8iMSf2knCDqGVJsmk+wcnAS7fUpZKYlkTVhOXMfSmSqozipcs6NhfhC4TOVuFYMAtXaqJDpm7tFUWoxgeU7/j46lfDIBLpmmDCaBrFC+gWTALxUzBeEo35qszKPyg29dj7IpcjrpGS7WgyFUJNaWydUew/pokNP/1FD6ZqQKuXfyE5jWeuVfx32qOVEde6o8gU7rc/rAlVrHiOswwypBqvhrRZrinGBeOfFr5bzm8nrFEZ4h86kpfRgymvzeMidR9U5o6pLkJhW6BrCgWrjHML4Np0iXC3n5JEiTlX7NoGiYKG5ktLCwxQcO82lZmXTde0T26ktO8Y3xeeoV9b6EEQKNJ4/TsGRUqpkKrdNzxaaLpZwpKCQ0qDfWCJQueEJkrOXUiTtu/ajsqWa00UFFJ6qcl9YSGe1NHGx5AgFhaUEncaP2IBvqcm11lBWXEDB8cBYW2vKKC4o4Pi5ej8Pndn45t8y6TDhH47VI1EJ+0lpf/agv19yP7DUXPkdR4pOc9lnD7Wv1tfuK3++F2iuLKXwcAHHTl9CTlF1uzx6WapPU1RQyCk5oWgLRz2y5a+ulp/kSAi+b2m6SMmRAgpLL3n9MIWVmrJiCgqOcy7kwLFy5cfjfHP4KKerfAl77b6QWyYlCipLCzlccIzTl5rdvJDOChQPtN13QuN5jhccodTlO3stZce+odgvl5U6+/e7eC3YljgNkkuuAQul1iBUbuCJ5GyWBkpAqhgISDwsOoX/lB/YJ956BDu215Zx7Jtiv1wNKTaFq5SfPELRqWplHnVNLDQH5pzrHJ+/ocd1sNroI9r7DVX9LFSfLqKg8JSijokiAvJSLr9NHJULukF8UNMvhJokanhdcpN7td5Mc0UJR4p88ZajoT6vOneC8aVVeV2oZMMTyWQvLfKqAd7aOo7VYk05IjDvFOc1V/LdkSJO+y3o6pxR1SVYTCuUUD+4pY2zumrapz4I2IpZ2r8fSwr9fTOuz9k/gzdsFC/uQdR901nzRSHfnjjC529P477YB/j3Eq+tKj8DazUTNARubwRsFC/tT78l/r+b+/bWXdNOQ+AmI+BunGWrbDdZhWuZzla8lP79lvCLaTOuASStcb4G0G7dEBvNV11Pxt06LW7qzM0/svvPc3jy8UcYkDuIEVP/wHvfVPtZnb6pWmmTaQj8IhGwNV91/zjBLxIAzWgNgVARsH/LqglP8LrqrwaFKuwmnmdr5pfWZrQWXa1xbi1i2vkaAhoCGgIaAhoCGgIaAhoCv0gEtMb5F+l2zWgNAQ0BDQENAQ0BDQENAQ2B1iKgNc6tRUw7X0NAQ0BDQENAQ0BDQENAQ+AXiYDWOP8i3a4ZrSGgIaAhoCGgIaAhoCGgIdBaBLTGubWIaedrCGgIaAhoCGgIaAj4ICCYa7lcH8L3gvqM1N7QELhzELi9GmfbUZYP7MvCvTcg8G6E7JZyDmz4gH0/3X5fjWY7sowBOb+/wUy0cXT5QPou3EurPXYj/HGDrb2Z4m1HlzOw70KkULhtedbExe+OcezoMY4Vf8vp83Wt54EM1JvD2RbKD2zgg30/+fzynUyVgC8Vfgl4lv8P2jLWv8Sf57st5QfY8ME+bsO0eucCfjPyrfVbXnsgmV+vdP0g0zXC1Qpdb07OCG6HS4/9rS6EwWX7nGE7wrIBOfz+pkzmM3vQN9Tj92b1DG2YJ6iFcHs1zuJvsqcamPiJ748lhGCL+ik3QnbTLp5ONTHpoyvKH11Q1+SmfOr6mdobO5n4+/CpGCZ+EtIXpSt0uRH+UExwZx9Yv3qOVMNEpFC4jjyzFf6F8b99h++vw7Vey08ryb03jNjUdNK7dCQ+8l6i0x/n3/7xX63ng/hDa3tnkxI37QY7roldT6dimvQR4q+Qt/Y/hV9aObgtY1s51R19etOup0k1TeIjyUE2Cv8ynt++8/01Xejc0UBcT+VveL5t4ce/PUrmuA381OofFvMytBW63pyc4aWfn0OXHp/ejK9svp2+H9pWyF/G/5Z3ZAVFGb/eYN2snqEN83ir7Of4tmicbY1VVFxpRggQMPamasoramgOFJC2BqoqajD7KYTBZFvrKymvarxJSdlKfWU5VY2BuhYbDVUV1PgzxI/z1N5yBbL8nBZzDeUXKgnpTpq1nsryKvyqamukquIKzYI/crZgrinnQmW939XHYP6Q6ys0X6GishaLj1/tNFWXU1HTHPD7nG0NVVQ1KL/z2vc9FX9Y66gsr6bJn6vsTVRXXvHPR/Gz8gpqApIVRD0qasx+LrZsNFZVcKVZIJQmKxh3/c1j3jkFY+pzfOWzMqKChdwpstctZ9/g4YhsXnUlTctFvvy/h2Fq34ln/ul1ManGJ6fM1nLWWldJeXVTkNgVaL5SQWWtxQ/eMmNUX6r7RT2u1Meigkto9ikVDzhGZR6lBMeRP+64zlPjXcCYVZk/oM7ShGZ2TjGS+txXPvlEHXeXto6/AfVqU7yCam0SmrlSUUmtTwILEmtiPatqCPH7stuWb9V8KSJnrb/EpXpPHhXMNVRWN/nm3ZarnP3mS45X+ukc1XKpzE3BaoM/Xf3lDJlI98vAfA5eS8QYvXSp3uMPwUxNZTVNsn7EpYfYONud/YzsY7ce+PGtP7s8A/y88tc4t5ipKb9AZSjFPQAvg8aTvz7LvJMpxlSe8y0oSsVvUs+A6jwSoQP3NUqNVY9ubeMsVPHFolwSw8KJioql9/Q5DEvSe1acG4tZndcTY3gk+qj2hCc9zO+2nXUUSts3LM19nMXvLmNwJwNR4e3Q95jF9nInXYPJbihi1fj7SUrOoFtqPEn9nmP7eV+qN+ycyX39F3HAvQhuo2h5Lj1mf0qT7Qh/dN4yUT0PaChaxfj7k0jO6EZqfBL9ntuOYzob3yzN5fHF77JscCcMUeG00/dg1vZyn+TUuEvU5WUOuHOTeDviV/SY/U+avNzsCmTpbVsJ70zoSaIhlqTkGML13Zi6sSxAw9FA0arx3J+UTEa3VOKT+vHc9vNOXQSqvlhEbmIY4VFRxPaezpxhSeidK862kneY0DMRQ2wSyTHh6LtNZWOZs/MM5g+5/sJl9i17jI6R4URHR6Dr+CivFzmMbixeTV5PI+GReqLah5P08O/YdtY5h8SJwbz81jz6xEai6/4ShVdFnni9Z1Pzh50zm5+mZ2Ii6VmdSew4lg9ER4myfzWCpe8s4tE0A7qIdkR2fZK1pS5nNFK8Oo+exnAi9VG0D0/i4d9tw6PaUnIfX8y7ywbTyRBFeDs9PWZtx0PXL1iUm0hYeBRRsb2ZPmcYSXrnirOMZxJMKty1fRNoHoHqjRNJM4Zz1z2RxCYlkzpuHeWCGhZyp/i+9mmcxVOEGj7JSyDiVys5K4WTGp+UMkPmrP0Mm5/uSWJiOlmdE+k49gNnLCnlCZf3seyxjkSGRxMdoaPjo69TZLFx5I8DyPn9fqkRs379B3IeXMxhV29gK+SVAb14fo/Dr0KVml/U40p1LCq4hGifwtqAY1TmUQgQKR6IO84TVXhHwJhVmT+AzrYjf5S2me3/39VsnJiGMfwu7okUc1cq49aVI7QmnwXUq23xilptQuDyvmU81jGS8OhoInQdefT1Iumnu4PVgcEvv8W8PrFE6rrzUpAfzmhTvlXxpYsH7ywZRKohkvZhKQz/WzGlW2aSkxhNRLsI0vM2ckaKbxsl70ygZ6JByikx4Xq6Td2II+0HyKVevCNYbVDRVZEzvOS67AiUc4PXksdZ/M4SBqUaiGwfRsrwv1FcuoWZOYlER7QjIj2PjQ4QHHfLjENY8IdHSTXoiGgXReakdZySFigcNd7Htyp2eZmiPFQ0zmr4K4cRiJdq8aTSZwnVG5mYZiT8rnuIFGt+6jjWlQu441ey/Sb1DKjPg1q+9YYphONb2jg3751Nqq4/SwrqEKwX+GxhDtF36ZyNs5kDCzPR9Xqe/HIrCHUc/fMgYg1DWHuhRbyvy2xTO6J7z2JbmRmh/iAvdA+j+5LjUkMYVPaCTBKGruYHsT4K1Xw6ozMdxm+lxmt1U6hcxzB9CjP3OH/m2nqIBekGRv5HFYKMwKrnmQ+wIDOBoat/kJKnUP0pMzp3YPzWGgSs7J1tol10b2ZtK8Ms1HPwhe6EdV/Cca/VTqHqPxhpMPHsf7p0OcwLGTGMWl/ts5qmSCi2Uj7fcohyqRew8sMbA9FlvkiBq1mQEcV8YAGZCUNZ7QCG6k9n0LnDeLaKwDTvZXaqjv5LCqgTrFz4bCE50XehczXOpZ+z5VC5ZCPWH3hjoI7MFwsk6er+kCkANOY/S0dDLq8drUfAzPm9a9h81AzmAyzM1NHr+XwclDjKnwfFYhiyFpESDk6EEZExha3nbdgtVloknni9p+YP2yEWpndg4j9qJaWsVReoFC+aJDn3EJY5lfWlTQjNpawabMQw4n0qBVG1hWTqevF8fjlWBOqO/plBsQaGrL3gkLN3NqZ20fSetY0ys0D9wRfoHtadJZKTm9k7OxVd/yUU1AlYL3zGwpxo7tI5G2cZz8DMARXuin4POI+1kfIN44hJmcGOi9VcbrBKmAbmptIv3kd+G2fxIvHDMURFT2Cb5DIVPnkJDJWztkMLSe8wEYeLrFRdqPSzNaSR/Gc7Ysh9jaP1ooPOs3fNZo6axXhLIW7apxJPLZ89RYJpJs4+GRR3vYL4RTWu1MeqxVlo9inBCzRGbR6lBMdWmYDcCcK7QDGrNn8gnV08EFfvrI3lbBgXQ8qMHVysvoxIWVRxV1oVWK+2xGuQ2tSYz7MdDeS+dhQH9fayZvNRzGp5x1kHwiIymLL1PDa7BavvOo7CONs159sQcsi90fSZu4NzFhvn3xuBMUJPp8GvcehKC01HF9M3vAsLDkrOoPTzLRxyFBesP7zBQF0mL4rFJVAuVVghlpUgfUCQfBdoe5dqLgypltxLdJ+57DhnwXb+PUYYI9B3Gsxrh67Q0nSUxX3D6bLgoOMCXMy7d7cn87ebONUk0Pz9WzxmFPuES2LxkGq80rfqPvCCSHmoqAe2wPgrR4mF1T8v1eJJqnuB+iwrjeUbGBeTwowdF6m+3ODGQvSJtG3lJvUMwXoTtTzkDVMox7ewcbZxaGFXIoes47KrWbX8i1km54qz9UvmdtQxcr3slq85nxmJUYzaWOdoZFJimbzT2URi5eDzXTBM2IaZYLIPML+znmGrTnD69GnpX8m7Y4hNncuX0lWSDDrhMpueiMH07H8izmQ9+DxdY8exWWwk5QRWOc96YD6d9cNYdcIx1+nTJbw7JpbUuV9ilYIqhdjJOyX54sziHF0MjsZDpglQy8cT4kia/qm0wmw9tID0uHFsqVGeJcnwt1/U1kDluR/5fstTpMbkscO9iu4ab+XA/M7oh63ihBOX0yXvMiY2lblfWhELXdfIIazzOIx/zTK5V5xdUmwNlZz78Xu2PJVKTN4OsdKp+9o1UPprlWQaxm2hQfE+WL+cS0fdSNbLNqea82eQGDUKkRKO5jaaYe9XeS4kpMBXvqfqD3sJy/tG0W36Bk7WyiqX5Gsjkz7xrO03fTweg2EyO8xWvpzbEd3I9bJ9s2byZyQSNWqjwyrRH7GT8dD1IM93MTBB7C7FAtM1kiHrLrv1tvxrFibXirOcZ1Z17kpNR6B5AO+tGqpYeOHvfRiocRab0biwEaxvUOeTtzxXw6R43w9n7SXL6RvVjekbTiJ3kWKcVcwlBsZt8WFR6I1zML+4JvSjo7pP1XEJyT7X3M6//seoz+MlwrFqFog7qrwLFLPq8/vX2dHAuwsvgbdqiLe9g+UzMT/55pI2xmuQ2mQVY9cwDm/qqceao7mKHvY+Va566O2gAMetzreqvnTiL+OBULGaQRE9nBf5Yjov4MWMSEZv8uRCMcc3VJ7jx++38FRqDHlicQmUSxV2BKkNoega4LkItVwYUi2R9xdCBasHRdDDuTAn2lvwYgaRozc5arGY342T+OSqy7hGPn5ST8yUne7GWeHbIHa5pPj9K68H7hP84O/+zPEiEC/dp/mLJ2muQH2WVFB8tmq48rjYON+cniHYPOp5yG1/K17cwsbZzI48A/HT/+lYoRSVlq/2NG1idEQKc/bJOln7tyzrFUHuX88pm1bJYBuFL3VDN24rZoLINm9jgq4d8ZnZ5OTkuP89MGYlJ7xWeUXRdR9PIC75aT5rsnDg+a50mPQJ9ZK+e5mdEsc06dIq8HnmbRPQtYsnM9szV07OA4xZeQK7s3F2rYCJYm2FL9FNN46tPo0tNH76FMkdJrO93qFLwuTtDl0kDDz/c5FXekeoIP/lR+kcm0DXntlkZyUSpp/Edh/5ZrZN0NEuPpNsGS45D4xh5Qk75h15GOKn80/X7gSUe5yFinxefrQzsQld6ZmdTVZiGPpJ28XoUve1R22giU2jI0ib97XPnsamTaOJSJmDkhLL6BWRy1/POe9CyPwhifWTZNT9AU0l65mTayJCn8GwRTs4I1LQjxzr1/NICx/G+7UOnVPm7JPpbOfbZb2IyP2rUw3Hg29OqohO5qVuOsaJTjbvIM8Qz3QPsMo9zvK5g3DX5Xe/8/hpnINhoXCN14H/xlng8rqhRCQ+w39a1PnkJU75cKAqZ5soWT+HXFME+oxhLNpxRoa7U6qUP9KY97Usf0gftWLFOZhf1HRUHRsMlxDs8wYPf2OCzaMUosodVd4Fitlg8/vTOYTGWQ13hUmB9GpjvAapTVKeSpuHN/XUY03JS4UZAQ6uOd+q+tIbf6BmHUMje7HspGtLXDGLu0cyYr14USpQkf8yj3aOJaFrT7Kzs0gM0zPJWVz85lKFPUFqQ4i6KkQ6D9T43PpaUsO6oZH0WnbSucXRRvHi7kSOWC8t8PjMhZX989IIH/aBs3H23OWS1Atilz973O/J60EQ/N1jxMoq1k8/vEQtnhRzidLkfVbwxvnm9AxiCVXrTYLlITlKob2+hY2zlT0zk4kavcmzsmjdx5wU54qzZTfTYvU8ubXRY4llDzNNesZubvDTyMgdGkz2F8xM1jP+Y/kVs2can1cNO5mamMhvP/mceV1MTP/UOc6bVAHOs3wxk2T9ePxP55sw1RpnzPuYmxbHkxt38TtRl3/6t8EVyKIt4oNmafrfsFLafgG2wwtJN/hrnC18MTMZ/fiPffZMS3L2zCQ5ajSb3It4VvbNSXGuOItNdBr636x0bH/BxuGF6RikxjmIPxSAW9g11Ygxbzvui3fn55bd04jVP4mSEjMx6cciUsJfc+vvPXV/uJSxUXlwBUOTohmytsIje7f7qoGmTyYRY5zKLrOF3dNi0T+5FQ9bLeyZaUI/drMk0OUPvw2tdQ8zk6MY7QEW6745pPhbcbaoc1d1HsCyc4rizkpoWLgwUf712zi3XODdIQZin9xCjaDOJ6U0T8EW3w+Js7ZKDq4YSlL0ENZWeC3TWXYx1Wgkb7s3i5TxZsl/hkTXbUVpYnELmOuul7pfVHVU9WmIuKjZ5w2e61gxxqwaz64hrr+q3FHlXaCYvTY7lXpY2DnFdXfOoakq7i5jpL+B9WpTvAapTZZdUzEa8/CmnnqsKXmpMMPvQRvyraovPXHozlVqjbO42JWm5zcrHdsQsR1mYbrB3Tg7VPfKpQp7gtSGEHVViHQeKHkkrUi5FytaX0tCa5w95eEq2/OMGKfu8t84B7HLnz3u9+R9R0j4O0YG4qVqPMnnksTI+yypoDDFeUfapZ8cd+tN6RlAfZ4Q85DLgBD+3sLGWaB6/SgMscNZKz5BJdRS8OojGO927nEWqtj4RAwxg96kRNqNYaVs3WgS48fyoXgvS9WhwWRfYev4eOKHr+FHVx8kXJWenPUqv04Ir5L/jInYblmYUmfyhXt3iHLFGfyfJ1zZyvj4eIav+dG9ui5cFZ9WFmfzTZiqjTNWCv4tk+i0TiTJdfFytou84tvmnZOJiZvINnE7g7hJ/tUB6P2uOAtc2Tqe+PjhrPEAw9VLl6S9ekL1ekYZYhm+VnxAU6C24FUeMd7t3ONsZufkGOImbsMxTRGvDtA7V5yD+EOhu0DluuEY4kfy3llxE7adqv1v8faeOoSqjTwRE8OgN0sc21qsZawbnUj82A8dtzd9OOG/mVb1h+UMx05UO1YVWspY8VAkA9486+Cb6R4MD/+Rg+I2Hfs53hsRR8zoDVQJAlUbnyAmZhBvOsiKtWwdoxPjGfthlWSdyx/uYiRfcRaqWT/KQOzwtdLDhEJtAa8+YuRuf3ucBXXuqs4j5jkxkRnG8KFjCzeqWEirGf/OvGU7/X7FlKNx7sOy4400N9Vy8bs9rH6mLwbjI7xxUgwsdT4p3C65yvN1dGqctZw5xolqx+pXS9kKHoocwJuOJxE9IoVK1g03ED/yPRw0qmL/W2+zp04Zb+J2gT5hWbx4+KqUgw6/kovBnYPU/aKmo/jcRGCfquMS0D5LMWsX/IEPT/neFvM/5v+oxrMHLMcrVe6o8i5QzP636vz+dW5x33lwxIp4AZqMYcyHOCnbqnzmP5f8dxuPL01zAAAgAElEQVTjVb02ic+7DDfEM/K9s9I3Mdir9vPW23v471bWAckrAX3ehnyr6stWNs7mnUyOiWOio7jQUPQqA/TOFedAuVRBvCC1IURdFSKdB2p8bn0tCd44m+4x8PDSA9J2Pfu5dYyIi2H0BjH/K3OOpF4Quwjod6+apoa/FyiBePn/qfUHPjXVu3EWFxcMjHEVFFkeF+P35vQMweZRz7deMIV0eAsbZ7GjO8HKwUm016eQmZZE1oTlzH0okam7HN2s/cxHzOihJzyuC1npCeji+zF/10XHNzxYv2Z+FxPP5Ls6XzvFS3oSO2m740GhYLJ/2sbsPkZ0yffT/8EcskxxZMzf625svdEz719Axr33krHwgOccHx3A73nY+WnbbPoYdSTf358Hc7IwxWUwf6+ou5Wv53fB9Ey+W669eAk9Y/2tCDu0sn+7jN733k3a775yj/HW1/r1fLqYnnG83bCfRdkGDOkPMqD3fQycMYl+SdPwXB3LRtt/YtvsPhh1ydzf/0FyskzEZcxHUhUzJ1YOJqm9npTMNJKyJrB87kMkTt0l6dGwfxHZBgPpDw6g930DmTGpH0nTdjuEB/GHTAOwfMffR6cSHplA1wwTRtMgVogPB2LnzEcz6KEPJ65LFukJOuL7zWfXRedeZD/+wN97av6o282znWIwde9Hdnocxp5z2S0+/SclED39Rw2la0IqGSl6IjuNZa3jsWmwn+GjGT3Qh8fRJSudBF08/ebvwqOawx8euhazpGese2XGfGIlg5Pao0/JJC0piwnL5/JQ4lSkUPCywa7CXZffA80j1H7GzM7t0ZnS6TLybc63qHHTRtHiHugyXkB6DkjhJBAq3uXxyP/J//gf/4P/eVc7IuO78uCT/xdbv5fdBVHlk1KgS3fpXRXO1u1+lk4xJrr3yyY9zkjPubulBzSV0kQa/Z3RqeFEJnQlw2TENGiF9HCgIt5azrM5rxNh4R3onJZCjymvMe+hJKY5g0PVLyo6irqojlXBJZB9QtUaHgvrwAy3cz0WBxqDyjye0Y5XLvzd4u1KjqrxLmDMqswfSGelHgK1n82kc3sdpvQujHz7PC1BcFfYFSiXtDFeVWsTFr77+2hSwyNJ6JqByWhi0IqjmNXyjp86INqh5vO25Fs1XyrxF/cqbmCUoR9/KnVesNlP8kofA2M3i/fXGti/KBuDIZ0HB/TmvoEzmNTPGT+BcqnCQSH0ASHkO2+R4rGPHQo+t7aW1LFhlIF+f3L9uIudk6/0wTB2s3SX0br/d6T3nMCcxzsR3zGDFH0EaWPedX6rhm+NF/VT84Ga35U1TQV/H1AC8FItnrxqj1iDFX2WUMtnMzvTXmcivctI3j7f4oX7TeoZgvQmrcmDPrD5eePWNs6iQsJVyk8eoehUtf8msKWJiyVHKCgs5ZLPnlw/FsnfCiZbaKaytJDDBcc4fanZ/WCWXMT1fC00V1JaeJiCY6e51Ox/bTuU+YSKtQzRp7PgkPf+TZXR9lrKjn1D8bl6n6+58x0l0FxZSuHhAo6dvoRSVYGr5Sc5UnSKatc1i0yAvbaMY98Uc65e9mCd6/Ng/nCdJ/21UH26iILCU1R5zdPSdJGSIwUUll7y820KCiGqBwH9Ya2hrLiAguPncJvhvvI201xRItnvrRe00HSxhCMFhZS2mqxiKJRz8kgRp/wB621JG7grNJ7neMERSmUGBMTCe95rOlbjk4pAFc5aa8ooLijgeDA+W6o5XVRA4akq//lFmr6Zyu+OUHT6su9eaSlFqfhFRUdRtLpPA+Pia59A5YYnSM5eSlGAPOg7xoVt4HlcZ4T8V5V3gWI28PyBdZZrJNB4/jgFR0o9uSAI7vLREEivtsUrQWqTpfo0RQWFnJLFmahX6LEW3OdtyreqvlQiqH5kp7bsGN8Uy/Kla4C/XOr6TP43WG24brrKJ4XrVUs8Uh39TMi1ya9dwf3umU98pYK/8kTpyC8vWxVPXkKFRs4fL+BIaaAce7N6BvV5xDuggfsaL5uCHN76xjmIgtrH3gi0cPatgURl+P86Oe+ztePrhIC7cfbq4q+TeE2MhoAqArZilvbvx5JC1z4x1bO1D38OCGg+/zl4sfU2aH5vPWY3eYTWON9kwNs+XT3//LfBTFpdEuAHTNo+gybBDwL2b1k14QleD/KjBH5Gam9pCFwHBGw0X/XzxevXQbIm4nZFQPP57eqZG6uX5vcbi2/bpWuNc9sx1CRoCGgIaAhoCGgIaAhoCGgI/AIQ0BrnX4CTNRM1BDQENAQ0BDQENAQ0BDQE2o6A1ji3HUNNgoaAhoCGgIaAhoCGgIaAhsAvAAGtcf4FOFkzUUNAQ0BDQENAQ0BDQENAQ6DtCGiNc9sx1CRoCGgIaAhoCNwEBFquXqGq1nzDvzr0JphyG0xhoa66TuVrGm+Fig6dWvFFq7dCSW3OXzgCt7Rxth1ZxoCc37O/1VFi48iyAeT8fr/f712lpZwDGz5g30++v7B1Z/vbY/fta0cL5Qc28MG+n9rwrR/XQ4YaQncCjmr6/8I+a6nj3Pdnqb1p4dw2/tmOLmdg34XsbW1esx1l+cC+LGz1wBvFhyA43FB9vee281/rxpGmiya+QwZz8v/fn2mOv1G+9JZr58e/DSK53ytIvy3l/bHzWMHlG15X7Zxe+WuSH/wTx0P81s+W8gNs+GAfP7tSH8Af2tu3BwK3tHH2+UnMkDHx8xOW8rFNu3g61cSkj65IKxO2wr8w/rfv8P11Kbw2Cv8ynt++830bGkO5sq157bG7NaNu7rlN7Ho6FdOkj6SfHr22ua+HDLWZ7wQc1fRv/WfXNwZaP39bRrScfZMBEdm86vrlsrYIC2ls2/hn/eo5Ug0T+STAD5UEVMH6Fc+lGpjY6oEBJbbxgyA4XEd9ffnpNbf9OEu6R/LIqp9owY69Xpnj22joL264cHE9YzIf5+3T6l9xqOCyV1293qC1nF/HyMxhvPNfoRfqpl1Pk2qaxEdXrv0Hxa63HZq8nz8Ct03jbGu4REWNn1twLWZqyi9QWS9fvvE0PhbsNFZVcKXZzy/VOf1n3jkFY+pzfCUXIX7mV7bc6TYaqiqoMcuD0szOKUZSn/vKz2q3lfrKcqoa/QS+tY7K8mqa/Hwkn1H9tcduz3ktmGvKuVBZ70ef/7+9MwGOos73+K7IQo7JTCYJmcnkIJCEKATYAKJErQURQYyAHOFYFAmHcuk+xSfKom9LKRUsHx6ILocsuMgpRhBKkSOEcFlGActQsEBSIQE2ECpk3sy8ydTnVXfP0T0z3TO4PpT3eqqS6enu/+//+39/x//bv/73TOAs/5a7mYa6i4SHSxhvPU3yXCqcX1PLpfAN/GKj2XA11Ye3sfCLPhdrqWt0aN6CbbVfouZsHQpXCNNx5PP+RRxdV6mvvRj0i4phFFHZ5bxSR0391eguvLTs5bxCXU094dxN6FrAu95rTNUYQMNnRf3DxYBvYFptNWwaQW+fdN9766nXuEsgzipXvlr2dl6uo6ahWRtrTwsXa+todMjj3Nd7tO8ubx7yoCAb3uZaOrqu1lN7sQWPGhFVxcvJ5boaGiIkFVUMVOVqjzmSvpH8O1weUPdPry6ObUxOs/DYZ1qlSDWfi5wjw+kUDgVPy0Vq6xoJcZUo8mS0fYTrV7lPKyblZ6rhAc66w3xVeYZrYadNbV+W9wBh5gzZCe7mBmpqL6nMN7IThV9UbDrLD+ealTvln1xN1NdeQjEdy4/7tlXj2U1zQw21l1qi+PVcnzD9XUcgFIFfnjibB/Lk7HvJMMUT09ZItynrqRGD2UXVO6MosJhIsqaRGGOky/iVVIvEUyI+5kGzeWZAJiZDLG3j8xiz7LhEHl0VvNivF/+2679oWDmaLHMMt9waJ8rJHLGMGo+WbBf7Xyji/uffY/7AjpjiY2hr7MaU9TW0ehpYOToLc8wt3BqXhDUtkxHLakSy11T5JiNvt5KW24XMFCu9n1jPGXEcbk6ufowCi4Wc/GwsGcP5UDrgt8bVTaXc1uc5dvvnBBcHF9xNt6mfokwjSsLnqnqHUQUWTElW0hJjMHYZz0oJIL9sccO1nxfufpAX3pnLgCwThti2xHV+hKXHpA5d+1+gaOBzLJ7Rk6Q4A12fPQBc5fCSEgrMMcQZ42kXY+WuJ9dxyg1NGwV957LbX1FzUbmgiG5Tt9CMi4oXA8toRNn3P8978wfSMcTG4Lmwk/n3ZRAXk0BCrIGMAa9S6VDKwFXFO6MKsJgEzBOJMXZh/MrqUDIU7Xn8RBzx0PDFv3OPNYaY+HjM3SbwynPF9Jy5TVwn6Pz6GXr1fZ59vgsP1wH+3K87s7Z7DdtUyZsjb8ealkuXzBSsvZ9gfZAvRGMvaKLyzZHcbk0jt0smKdbePLH+jDQZCLYuGshzi2fQMykOQ9dnKPswXAyAus9qxIDXs9TbqtlUaKiht1duuDdV4qxlb/dJVj9WgMWSQ362hYzhH3rjUd6Dhws753NfRhwxCQnEGjIY8GoljiAfjmRXT/025hZZaB8TT3xSDyZOG4zV6K04a+noqWfb3CIs7WOIj0+ix8RpDLYaZRVndbzcJ1fzWIEFS04+2ZYMhn94Rj4waVsVA3W5SiFBcRhJXw3/Vs8DHtUc7c8jl9cyvqOZ2DZtiDVbsRXOZU+zL8dL1ZDweQS0cqS6TkoUxE+eC+ycfx8ZcTEkJMRiyBjAq5VCXKvnSaHd9fSh7WeRY1KutRoeXD3MkpICzDFxGOPbEWO9iyfXnfLnUm1fVmLeVLGQwdkppHXOxprcAas1jcwHl3BKmPci9BPQ1cnXz/Si7/P7CKTNP9Ov+yzEtCnms/t5/r35DOxoIj6mLcZuU1gvkQRcFS/KlnuqxbOgzhJKCszExBmJbxeD9a4nWSdMZvpLR+AnIPCLE2dbm1i6TVlHtd3DlT1P0bV9V+YdERzaxbHP1rC3RiIdzh9e4x5DHk+XC+ElEB8bbdrl8cdVx2n2tPD94vswm4by1/MekP88svMqNStGkJg+iQ3nGrjQJCTayLLbJvRgyrpq7J4r7HmqK+27zkNQy3m1hhUjEkmftIFzDRcQxdl3MzsvlQeW/CASKE/DFiZld2Dk2kt4XHuZk9OB0X9vFM3jrD9LnZ9wShbz1P+VoSYbkz/3/pyucx9P5Sby0PKGoApsEOE79hlr9tZID3c4f+C1ewzkPV0e6gYCHrZbaZ83nuXHmvG0HOPNgWZMD35AnQjXVGztY8kdt5YzLjcOZyv23XPIM3RnVlkNTjxcPvgK/ZNMDFp6Fk/dMgYb0ynd7tN3L7NzTAz9az0eGSkVLCcsx7G1TaBHWBtfpWxyBqailzl4xQP2M+x4dzUH7YFxitZ3HeOzNXuRXMHJD6/dgyEvzE+OR3ueTEcBLFe0OLbsYFqWgT7zyrnscXJ26xx6JdyCYfQnCCZ1bH2UVFuplPAFwYoKop3ds/NIfWAJPwiD8jSwZVI2HUau5VJwoTOCvey7Z5OX+gBLJEE0bJlEdoeRrBUEiW3bE5s7jrVnXLgdTlrDxYCWz3rjSy0G0GyrZlPQ1DvUa/171Imzul+49s4hp8NopLBzUn+2TrSRX6iwcbWMyRkmil4+iOR+O3h39UHsMv8QTKVt1xZ2TM3E0Gce5Zc9OM9uZU6vBG4x+Iizuo4tO6aSaejDvPLLeJxn2TqnFwm3GPzEWR0vB3vn5NBh9N8Rs4qznrPBSUXwaxUM1OWGOCI7pqaTPGGLmGO09dX2b808EM4/FTZwcbV2LeNSUxm39hwNjS20ynM86j6nFduaOikcRXCVyWSYinj54BU82Dmz411WH7Rr5klBxPX0oe1n0pynGpMKfdXwsLN7Th6G7rMoq3GC5zIHX+lPkmkQS88KbDeCL8sxbz3JG3cbueM/vheLVVd2TCfPVsKaOiFiIvUjV9bB1kdTsZVul+YxMW3KljqJ+awtCT2msK7ajufKHp7q2p6u846IZF/ANz15AluEbtXi2b6bOXkGus8qQxr2QV7pn4Rp0FLEYcvV0bd1BKJA4BcnzulJY9no5V849zCrk4lR6+TM0kVT3Wl+/H4Nj2YmUrJBOCYRK/OYT7jmG+TVj3nEmMi4jXYlcRbCWG2phnCbSUV20tiNBNSaRSfTKCS1QpdqOHfPJNs4mDePnuDECeGviveGJZE5/Uuc7ioW/D6eLhNX8G2jWIL2aSx7b+TjUclYJwoVW3DunU1O8gjWXJKdIm4GCKX8iKupjtM/fs+aRzNJLNkgPyRtiwnPzJhPAvXr5o9HYjKNRYBTTO4Jg/mg3jdxOvlyegaGoctl65TtlE2yEP/QSqGkyKqHE7FN/lzEyLlnFp2TRrBaZIABHYVcJiY2NRs7v2CKzcSINU1BOitl+A+6mqg7/SPfr3mUzMQSUXf/MflGxPMC8pXNtHEUiEjnuEEsu+DDycEXU2wYoyHOzt3MzDYy+M2jXh85QdV7w0jKnM6XwUuINO3lZPfMbIyD3+So6GsnOFH1HsOSMpkuCBInmgQGfyBcxARewTGg6bPe+FKLAc22GjbV1DugasiWKnH2nRnG3u6qBfw+vgsTV3yLWtg5v5iCzTSCEPdTkLYIxFm4MO4cx6BlF/x4OwS5voqzqo4u9s7pTNygZQTcSYgHX8VZy84tVC34PfFdJrLi20bV287hMdCSG+KIMuIcQd8I/q2ZB8Lm6ECMCnkERxmPW608XiZ+UuZ4VZ/zgS8sWwqN7Ug6BVo7xTg3jViDMlNFyJOR8l+gA3ErMnFORy0mFaLU8HB+yfQMA0OXS8/+iG3sZUyyxPPQysvClZa2L4t5KZkJAkt17mF2jo3HP5fs4aldQv/4u1ks3EGL1I9C2SiIc3oSYwMkgT2zOmEatU68EBZt6CXOavHs/HI6GYahLJetg7aXTcIS/xDCsPWXjsD1IvDLE2ff1aKguesAz3YxMGKtQI491JY9x4DsJFI7F1BYmI+lvZEx6wPE2VcJEQft3MWMrBgGf9ioTKphk/L1yXYdeJYuhhGIahFKnO3rRmFom0JeYS969fL93cGwRUfFq+LmquVMK7IRa8xl8NwNnAyen4SL5S2PktZhLOuvONg9qzOpY9dzJcSagclEOOSpLeO5AdkkpXamoLCQfEt7jGPWh7RSVOC9R51fzyArZjAfiHDJrtrF482sKo4lfdpO2bppN9/M705s0RviGZc/HkVy2mNsbZb07TDmE6++AR39xFnNxs2rKI7NYsbXwYAoZeCppey5AWQnpdK5oJDCfAvtjWMQXUE+2mjPkxEjoXm0ONo3lGBKmcin3rlbuID76olMTNEQZ/s6RhnakpJXKPORXtwxbBFHg+8Yyico7/gC9rKzbpSBtil5FPp9rRe97hjGIkFQmLaCiGDirO2zQfiLoRmIAc22qjaNoLfcjkHbqsRZ097NVC2fRpEtFmPuYOZuOCnzZamD5lXFxGbNIMT9ZP4hmFqT0Ng3UGJKYWLAKZRrnFV1tLOhxETKxE/9lbbgOxSadm6uYvm0ImyxRnIHz2VDuKRCOAyuxw5yP4igbwT/lhMcEX1Frg/1T19xxJ/jtYizqs9px3YknQJuKOXDrBlfB/lQ5DwZfR8R/CzIJwXdlPNSQFvU8BD3pzNtpyzfur9hfvdYit44DZF8WZFbrvDpo+lY+z/P6s8/Y1lpd8yFC6RcFqkfmaoQDXH2knWxnYsDz3bBMGJtCHFWi2dxf/o0lMOeT/fYIt44rVbMUiipf9ARUCDw6yXOwm3uLCN/WCQtf8C1jzk5piDivDkw6VxbT4nZzPhNoRVnx8ZxyspeVLKl25MCWsoE5WDjOG812QulY1spacaRfBwo6CpAlj64qNuzkAesCQxaWht63L6T6VnJPLJyE092sjHx03DCAhOZRNqyMP5hkXTrHxf75uRg0iLOm/2Mj+ZPxpBoHo8EVzBxdrB5QhLGR9Zy1a+pg+2lNozDV0t7mjYy3mLhj598xgxB3y0+fQM6RiTOjk2MN5spWe+/b+DtLUjGV0+QZfwDi8SlCeDaN4ccUyhxFh7KiuY8+aR8PTg6t5eSFl/MKn/ZycnOaemBinPZ41jkFwnCROOrIDq2UZpmZKS2k0jj901QYe3lYFtpGsaRHwetf/dBt4Op6fKJRtofHAPaPqvEX5AgjwHNtqo2jaC3V/1wb2rEOSp7u+rYs/ABrAmDWForr8GDY9N4zOYSQtwviKQ4tOzq3E5pWjzFAafAuXMa6d6Ks7qOTraXphFfvCpQxXTuZFq6r+IcHV6uuj0sfMBKwqCl4aCT9ikwsGv7j0KK3A8i6BvBvyMRyGD/lMeomLW0iLOqzwkXtuo5MpJOASgcbBpvxlyyPnCHUzwYOU9G34dQVNfIH0E+KXQvj8mArsKVnkpedWxmQpKRR9YGsjqO7ZTajAxf3QQRfFlxUe6q4NmuXSie9QQlwx5mzIxF7DznXaUcqR+lspQ9bvEvBxIOCZj579j4cqG4FkMctSpxVotnx+YJJBkfQTnsUmzG4QjD1l86AteLwK+XONs3MjYxmdHrpHspTZUv0c8orzjbuNV0Fy/sFm47uTm97EGSE4tZISw3CAo2h0B4TMP4SFpmLJQ3IsgOrOsTAFUmKIFApmEa9pG0vlCoWF5cy8iUFIa8+6OfyHuunee8sHDScZJDRxukhy9aq1l4Zxz9Xj8Vxk5Oyv+UR0JWR6yZpWzzrRNRnBmYyIR1ZBvHJpI8eh0iQk2VvNTPqF5xtt2K6a4X2SMsp3Cf5v0Hk0ksXoEEVzBx9lC/8mESE/vzepWkiLN6GcWWFIZ/VO/V6Bplj9tI6pKPTaFvQMeIxNlTx7IhJlKGvs8pIee669m1+C22X1bKsG8cS2LyaCRXaKLypX4Yw1Scoz1PPilfD46ehuU8ZEpiyFLhYRoPjeUvca+5jX+Ns3BrvGf7fJ7edw08jez7cxGmNt41q56LrB2ZQsqQd/nRd/3iucb588KayaCXSLjV7OXh4tqRpKQM4d2AIK6dPy+u0w32fZ/k4BjQ9NkIk7RmW1WbRtBbqMz+ZQbzNwpfN6Z8ScS5J/OPXKWlpYWWFjsOlwcteztOHuJog1TKb61eyJ1x/XhdfGopIFtYqz/ElMLQ90+JDya563ex+K3tXA4av7ZdG1j+kImkIUvFB2c9jeW8dK+ZNt41zuo6emhY/hCmpCEsFR5S8jRS/tK9mH3+ghZeDk4eOoo0vFaqF95JXL/XAwPzboXH4L+1/UchRR6HEfSN4N+RCGSwf8pjNCJxVvU57RwZSacAFB7qlg3BlDKU96VERf2uxby1/Z8R82T0fYCmnwX5pKCbcl4KaIsaHv+sZ+XDiST2fx0prTupXlaMJWU4HwkTgUfblxW55dpGxqWkc//c/+SDFR+x9pOt7PvxshS7ngj9yFQFN1ULetI+/2mktLmPPxeZ/PGj6FNsp15xVovnf9av5OHERPq/XiUtv3RWs6zYQsrwj8T5T7yjqZJ7FKrqH3QEvAj8ssT565l0sj2Ob9ka7sPMK0jyVpWb2DW3EJMph779enDbPZMY09vKBLEK52TXkzkUjJrG/R1TyMhNxxibxbD3vN+q4fyamZ1s/vVwnsatlGa3w2DLodPQtzjTqi3765mdsD1e5ifB7sPzKEjyVTg9NG4tJbudAVtOJ4a+JXybgZt/rJtKT7OBtNv70LdXPrbkXGbucMDlzUzumIita28Kc5IxF0xns/BEXpiX+5v59PhdG7Ke/Mrft/I0Jz7dhP1Nu+ZSaDKR07cfPW67h0ljemOdsFnZRPgkXkgY6fPQA3ROzSQ33Uhcx+EsPS7dsnMG20Fo4z7J3yZ1wxiTTKf8HFINKfSeuYlzMlZj3zWb3N/9jtw5u2X6BnQUiXOwbIWNwfHd2xRnxhCX2plcmxlb/4Xiw4G+cYqTZtMu5haaMOX0pV+P27hn0hh6WycgK8hKY472PAI6Cg2jxhE7RxcNxNLOSHpeR9K6DGPCAIu/4kzrGVaXdKR9TAeys9LpNu5lZtzp81lw/2MdU3uaMaTdTp++vci3JZM7c4cMO2kYkeyF+x+sm9oTsyGN2/v0pVe+jeTcmQjuRpDveyUSGgMaPivDR8RfcAdFDGi1VbOpIERDb1clz3czkPvUnqDb4cLt9ve4P+63/OY3v/H+/ZbY4lWC4VT94vLmyXRMtNG1dyE5yWYKpm8WH4T14SG9O/ju7WIyY+JI7ZyLzWyj/0Lp4UCF/0Wwq/3oIgZa22FMzyPLms+oBdO50zKeTQJ4GjpiP8qigVbaGdPJy7KSP2oB0++0MF5sqIXXZTZP7kiirSu9C3NINhcwfXOdcmgIqUcFAy07KKQE4kT0gwj6avl3SI4JygOh/hnUt3MH0zIzmer7cZggPw+fR7RjO5JOCigc3/F2cSYxcal0zrVhtvVnofDLIRHy5HX1oelnQXiExKRCW5W8Kqj7NyZ1MxKT3In8nFQMKb2Zuemc/2JV05flmHtqWDUijbQ+Ixg/djQjBvchM8HCA+/8IBaJIvUj17b1zGpKOrYnpkM2WendGPfyDO705Xd5n2IjN4fnFZA0Zr20VEMxv6jFs5uTf5tEN2MMyZ3yyUk1kNJ7Jpt8k5lG7pHrqW/rCPgQ+EWJs08J9Xc3jdWH2H/4NFdkhE1x/rUavq04wLHz8gcKFWeIHzxXz3CkvIJj9X4qEFl2qBjvHg9XzxyhvOIYfnFC5bmljmMH9lF+6ATnW2Tk2HmJ6sPllB/RGIe41nYpg4w5zN4rW4OmqoN0wN1YzaH9hzmtCpCPOAu37+201FZRUXlcobd6F600n6uiojwyvuoyojjiaOBEZTkHjteHkkhfc3cj1Yf2c/j0FX+S9x1SvEd7nqIRRIWj2MZD87lv2S/a3qFY4yyJbKHuuwoqT1wIIYBS8xbqjh1gX/khTpxvCa02Cyf575ho2ctDS90xDuwr59CJ8/RN68oAAAKbSURBVFF9p3RoDGj4rDQYzf+q/i60UrXp9eutqYSGvZ2XqjlcXs6RCD7jaDhBZfkBjsuDOaRTbbt6xDxUyfEGX36RCdDQEc81ar6toPJ4g4rvq+Hl5FL1YcrLj2jGvjoGanJleofbjKSvJwr/DidXyH8hOVrlRLXdKj4XfWyrCfbtd9BwopLyA8H58+fMk9p+5tMkqncVPGht5lxVBeUHjhFu2tT0ZW/Hrv1/Iq/DKP7uf7jOzbfCMzD930b4YivxFaEf71nSW0sd31VUcuJC9HOfor3sg1o8tzafo6qinAPHzod+w46svb6pIxAJgV85cY6k/v+l462cWnwP8blhvmbtXx2mn4iFmdT/Vdn/r9srHw782aDQ7fWzQakL0hHQEfj5EXAdfp5u8bcx8d1tHPjmKBWfvcWE25K44y9V0rLEn79LXaKOwK8GAZ04/2pMcYVP/zSQMUv+FxKP+xveHPUwrx7wPrzxqxnzza6Im6q3RvPgy/vCV5d/6vB0e/1U5PR2OgI6AjcEgRZ+3PwK0x65n3v7FdH/wfE88/5+GtTuDN8QnfROdARuDAI6cb4xOOu96AjoCOgI6AjoCOgI6AjoCNzkCOjE+SY3oK6+joCOgI6AjoCOgI6AjoCOwI1BQCfONwZnvRcdAR0BHQEdAR0BHQEdAR2BmxwBnTjf5AbU1dcR0BHQEdAR0BHQEdAR0BG4MQjoxPnG4Kz3oiOgI6AjoCOgI6AjoCOgI3CTI6AT55vcgLr6OgI6AjoCOgI6AjoCOgI6AjcGAZ043xic9V50BHQEdAR0BHQEdAR0BHQEbnIEdOJ8kxtQV19HQEdAR0BHQEdAR0BHQEfgxiCgE+cbg7Pei46AjoCOgI6AjoCOgI6AjsBNjsD/AJat5nJUu27NAAAAAElFTkSuQmCC;" vertex="1" parent="1">
          <mxGeometry x="100" y="10" width="441.23" height="220" as="geometry" />
        </mxCell>
        <mxCell id="DFZbkyLsctiWiUxPVT1s-21" value="Sucursal" style="rounded=0;whiteSpace=wrap;html=1;" vertex="1" parent="1">
          <mxGeometry x="140" y="300" width="120" height="30" as="geometry" />
        </mxCell>
        <mxCell id="DFZbkyLsctiWiUxPVT1s-22" value="&lt;u&gt;nro&lt;/u&gt;" style="ellipse;whiteSpace=wrap;html=1;" vertex="1" parent="1">
          <mxGeometry x="90" y="250" width="50" height="30" as="geometry" />
        </mxCell>
        <mxCell id="DFZbkyLsctiWiUxPVT1s-23" value="ciudad" style="ellipse;whiteSpace=wrap;html=1;" vertex="1" parent="1">
          <mxGeometry x="70" y="295" width="50" height="30" as="geometry" />
        </mxCell>
        <mxCell id="DFZbkyLsctiWiUxPVT1s-24" value="direccion" style="ellipse;whiteSpace=wrap;html=1;" vertex="1" parent="1">
          <mxGeometry x="135" y="350" width="50" height="30" as="geometry" />
        </mxCell>
        <mxCell id="DFZbkyLsctiWiUxPVT1s-25" value="" style="endArrow=none;html=1;rounded=0;exitX=1;exitY=0.5;exitDx=0;exitDy=0;entryX=0.12;entryY=0.003;entryDx=0;entryDy=0;entryPerimeter=0;" edge="1" parent="1" source="DFZbkyLsctiWiUxPVT1s-22" target="DFZbkyLsctiWiUxPVT1s-21">
          <mxGeometry width="50" height="50" relative="1" as="geometry">
            <mxPoint x="150" y="300" as="sourcePoint" />
            <mxPoint x="200" y="250" as="targetPoint" />
          </mxGeometry>
        </mxCell>
        <mxCell id="DFZbkyLsctiWiUxPVT1s-26" value="" style="endArrow=none;html=1;rounded=0;exitX=1;exitY=0.5;exitDx=0;exitDy=0;entryX=0;entryY=0.5;entryDx=0;entryDy=0;" edge="1" parent="1" target="DFZbkyLsctiWiUxPVT1s-21">
          <mxGeometry width="50" height="50" relative="1" as="geometry">
            <mxPoint x="120" y="310" as="sourcePoint" />
            <mxPoint x="210" y="260" as="targetPoint" />
          </mxGeometry>
        </mxCell>
        <mxCell id="DFZbkyLsctiWiUxPVT1s-27" value="" style="endArrow=none;html=1;rounded=0;exitX=0.5;exitY=0;exitDx=0;exitDy=0;entryX=0.142;entryY=1.005;entryDx=0;entryDy=0;entryPerimeter=0;" edge="1" parent="1" source="DFZbkyLsctiWiUxPVT1s-24" target="DFZbkyLsctiWiUxPVT1s-21">
          <mxGeometry width="50" height="50" relative="1" as="geometry">
            <mxPoint x="170" y="320" as="sourcePoint" />
            <mxPoint x="220" y="270" as="targetPoint" />
          </mxGeometry>
        </mxCell>
        <mxCell id="DFZbkyLsctiWiUxPVT1s-28" value="Empleado" style="rounded=0;whiteSpace=wrap;html=1;" vertex="1" parent="1">
          <mxGeometry x="385" y="300" width="120" height="30" as="geometry" />
        </mxCell>
        <mxCell id="DFZbkyLsctiWiUxPVT1s-30" value="&lt;u&gt;DNI&lt;/u&gt;" style="ellipse;whiteSpace=wrap;html=1;" vertex="1" parent="1">
          <mxGeometry x="464" y="240" width="50" height="30" as="geometry" />
        </mxCell>
        <mxCell id="DFZbkyLsctiWiUxPVT1s-31" value="nombre" style="ellipse;whiteSpace=wrap;html=1;" vertex="1" parent="1">
          <mxGeometry x="525" y="250" width="50" height="30" as="geometry" />
        </mxCell>
        <mxCell id="DFZbkyLsctiWiUxPVT1s-32" value="fecha" style="ellipse;whiteSpace=wrap;html=1;" vertex="1" parent="1">
          <mxGeometry x="535" y="290" width="50" height="30" as="geometry" />
        </mxCell>
        <mxCell id="DFZbkyLsctiWiUxPVT1s-33" value="domicilio" style="ellipse;whiteSpace=wrap;html=1;" vertex="1" parent="1">
          <mxGeometry x="525" y="325" width="50" height="30" as="geometry" />
        </mxCell>
        <mxCell id="DFZbkyLsctiWiUxPVT1s-34" value="" style="ellipse;whiteSpace=wrap;html=1;" vertex="1" parent="1">
          <mxGeometry x="510" y="370" width="70" height="30" as="geometry" />
        </mxCell>
        <mxCell id="DFZbkyLsctiWiUxPVT1s-35" value="" style="ellipse;whiteSpace=wrap;html=1;" vertex="1" parent="1">
          <mxGeometry x="447" y="370" width="60" height="30" as="geometry" />
        </mxCell>
        <mxCell id="DFZbkyLsctiWiUxPVT1s-36" value="sucursal" style="ellipse;whiteSpace=wrap;html=1;" vertex="1" parent="1">
          <mxGeometry x="365" y="365" width="50" height="30" as="geometry" />
        </mxCell>
        <mxCell id="DFZbkyLsctiWiUxPVT1s-37" value="" style="endArrow=none;html=1;rounded=0;entryX=0.5;entryY=1;entryDx=0;entryDy=0;exitX=0.85;exitY=0.01;exitDx=0;exitDy=0;exitPerimeter=0;" edge="1" parent="1" source="DFZbkyLsctiWiUxPVT1s-28" target="DFZbkyLsctiWiUxPVT1s-30">
          <mxGeometry width="50" height="50" relative="1" as="geometry">
            <mxPoint x="405" y="310" as="sourcePoint" />
            <mxPoint x="455" y="260" as="targetPoint" />
          </mxGeometry>
        </mxCell>
        <mxCell id="DFZbkyLsctiWiUxPVT1s-38" value="" style="endArrow=none;html=1;rounded=0;entryX=0;entryY=0.5;entryDx=0;entryDy=0;exitX=1;exitY=0;exitDx=0;exitDy=0;" edge="1" parent="1" source="DFZbkyLsctiWiUxPVT1s-28" target="DFZbkyLsctiWiUxPVT1s-31">
          <mxGeometry width="50" height="50" relative="1" as="geometry">
            <mxPoint x="415" y="320" as="sourcePoint" />
            <mxPoint x="465" y="270" as="targetPoint" />
          </mxGeometry>
        </mxCell>
        <mxCell id="DFZbkyLsctiWiUxPVT1s-39" value="" style="endArrow=none;html=1;rounded=0;entryX=0;entryY=0.5;entryDx=0;entryDy=0;exitX=1;exitY=0.5;exitDx=0;exitDy=0;" edge="1" parent="1" source="DFZbkyLsctiWiUxPVT1s-28" target="DFZbkyLsctiWiUxPVT1s-32">
          <mxGeometry width="50" height="50" relative="1" as="geometry">
            <mxPoint x="425" y="330" as="sourcePoint" />
            <mxPoint x="475" y="280" as="targetPoint" />
          </mxGeometry>
        </mxCell>
        <mxCell id="DFZbkyLsctiWiUxPVT1s-40" value="" style="endArrow=none;html=1;rounded=0;entryX=0;entryY=0.5;entryDx=0;entryDy=0;exitX=1.001;exitY=0.724;exitDx=0;exitDy=0;exitPerimeter=0;" edge="1" parent="1" source="DFZbkyLsctiWiUxPVT1s-28" target="DFZbkyLsctiWiUxPVT1s-33">
          <mxGeometry width="50" height="50" relative="1" as="geometry">
            <mxPoint x="435" y="340" as="sourcePoint" />
            <mxPoint x="485" y="290" as="targetPoint" />
          </mxGeometry>
        </mxCell>
        <mxCell id="DFZbkyLsctiWiUxPVT1s-41" value="" style="endArrow=none;html=1;rounded=0;exitX=0.93;exitY=1.003;exitDx=0;exitDy=0;exitPerimeter=0;entryX=0.472;entryY=-0.019;entryDx=0;entryDy=0;entryPerimeter=0;" edge="1" parent="1" source="DFZbkyLsctiWiUxPVT1s-28" target="DFZbkyLsctiWiUxPVT1s-34">
          <mxGeometry width="50" height="50" relative="1" as="geometry">
            <mxPoint x="445" y="350" as="sourcePoint" />
            <mxPoint x="549.9239097218633" y="372.7129939281349" as="targetPoint" />
          </mxGeometry>
        </mxCell>
        <mxCell id="DFZbkyLsctiWiUxPVT1s-42" value="" style="endArrow=none;html=1;rounded=0;entryX=0.5;entryY=0;entryDx=0;entryDy=0;exitX=0.25;exitY=1;exitDx=0;exitDy=0;" edge="1" parent="1" source="DFZbkyLsctiWiUxPVT1s-28">
          <mxGeometry width="50" height="50" relative="1" as="geometry">
            <mxPoint x="455" y="360" as="sourcePoint" />
            <mxPoint x="389" y="365" as="targetPoint" />
          </mxGeometry>
        </mxCell>
        <mxCell id="DFZbkyLsctiWiUxPVT1s-43" value="" style="endArrow=none;html=1;rounded=0;entryX=0.5;entryY=0;entryDx=0;entryDy=0;exitX=0.75;exitY=1;exitDx=0;exitDy=0;" edge="1" parent="1" source="DFZbkyLsctiWiUxPVT1s-28" target="DFZbkyLsctiWiUxPVT1s-35">
          <mxGeometry width="50" height="50" relative="1" as="geometry">
            <mxPoint x="465" y="370" as="sourcePoint" />
            <mxPoint x="515" y="320" as="targetPoint" />
          </mxGeometry>
        </mxCell>
        <mxCell id="DFZbkyLsctiWiUxPVT1s-44" value="telefono" style="ellipse;whiteSpace=wrap;html=1;" vertex="1" parent="1">
          <mxGeometry x="520" y="375" width="50" height="20" as="geometry" />
        </mxCell>
        <mxCell id="DFZbkyLsctiWiUxPVT1s-46" value="orientacion" style="ellipse;whiteSpace=wrap;html=1;" vertex="1" parent="1">
          <mxGeometry x="195" y="395" width="60" height="30" as="geometry" />
        </mxCell>
        <mxCell id="DFZbkyLsctiWiUxPVT1s-47" value="calle" style="ellipse;whiteSpace=wrap;html=1;" vertex="1" parent="1">
          <mxGeometry x="70" y="395" width="50" height="30" as="geometry" />
        </mxCell>
        <mxCell id="DFZbkyLsctiWiUxPVT1s-48" value="numero" style="ellipse;whiteSpace=wrap;html=1;" vertex="1" parent="1">
          <mxGeometry x="135" y="395" width="50" height="30" as="geometry" />
        </mxCell>
        <mxCell id="DFZbkyLsctiWiUxPVT1s-49" value="" style="endArrow=none;html=1;rounded=0;exitX=0.5;exitY=0;exitDx=0;exitDy=0;entryX=0.5;entryY=1;entryDx=0;entryDy=0;" edge="1" parent="1" target="DFZbkyLsctiWiUxPVT1s-24">
          <mxGeometry width="50" height="50" relative="1" as="geometry">
            <mxPoint x="95" y="395" as="sourcePoint" />
            <mxPoint x="120" y="360" as="targetPoint" />
          </mxGeometry>
        </mxCell>
        <mxCell id="DFZbkyLsctiWiUxPVT1s-50" value="" style="endArrow=none;html=1;rounded=0;entryX=0.5;entryY=1;entryDx=0;entryDy=0;exitX=0.5;exitY=0;exitDx=0;exitDy=0;" edge="1" parent="1" source="DFZbkyLsctiWiUxPVT1s-48" target="DFZbkyLsctiWiUxPVT1s-24">
          <mxGeometry width="50" height="50" relative="1" as="geometry">
            <mxPoint x="80" y="420" as="sourcePoint" />
            <mxPoint x="130" y="370" as="targetPoint" />
          </mxGeometry>
        </mxCell>
        <mxCell id="DFZbkyLsctiWiUxPVT1s-51" value="" style="endArrow=none;html=1;rounded=0;entryX=0.5;entryY=1;entryDx=0;entryDy=0;exitX=0.5;exitY=0;exitDx=0;exitDy=0;" edge="1" parent="1" source="DFZbkyLsctiWiUxPVT1s-46" target="DFZbkyLsctiWiUxPVT1s-24">
          <mxGeometry width="50" height="50" relative="1" as="geometry">
            <mxPoint x="90" y="430" as="sourcePoint" />
            <mxPoint x="140" y="380" as="targetPoint" />
          </mxGeometry>
        </mxCell>
        <mxCell id="DFZbkyLsctiWiUxPVT1s-52" value="funcion" style="ellipse;whiteSpace=wrap;html=1;" vertex="1" parent="1">
          <mxGeometry x="453" y="375" width="48" height="20" as="geometry" />
        </mxCell>
        <mxCell id="DFZbkyLsctiWiUxPVT1s-53" value="trabaja" style="rhombus;whiteSpace=wrap;html=1;" vertex="1" parent="1">
          <mxGeometry x="285.61" y="300" width="70" height="30" as="geometry" />
        </mxCell>
        <mxCell id="DFZbkyLsctiWiUxPVT1s-54" value="" style="endArrow=none;html=1;rounded=0;exitX=1;exitY=0.5;exitDx=0;exitDy=0;" edge="1" parent="1" source="DFZbkyLsctiWiUxPVT1s-21" target="DFZbkyLsctiWiUxPVT1s-53">
          <mxGeometry width="50" height="50" relative="1" as="geometry">
            <mxPoint x="285" y="290" as="sourcePoint" />
            <mxPoint x="335" y="240" as="targetPoint" />
          </mxGeometry>
        </mxCell>
        <mxCell id="DFZbkyLsctiWiUxPVT1s-55" value="" style="endArrow=none;html=1;rounded=0;exitX=1;exitY=0.5;exitDx=0;exitDy=0;entryX=0;entryY=0.5;entryDx=0;entryDy=0;" edge="1" parent="1" source="DFZbkyLsctiWiUxPVT1s-53" target="DFZbkyLsctiWiUxPVT1s-28">
          <mxGeometry width="50" height="50" relative="1" as="geometry">
            <mxPoint x="325" y="290" as="sourcePoint" />
            <mxPoint x="375" y="240" as="targetPoint" />
          </mxGeometry>
        </mxCell>
        <mxCell id="DFZbkyLsctiWiUxPVT1s-58" value="edad" style="ellipse;whiteSpace=wrap;html=1;" vertex="1" parent="1">
          <mxGeometry x="70" y="345" width="50" height="30" as="geometry" />
        </mxCell>
        <mxCell id="DFZbkyLsctiWiUxPVT1s-59" value="" style="endArrow=none;html=1;rounded=0;entryX=0;entryY=0.75;entryDx=0;entryDy=0;exitX=0.5;exitY=0;exitDx=0;exitDy=0;" edge="1" parent="1" source="DFZbkyLsctiWiUxPVT1s-58" target="DFZbkyLsctiWiUxPVT1s-21">
          <mxGeometry width="50" height="50" relative="1" as="geometry">
            <mxPoint x="90" y="370" as="sourcePoint" />
            <mxPoint x="140" y="320" as="targetPoint" />
          </mxGeometry>
        </mxCell>
        <mxCell id="DFZbkyLsctiWiUxPVT1s-60" value="&lt;u&gt;cod&lt;/u&gt;" style="ellipse;whiteSpace=wrap;html=1;" vertex="1" parent="1">
          <mxGeometry x="20" y="270" width="40" height="20" as="geometry" />
        </mxCell>
        <mxCell id="DFZbkyLsctiWiUxPVT1s-61" value="nombre" style="ellipse;whiteSpace=wrap;html=1;" vertex="1" parent="1">
          <mxGeometry y="295" width="50" height="20" as="geometry" />
        </mxCell>
        <mxCell id="DFZbkyLsctiWiUxPVT1s-62" value="cantH" style="ellipse;whiteSpace=wrap;html=1;" vertex="1" parent="1">
          <mxGeometry x="10" y="320" width="40" height="20" as="geometry" />
        </mxCell>
        <mxCell id="DFZbkyLsctiWiUxPVT1s-63" value="prov" style="ellipse;whiteSpace=wrap;html=1;" vertex="1" parent="1">
          <mxGeometry x="20" y="345" width="40" height="20" as="geometry" />
        </mxCell>
        <mxCell id="DFZbkyLsctiWiUxPVT1s-64" value="" style="endArrow=none;html=1;rounded=0;entryX=0;entryY=0.5;entryDx=0;entryDy=0;exitX=0.99;exitY=0.65;exitDx=0;exitDy=0;exitPerimeter=0;" edge="1" parent="1" source="DFZbkyLsctiWiUxPVT1s-60" target="DFZbkyLsctiWiUxPVT1s-23">
          <mxGeometry width="50" height="50" relative="1" as="geometry">
            <mxPoint x="20" y="290" as="sourcePoint" />
            <mxPoint x="70" y="240" as="targetPoint" />
          </mxGeometry>
        </mxCell>
        <mxCell id="DFZbkyLsctiWiUxPVT1s-65" value="" style="endArrow=none;html=1;rounded=0;exitX=1;exitY=0.5;exitDx=0;exitDy=0;entryX=0;entryY=0.5;entryDx=0;entryDy=0;" edge="1" parent="1" source="DFZbkyLsctiWiUxPVT1s-61" target="DFZbkyLsctiWiUxPVT1s-23">
          <mxGeometry width="50" height="50" relative="1" as="geometry">
            <mxPoint x="30" y="300" as="sourcePoint" />
            <mxPoint x="80" y="250" as="targetPoint" />
          </mxGeometry>
        </mxCell>
        <mxCell id="DFZbkyLsctiWiUxPVT1s-66" value="" style="endArrow=none;html=1;rounded=0;exitX=1;exitY=0.5;exitDx=0;exitDy=0;entryX=0;entryY=0.5;entryDx=0;entryDy=0;" edge="1" parent="1" source="DFZbkyLsctiWiUxPVT1s-62" target="DFZbkyLsctiWiUxPVT1s-23">
          <mxGeometry width="50" height="50" relative="1" as="geometry">
            <mxPoint x="40" y="310" as="sourcePoint" />
            <mxPoint x="90" y="260" as="targetPoint" />
          </mxGeometry>
        </mxCell>
        <mxCell id="DFZbkyLsctiWiUxPVT1s-67" value="" style="endArrow=none;html=1;rounded=0;exitX=1;exitY=0.5;exitDx=0;exitDy=0;" edge="1" parent="1" source="DFZbkyLsctiWiUxPVT1s-63">
          <mxGeometry width="50" height="50" relative="1" as="geometry">
            <mxPoint x="50" y="320" as="sourcePoint" />
            <mxPoint x="70" y="310" as="targetPoint" />
          </mxGeometry>
        </mxCell>
      </root>
    </mxGraphModel>
  </diagram>
</mxfile>
